<svg id="Layer_1" data-name="Layer 1" xmlns="http://www.w3.org/2000/svg" viewBox="0 0 808 183"><defs><style>.cls-1{fill:#fff;}</style></defs><title>Artboard 1</title><g id="LOGO-3"><g id="Artwork_1" data-name="Artwork 1"><path class="cls-1" d="M23.26,40.14C23.26,22.33,42.6,14.4,57.8,14.4c12.9,0,28.37,8.75,34.76,33.51L94.95,58H105V12.33A109.92,109.92,0,0,0,59.16,2.57C26,2.57,3.56,22.09,3.56,50.88c0,57.82,87.58,39,87.58,87.34,0,21-14.43,29.37-36.62,29.37-29.67,0-35.15-31-38.48-52.59H6v50.55c10.72,7.32,31.21,13.67,45.35,13.67,37.56,0,63.4-22.94,63.4-53.68,0-26.83-12.68-37.67-48.77-51.33C33.06,61.76,23.26,58.44,23.26,40.14M249,15h15V7H217v8h19V126.65c0,25.38-13.3,41-36.61,41-15.46,0-32.39-9.51-32.39-39.29V15h18V7H124v8h15V129c0,33.68,19.69,50.27,59.36,50.27C232,179.27,249,155.2,249,126.9Zm161,0V7H363v8h19V126.65c0,25.38-13.3,41-36.61,41-15.46,0-32.39-9.51-32.39-39.29V15h19V7H271v8h14V129c0,33.68,19.69,50.27,59.36,50.27C378,179.27,395,155.2,395,126.9V15Z"/><path class="cls-1" d="M804.25,138h-8.36l-8.72,18.58L778.46,138h-8.72L783,162.89V178h8V162.83ZM764,138H735v6h10v34h8V144h10.16Zm-41,0h-8v40h8Zm-35.63-.42c-7.78,0-13.44,4.35-13.44,10.92,0,6,3.6,9.32,11.89,11.89,6.17,1.89,7.83,3.37,7.83,6.69,0,3.83-3,5.89-7.26,5.89A14.86,14.86,0,0,1,676.27,169l-3.94,4.34a19.66,19.66,0,0,0,14.23,5.43c9.43,0,15-5,15-12.12,0-7.43-4.8-10.29-11.72-12.46-6.58-2.06-8.12-3.32-8.12-6.17,0-3.09,2.57-4.69,6.12-4.69a13.28,13.28,0,0,1,8.86,3.37l3.72-4.29c-3.42-3.14-7.25-4.86-13-4.86M642,144h4.14c5.6,0,8.1,1.87,8.1,6.24,0,4.84-2.68,6.76-7.46,6.76H642Zm14.36,34h7.8l-10.48-17.42c5.44-2.14,8.1-5.33,8.1-10.82,0-7.93-5.38-11.75-15.86-11.75H634v40h8V162h5.09Zm-35.89-40H597v40h23v-6H604V161h13v-6H604V144h15.61ZM586,138h-7.82l-8.45,33.23L561,138h-8.22L565,178h9.09Zm-44,0h-8v40h8Zm-24,0h-7v18.76a103.24,103.24,0,0,0,1,13.66L498.42,138H489v40h7V161.68a129,129,0,0,0-1-16L508.35,178H518Zm-45,0h-7v26.18c0,5.55-2.19,8.29-7,8.29s-7-2.74-7-8.29V138h-8v26.58c0,8.12,4.85,13.78,14.44,13.78S473,172.53,473,164.58Z"/><path class="cls-1" d="M584,112h8V72h-8V89H570V72h-7v40h7V94h14ZM529.58,97l5-18.87L539.7,97Zm13.92,15h8.36L539.47,72H530l-12.45,40h8.19l2.42-9h12.88ZM514.38,73H485v5h10v34h8V78h10.57ZM473,73h-7V99.18c0,5.55-2.19,8.29-7,8.29s-7-2.74-7-8.29V73h-8V99.58c0,8.12,4.85,13.78,14.44,13.78S473,107.53,473,99.58Z"/><path class="cls-1" d="M765,7h-7V25.76a103.24,103.24,0,0,0,1,13.66L745.42,7H736V47h7V30.68a129,129,0,0,0-1-16L755.35,47H765Zm-64,5h4.14c5.6,0,8.1,1.87,8.1,6.24,0,4.84-2.68,6.76-7.46,6.76H701Zm15.36,35h7.8L713.68,29.58c5.44-2.14,8.1-5.33,8.1-10.82C721.78,10.83,716.4,7,705.92,7H694V47h8V31h5.09ZM680.47,7H657V47h23V41H664V29h13V23H664V13h15.61ZM633,47h8V7h-8V23H619V7h-8V47h8V29h14ZM599,7H570v6h11V47h7V13h10.16ZM558,7h-7V33.19c0,5.55-2.19,8.29-7,8.29s-7-2.74-7-8.29V7h-8V33.58c0,8.12,4.85,13.78,14.44,13.78S558,41.53,558,33.58Zm-59.35,4.93c6,0,9.32,4.23,9.32,14.81s-3.43,14.86-9.32,14.86-9.38-4.17-9.38-14.81,3.49-14.86,9.38-14.86m0-5.77c-10.58,0-17.32,7.66-17.32,20.64,0,13.2,6.75,20.58,17.32,20.58s17.27-7.6,17.27-20.64c0-13.21-6.69-20.58-17.27-20.58M456,6.16c-7.78,0-13.44,4.35-13.44,10.92,0,6,3.6,9.32,11.89,11.89,6.17,1.89,7.83,3.37,7.83,6.69,0,3.83-3,5.89-7.26,5.89a14.86,14.86,0,0,1-10.12-3.94L441,42a19.66,19.66,0,0,0,14.23,5.43c9.43,0,15-5,15-12.12,0-7.43-4.8-10.29-11.72-12.46-6.58-2.06-8.12-3.32-8.12-6.17,0-3.09,2.57-4.69,6.12-4.69a13.28,13.28,0,0,1,8.86,3.37L469,11c-3.42-3.16-7.25-4.87-13-4.87"/></g></g></svg>