<?xml version="1.0" standalone="no"?>
<!DOCTYPE svg PUBLIC "-//W3C//DTD SVG 1.1//EN" "http://www.w3.org/Graphics/SVG/1.1/DTD/svg11.dtd">
<svg xmlns="http://www.w3.org/2000/svg" xmlns:xlink="http://www.w3.org/1999/xlink" version="1.1" id="Layer_1" x="0px" y="0px" viewBox="0 0 295.01 84.56" style="enable-background:new 0 0 295.01 84.56;" xml:space="preserve" width="295.010009765625" height="84.55999755859375">
<style type="text/css">
	.st0{fill:#225B7E;}
	.st1{fill:#FFDD00;}
	.st2{fill:#FFFFFF;}
</style>
<g>
	<path class="st0" d="M62.9,55.86v3.82c0,1.78-1.45,3.22-3.22,3.22h-6.44h-0.6v-0.6v-9.06v-0.6h0.6h6.44   C61.46,52.64,62.9,54.08,62.9,55.86z M23.71,16.67h-6.44h-0.6v0.6v9.06v0.6h0.6h6.44c1.78,0,3.22-1.45,3.22-3.22v-3.82   C26.93,18.11,25.49,16.67,23.71,16.67z M79.57,0v64.62c0,8.26-6.69,14.95-14.95,14.95h-13.7c-4.42,0-8.39,1.93-11.13,4.99   c-2.74-3.06-6.71-4.99-11.13-4.99H14.94C6.69,79.57,0,72.88,0,64.63V0h0h28.65c4.42,0,8.4,1.93,11.13,4.99   C42.52,1.93,46.5,0,50.92,0H79.57z M35.98,62.9h-9.65l-6.44,0l-2.62,0h-0.6v-0.6v-2.62v-3.82V42.12H6.15v22.5   c0,4.85,3.95,8.8,8.8,8.8h21.03V62.9z M37.45,14.95c0-4.85-3.95-8.8-8.8-8.8H6.15v31.3h22.5c4.85,0,8.8-3.95,8.8-8.8V14.95z    M73.42,50.92c0-4.85-3.95-8.8-8.8-8.8h-22.5v31.3h22.5c4.85,0,8.8-3.95,8.8-8.8V50.92z M73.42,6.15h-22.5   c-4.85,0-8.8,3.95-8.8,8.8v13.7c0,4.85,3.95,8.8,8.8,8.8h22.5V26.93H55.86c-1.78,0-3.22-1.45-3.22-3.22v-3.82   c0-1.78,1.45-3.22,3.22-3.22h17.56V6.15z"/>
	
		<rect x="25.76" y="46.55" transform="matrix(0.7071 0.7071 -0.7071 0.7071 44.088 -6.0853)" class="st1" width="7.25" height="7.25"/>
	<g>
		<g>
			<path d="M92,16.67h5.67c5.59,0,9.3,3.84,9.3,9.46c0,5.62-3.7,9.46-9.3,9.46H92V16.67z M97.6,33.4c4.5,0,7.01-2.9,7.01-7.27     c0-4.37-2.5-7.27-7.01-7.27h-3.3V33.4H97.6z"/>
			<path d="M121.86,35.58h-2.24v-2.26c-0.72,1.33-2.24,2.53-4.63,2.53c-2.9,0-5.41-1.81-5.41-5.97v-8.15h2.24v7.83     c0,2.8,1.65,4.24,3.86,4.24s3.94-1.44,3.94-4.24v-7.83h2.24V35.58z"/>
			<path d="M126.7,16.67v7.67h0.08c0.67-1.47,2.61-2.88,5.19-2.88c3.36,0,6.79,2.45,6.79,7.19c0,4.74-3.44,7.19-6.79,7.19     c-2.58,0-4.53-1.41-5.19-2.88h-0.08v2.61h-2.24V16.67H126.7z M131.6,33.8c2.45,0,4.93-1.7,4.93-5.14c0-3.44-2.48-5.14-4.93-5.14     c-2.5,0-4.98,1.73-4.98,5.14S129.1,33.8,131.6,33.8z"/>
			<path d="M153.52,35.58h-2.24v-2.26c-0.72,1.33-2.24,2.53-4.63,2.53c-2.9,0-5.41-1.81-5.41-5.97v-8.15h2.24v7.83     c0,2.8,1.65,4.24,3.86,4.24c2.21,0,3.94-1.44,3.94-4.24v-7.83h2.24V35.58z"/>
			<path d="M168.06,40.64v-7.67h-0.08c-0.67,1.47-2.61,2.88-5.19,2.88c-3.36,0-6.79-2.45-6.79-7.19c0-4.74,3.44-7.19,6.79-7.19     c2.58,0,4.53,1.41,5.19,2.88h0.08v-2.61h2.24v18.91H168.06z M163.16,33.8c2.5,0,4.98-1.73,4.98-5.14s-2.48-5.14-4.98-5.14     c-2.45,0-4.93,1.7-4.93,5.14C158.23,32.09,160.71,33.8,163.16,33.8z"/>
			<path d="M185.18,35.58h-2.24v-2.26c-0.72,1.33-2.24,2.53-4.63,2.53c-2.9,0-5.41-1.81-5.41-5.97v-8.15h2.24v7.83     c0,2.8,1.65,4.24,3.86,4.24c2.21,0,3.94-1.44,3.94-4.24v-7.83h2.24V35.58z"/>
			<path d="M187.66,28.66c0-4.66,3.41-7.19,6.9-7.19c3.52,0,7.19,2.53,6.63,8.02h-11.4c0.35,2.9,2.56,4.45,5.22,4.45     c1.62,0,3.12-0.59,4.13-1.68l1.12,1.15c-1.25,1.54-3.25,2.45-5.49,2.45C191.04,35.85,187.66,33.27,187.66,28.66z M199.22,27.78     c-0.16-2.85-2.32-4.37-4.63-4.37c-2.29,0-4.45,1.47-4.79,4.37H199.22z"/>
			<path d="M209.17,26.13c0-5.78,4.34-9.72,9.64-9.72c2.32,0,5.33,0.77,7.38,3.7l-1.68,1.23c-1.57-2.1-3.81-2.72-5.65-2.72     c-4.05,0-7.35,2.98-7.35,7.51c0,4.55,3.3,7.51,7.38,7.51c1.84,0,4.05-0.61,5.62-2.72l1.68,1.23c-2.05,2.93-5.03,3.7-7.38,3.7     C213.52,35.85,209.17,31.91,209.17,26.13z"/>
			<path d="M227.6,28.66c0-4.63,3.6-7.19,7.19-7.19c3.6,0,7.19,2.56,7.19,7.19c0,4.63-3.6,7.19-7.19,7.19     C231.2,35.85,227.6,33.29,227.6,28.66z M234.79,33.8c2.56,0,4.95-1.86,4.95-5.14s-2.4-5.14-4.95-5.14     c-2.56,0-4.95,1.86-4.95,5.14S232.24,33.8,234.79,33.8z"/>
			<path d="M256.42,35.58h-2.24v-2.26c-0.72,1.33-2.24,2.53-4.63,2.53c-2.9,0-5.41-1.81-5.41-5.97v-8.15h2.24v7.83     c0,2.8,1.65,4.24,3.86,4.24c2.21,0,3.94-1.44,3.94-4.24v-7.83h2.24V35.58z"/>
			<path d="M258.81,21.73h2.24V24c0.72-1.33,2.24-2.53,4.63-2.53c2.9,0,5.41,1.81,5.41,5.97v8.15h-2.24v-7.83     c0-2.8-1.65-4.23-3.86-4.23s-3.94,1.44-3.94,4.23v7.83h-2.24V21.73z"/>
			<path d="M274.31,32.76v-9.19h-1.86v-1.84h1.86v-3.54h2.24v3.54h2.74v1.84h-2.74v8.76c0,0.85,0.43,1.38,1.46,1.38     c0.32,0,0.75-0.05,1.25-0.24v1.78c-0.48,0.37-1.23,0.48-1.86,0.48C275.57,35.74,274.31,34.84,274.31,32.76z"/>
			<path d="M286.99,35.45l-5.83-13.72h2.32l4.61,11.08l4.61-11.08h2.32l-5.89,13.85l-2.21,5.06h-2.21L286.99,35.45z"/>
		</g>
		<g>
			<path d="M92.03,43.99h4.69v14.62h6.71v4.29h-11.4V43.99z"/>
			<path d="M105.08,43.99h4.61v3.97h-4.61V43.99z M105.08,49.05h4.61v13.85h-4.61V49.05z"/>
			<path d="M116.14,43.99v6.37h0.08c0.11-0.24,1.41-1.57,3.84-1.57c3.09,0,6.55,2.34,6.55,7.19s-3.46,7.19-6.55,7.19     c-2.42,0-3.73-1.33-3.84-1.57h-0.08v1.31h-4.61V43.99H116.14z M119.07,59.1c1.6,0,3.01-1.17,3.01-3.12     c0-1.94-1.41-3.12-3.01-3.12c-1.65,0-3.04,1.15-3.04,3.12C116.03,57.95,117.41,59.1,119.07,59.1z"/>
			<path d="M128.05,49.05h4.61v3.78c0.45-2.29,1.78-4.05,4.23-4.05c0.32,0,0.67,0.03,1.04,0.13v4.39c-0.35-0.08-0.64-0.11-1.01-0.11     c-2.77,0-4.26,1.81-4.26,4.32v5.38h-4.61V49.05z"/>
			<path d="M139.1,55.98c0-4.85,3.46-7.19,6.55-7.19c2.42,0,3.73,1.33,3.84,1.57h0.08v-1.31h4.61v13.85h-4.61V61.6h-0.08     c-0.11,0.24-1.41,1.57-3.84,1.57C142.56,63.17,139.1,60.83,139.1,55.98z M146.64,59.1c1.65,0,3.04-1.15,3.04-3.12     c0-1.97-1.38-3.12-3.04-3.12c-1.6,0-3.01,1.17-3.01,3.12C143.63,57.92,145.04,59.1,146.64,59.1z"/>
			<path d="M155.73,49.05h4.61v3.78c0.45-2.29,1.78-4.05,4.23-4.05c0.32,0,0.67,0.03,1.04,0.13v4.39c-0.35-0.08-0.64-0.11-1.01-0.11     c-2.77,0-4.26,1.81-4.26,4.32v5.38h-4.61V49.05z"/>
			<path d="M172.66,62.77l-5.73-13.72h4.69l3.25,8.47l3.22-8.47h4.69l-7.88,18.91h-4.5L172.66,62.77z"/>
			<path d="M189.49,43.99h7.75c4.95,0,9.03,3.94,9.03,9.46s-4.08,9.46-9.03,9.46h-7.75V43.99z M197.08,58.48     c2.88,0,4.29-2.1,4.29-5.03c0-2.93-1.41-5.03-4.29-5.03h-2.9v10.07H197.08z"/>
			<path d="M207.96,43.99h4.61v3.97h-4.61V43.99z M207.96,49.05h4.61v13.85h-4.61V49.05z"/>
			<path d="M214.23,59.18l3.62-0.99c0.19,0.48,0.51,1.41,1.73,1.41c0.64,0,1.17-0.29,1.17-0.88c0-0.29-0.16-0.67-0.88-0.88     l-2.02-0.75c-2.29-0.8-3.28-2.32-3.28-4.1c0-2.66,2.42-4.21,5.22-4.21c2.72,0,4.69,1.54,5.14,3.86l-3.6,0.88     c-0.29-1.07-0.96-1.23-1.36-1.23c-0.72,0-0.96,0.48-0.96,0.77c0,0.32,0.19,0.69,0.99,0.91l1.89,0.69     c1.33,0.43,3.38,1.47,3.38,4.05c0,2.8-2.4,4.45-5.62,4.45C216.81,63.17,214.66,61.89,214.23,59.18z"/>
			<path d="M228.66,58.27v-5.59h-2.1v-3.62h2.1v-3.54h4.61v3.54h2.93v3.62h-2.93v4.9c0,0.64,0.37,1.44,1.68,1.44     c0.32,0,0.83-0.05,1.31-0.21v3.49c-0.53,0.59-1.78,0.77-2.82,0.77C230.66,63.07,228.66,61.73,228.66,58.27z"/>
			<path d="M237.82,49.05h4.61v3.78c0.45-2.29,1.79-4.05,4.24-4.05c0.32,0,0.67,0.03,1.04,0.13v4.39c-0.35-0.08-0.64-0.11-1.01-0.11     c-2.77,0-4.26,1.81-4.26,4.32v5.38h-4.61V49.05z"/>
			<path d="M249.25,43.99h4.61v3.97h-4.61V43.99z M249.25,49.05h4.61v13.85h-4.61V49.05z"/>
			<path d="M255.44,55.95c0-4.69,3.7-7.17,7.43-7.17c2.45,0,4.58,1.12,5.99,3.41l-3.33,2.18c-0.61-0.77-1.46-1.47-2.66-1.47     c-1.6,0-2.9,1.23-2.9,3.04c0,1.86,1.31,3.09,2.9,3.09c1.2,0,2.05-0.69,2.66-1.47l3.33,2.18c-1.41,2.24-3.54,3.41-5.99,3.41     C259.14,63.17,255.44,60.69,255.44,55.95z"/>
			<path d="M272.39,58.27v-5.59h-2.1v-3.62h2.1v-3.54H277v3.54h2.93v3.62H277v4.9c0,0.64,0.37,1.44,1.68,1.44     c0.32,0,0.83-0.05,1.31-0.21v3.49c-0.53,0.59-1.78,0.77-2.82,0.77C274.39,63.07,272.39,61.73,272.39,58.27z"/>
		</g>
	</g>
	<g>
		<path class="st2" d="M16.66,59.68v-3.82V42.12H6.15v22.5c0,4.85,3.95,8.8,8.8,8.8h21.03V62.9h-9.65l-6.44,0l-2.62,0h-0.6v-0.6    V59.68z"/>
		<path class="st2" d="M42.12,42.12v31.3h22.5c4.85,0,8.8-3.95,8.8-8.8v-13.7c0-4.85-3.95-8.8-8.8-8.8H42.12z M62.9,59.68    c0,1.78-1.45,3.22-3.22,3.22h-6.44h-0.6v-0.6v-9.06v-0.6h0.6h6.44c1.78,0,3.22,1.45,3.22,3.22V59.68z"/>
		<path class="st2" d="M55.86,16.67h17.56V6.15h-22.5c-4.85,0-8.8,3.95-8.8,8.8v13.7c0,4.85,3.95,8.8,8.8,8.8h22.5V26.93H55.86    c-1.78,0-3.22-1.45-3.22-3.22v-3.82C52.64,18.11,54.08,16.67,55.86,16.67z"/>
		<path class="st2" d="M37.45,14.95c0-4.85-3.95-8.8-8.8-8.8H6.15v31.3h22.5c4.85,0,8.8-3.95,8.8-8.8V14.95z M26.93,23.71    c0,1.78-1.45,3.22-3.22,3.22h-6.44h-0.6v-0.6v-9.06v-0.6h0.6h6.44c1.78,0,3.22,1.45,3.22,3.22V23.71z"/>
	</g>
</g>
</svg>