<svg xmlns="http://www.w3.org/2000/svg" xmlns:xlink="http://www.w3.org/1999/xlink" width="220" zoomAndPan="magnify" viewBox="0 0 165 112.499997" height="150" preserveAspectRatio="xMidYMid meet" version="1.0"><defs><g/><clipPath id="id1"><path d="M 0.363281 0 L 164.632812 0 L 164.632812 112.003906 L 0.363281 112.003906 Z M 0.363281 0 " clip-rule="nonzero"/></clipPath><clipPath id="id2"><path d="M 46 4.515625 L 156 4.515625 L 156 8 L 46 8 Z M 46 4.515625 " clip-rule="nonzero"/></clipPath><clipPath id="id3"><path d="M 6 4.515625 L 154 4.515625 L 154 50 L 6 50 Z M 6 4.515625 " clip-rule="nonzero"/></clipPath><clipPath id="id4"><path d="M 10 52 L 158.480469 52 L 158.480469 100.394531 L 10 100.394531 Z M 10 52 " clip-rule="nonzero"/></clipPath></defs><g clip-path="url(#id1)"><path fill="#ffffff" d="M 0.363281 0 L 164.636719 0 L 164.636719 119.46875 L 0.363281 119.46875 Z M 0.363281 0 " fill-opacity="1" fill-rule="nonzero"/><path fill="#ffffff" d="M 0.363281 0 L 164.636719 0 L 164.636719 112.003906 L 0.363281 112.003906 Z M 0.363281 0 " fill-opacity="1" fill-rule="nonzero"/><path fill="#ffffff" d="M 0.363281 0 L 164.636719 0 L 164.636719 112.003906 L 0.363281 112.003906 Z M 0.363281 0 " fill-opacity="1" fill-rule="nonzero"/><path fill="#ffffff" d="M 0.363281 0 L 164.636719 0 L 164.636719 112.003906 L 0.363281 112.003906 Z M 0.363281 0 " fill-opacity="1" fill-rule="nonzero"/></g><path fill="#000000" d="M 151.753906 44.582031 C 151.75 44.582031 151.746094 44.582031 151.738281 44.582031 L 29.308594 44.582031 C 20.800781 44.582031 14.132812 36.820312 14.132812 26.914062 C 14.132812 17.175781 20.941406 9.25 29.308594 9.25 L 151.738281 9.25 C 152.421875 9.25 153.027344 9.675781 153.257812 10.320312 C 153.488281 10.960938 153.289062 11.675781 152.765625 12.109375 C 152.695312 12.167969 145.605469 18.140625 145.320312 26.476562 C 145.140625 31.683594 147.636719 36.800781 152.734375 41.6875 C 153.117188 41.984375 153.363281 42.449219 153.363281 42.96875 C 153.363281 43.859375 152.644531 44.582031 151.753906 44.582031 Z M 29.308594 12.476562 C 22.71875 12.476562 17.359375 18.953125 17.359375 26.914062 C 17.359375 35.011719 22.609375 41.351562 29.308594 41.351562 L 147.976562 41.351562 C 143.890625 36.570312 141.914062 31.535156 142.097656 26.335938 C 142.316406 20.234375 145.472656 15.355469 147.90625 12.476562 Z M 29.308594 12.476562 " fill-opacity="1" fill-rule="nonzero"/><g clip-path="url(#id2)"><path fill="#000000" d="M 153.691406 7.769531 L 48.195312 7.769531 C 47.304688 7.769531 46.585938 7.046875 46.585938 6.152344 C 46.585938 5.261719 47.304688 4.539062 48.195312 4.539062 L 153.691406 4.539062 C 154.582031 4.539062 155.304688 5.261719 155.304688 6.152344 C 155.304688 7.046875 154.582031 7.769531 153.691406 7.769531 Z M 153.691406 7.769531 " fill-opacity="1" fill-rule="nonzero"/></g><g clip-path="url(#id3)"><path fill="#000000" d="M 151.714844 49.292969 L 26.777344 49.292969 C 15.253906 49.292969 6.230469 39.464844 6.230469 26.914062 C 6.230469 14.574219 15.449219 4.539062 26.777344 4.539062 L 35.410156 4.539062 C 36.300781 4.539062 37.023438 5.261719 37.023438 6.152344 C 37.023438 7.042969 36.300781 7.765625 35.410156 7.765625 L 26.777344 7.765625 C 17.226562 7.765625 9.453125 16.355469 9.453125 26.914062 C 9.453125 37.652344 17.0625 46.0625 26.777344 46.0625 L 151.714844 46.0625 C 152.605469 46.0625 153.324219 46.785156 153.324219 47.675781 C 153.324219 48.570312 152.605469 49.292969 151.714844 49.292969 Z M 151.714844 49.292969 " fill-opacity="1" fill-rule="nonzero"/></g><path fill="#000000" d="M 32.347656 56.054688 L 10.570312 56.054688 C 9.679688 56.054688 8.960938 55.332031 8.960938 54.441406 C 8.960938 53.550781 9.679688 52.828125 10.570312 52.828125 L 32.347656 52.828125 C 33.238281 52.828125 33.960938 53.550781 33.960938 54.441406 C 33.960938 55.332031 33.238281 56.054688 32.347656 56.054688 Z M 32.347656 56.054688 " fill-opacity="1" fill-rule="nonzero"/><g clip-path="url(#id4)"><path fill="#000000" d="M 137.484375 100.148438 L 12.550781 100.148438 C 11.660156 100.148438 10.9375 99.425781 10.9375 98.535156 C 10.9375 97.644531 11.660156 96.921875 12.550781 96.921875 L 137.484375 96.921875 C 147.199219 96.921875 154.808594 87.945312 154.808594 76.488281 C 154.808594 65.222656 147.039062 56.054688 137.484375 56.054688 L 49.59375 56.054688 C 48.703125 56.054688 47.980469 55.332031 47.980469 54.441406 C 47.980469 53.550781 48.703125 52.828125 49.59375 52.828125 L 137.484375 52.828125 C 148.816406 52.828125 158.035156 63.441406 158.035156 76.488281 C 158.035156 89.757812 149.007812 100.148438 137.484375 100.148438 Z M 137.484375 100.148438 " fill-opacity="1" fill-rule="nonzero"/></g><path fill="#000000" d="M 135.25 95.449219 L 13.679688 95.449219 C 13.03125 95.449219 12.445312 95.0625 12.195312 94.464844 C 11.941406 93.867188 12.070312 93.179688 12.519531 92.714844 C 17.714844 87.335938 20.246094 81.6875 20.039062 75.921875 C 19.710938 66.820312 12.675781 60.410156 12.601562 60.34375 C 12.105469 59.898438 11.933594 59.191406 12.171875 58.566406 C 12.410156 57.941406 13.011719 57.527344 13.679688 57.527344 L 135.25 57.527344 C 143.566406 57.527344 150.332031 66.035156 150.332031 76.488281 C 150.332031 87.121094 143.707031 95.449219 135.25 95.449219 Z M 17.253906 92.222656 L 135.25 92.222656 C 141.898438 92.222656 147.109375 85.3125 147.109375 76.488281 C 147.109375 67.8125 141.789062 60.757812 135.25 60.757812 L 17.328125 60.757812 C 19.746094 63.800781 23.019531 69.117188 23.261719 75.804688 C 23.464844 81.480469 21.445312 86.988281 17.253906 92.222656 Z M 17.253906 92.222656 " fill-opacity="1" fill-rule="nonzero"/><g fill="#ff914d" fill-opacity="1"><g transform="translate(24.321921, 37.046045)"><g><path d="M 21.765625 -19.734375 L 21.765625 0 L 19.234375 0 L 19.234375 -12.375 L 12.1875 -2.40625 L 12.140625 -2.40625 L 5.234375 -12.03125 L 5.234375 0 L 2.75 0 L 2.75 -19.734375 L 2.78125 -19.734375 L 12.1875 -6.40625 L 21.75 -19.734375 Z M 21.765625 -19.734375 "/></g></g></g><g fill="#ff914d" fill-opacity="1"><g transform="translate(53.493037, 37.046045)"><g><path d="M 15.1875 -19.125 L 15.1875 -16.671875 L 5.3125 -16.671875 L 5.3125 -10.84375 L 14.125 -10.84375 L 14.125 -8.390625 L 5.3125 -8.390625 L 5.3125 -2.484375 L 15.546875 -2.484375 L 15.546875 0 L 2.75 0 L 2.75 -19.125 Z M 15.1875 -19.125 "/></g></g></g><g fill="#ff914d" fill-opacity="1"><g transform="translate(75.41805, 37.046045)"><g><path d="M 14.046875 -19.125 L 14.046875 -16.671875 L 8.921875 -16.671875 L 8.921875 0 L 6.34375 0 L 6.34375 -16.671875 L 1.34375 -16.671875 L 1.34375 -19.125 Z M 14.046875 -19.125 "/></g></g></g><g fill="#ff914d" fill-opacity="1"><g transform="translate(95.465419, 37.046045)"><g><path d="M 13.28125 0 L 8.78125 -7.0625 C 8.644531 -7.039062 8.429688 -7.03125 8.140625 -7.03125 L 5.3125 -7.03125 L 5.3125 0 L 2.75 0 L 2.75 -19.125 L 7.859375 -19.125 C 9.160156 -19.125 10.320312 -18.894531 11.34375 -18.4375 C 12.363281 -17.976562 13.164062 -17.300781 13.75 -16.40625 C 14.332031 -15.519531 14.625 -14.453125 14.625 -13.203125 C 14.625 -12.015625 14.363281 -10.925781 13.84375 -9.9375 C 13.320312 -8.957031 12.523438 -8.210938 11.453125 -7.703125 L 16.265625 0 Z M 8.09375 -9.515625 C 9.46875 -9.515625 10.457031 -9.875 11.0625 -10.59375 C 11.675781 -11.320312 11.984375 -12.15625 11.984375 -13.09375 C 11.984375 -13.65625 11.851562 -14.207031 11.59375 -14.75 C 11.34375 -15.300781 10.9375 -15.757812 10.375 -16.125 C 9.820312 -16.488281 9.125 -16.671875 8.28125 -16.671875 L 5.3125 -16.671875 L 5.3125 -9.515625 Z M 8.09375 -9.515625 "/></g></g></g><g fill="#ff914d" fill-opacity="1"><g transform="translate(117.575556, 37.046045)"><g><path d="M 1.5625 -9.546875 C 1.5625 -11.296875 2 -12.921875 2.875 -14.421875 C 3.757812 -15.921875 4.945312 -17.113281 6.4375 -18 C 7.925781 -18.894531 9.554688 -19.34375 11.328125 -19.34375 C 13.066406 -19.34375 14.6875 -18.894531 16.1875 -18 C 17.6875 -17.113281 18.878906 -15.921875 19.765625 -14.421875 C 20.660156 -12.921875 21.109375 -11.296875 21.109375 -9.546875 C 21.109375 -7.785156 20.664062 -6.15625 19.78125 -4.65625 C 18.90625 -3.15625 17.710938 -1.96875 16.203125 -1.09375 C 14.691406 -0.21875 13.066406 0.21875 11.328125 0.21875 C 9.554688 0.21875 7.921875 -0.210938 6.421875 -1.078125 C 4.921875 -1.941406 3.734375 -3.117188 2.859375 -4.609375 C 1.992188 -6.097656 1.5625 -7.742188 1.5625 -9.546875 Z M 4.203125 -9.515625 C 4.203125 -8.210938 4.519531 -7.003906 5.15625 -5.890625 C 5.789062 -4.785156 6.660156 -3.90625 7.765625 -3.25 C 8.867188 -2.601562 10.070312 -2.28125 11.375 -2.28125 C 12.675781 -2.28125 13.867188 -2.597656 14.953125 -3.234375 C 16.046875 -3.878906 16.90625 -4.757812 17.53125 -5.875 C 18.15625 -7 18.46875 -8.222656 18.46875 -9.546875 C 18.46875 -10.867188 18.148438 -12.09375 17.515625 -13.21875 C 16.878906 -14.351562 16.015625 -15.242188 14.921875 -15.890625 C 13.828125 -16.546875 12.628906 -16.875 11.328125 -16.875 C 10.015625 -16.875 8.8125 -16.539062 7.71875 -15.875 C 6.625 -15.21875 5.765625 -14.320312 5.140625 -13.1875 C 4.515625 -12.0625 4.203125 -10.835938 4.203125 -9.515625 Z M 4.203125 -9.515625 "/></g></g></g><g fill="#3fb0b9" fill-opacity="1"><g transform="translate(28.77086, 85.93198)"><g><path d="M 12.640625 -15.71875 C 11.953125 -16.082031 11.21875 -16.378906 10.4375 -16.609375 C 9.664062 -16.835938 8.9375 -16.953125 8.25 -16.953125 C 7.207031 -16.953125 6.382812 -16.71875 5.78125 -16.25 C 5.175781 -15.78125 4.875 -15.144531 4.875 -14.34375 C 4.875 -13.539062 5.226562 -12.890625 5.9375 -12.390625 C 6.65625 -11.890625 7.675781 -11.394531 9 -10.90625 C 9.976562 -10.550781 10.804688 -10.164062 11.484375 -9.75 C 12.171875 -9.332031 12.738281 -8.757812 13.1875 -8.03125 C 13.632812 -7.300781 13.859375 -6.367188 13.859375 -5.234375 C 13.859375 -4.210938 13.601562 -3.285156 13.09375 -2.453125 C 12.582031 -1.628906 11.851562 -0.976562 10.90625 -0.5 C 9.96875 -0.0195312 8.863281 0.21875 7.59375 0.21875 C 6.40625 0.21875 5.265625 0.03125 4.171875 -0.34375 C 3.085938 -0.726562 2.128906 -1.210938 1.296875 -1.796875 L 2.4375 -3.828125 C 3.082031 -3.335938 3.863281 -2.921875 4.78125 -2.578125 C 5.695312 -2.234375 6.554688 -2.0625 7.359375 -2.0625 C 8.378906 -2.0625 9.269531 -2.328125 10.03125 -2.859375 C 10.800781 -3.390625 11.1875 -4.175781 11.1875 -5.21875 C 11.1875 -6.09375 10.863281 -6.789062 10.21875 -7.3125 C 9.582031 -7.832031 8.679688 -8.320312 7.515625 -8.78125 C 6.441406 -9.1875 5.546875 -9.582031 4.828125 -9.96875 C 4.109375 -10.363281 3.492188 -10.898438 2.984375 -11.578125 C 2.472656 -12.253906 2.21875 -13.101562 2.21875 -14.125 C 2.21875 -15.625 2.742188 -16.835938 3.796875 -17.765625 C 4.847656 -18.691406 6.210938 -19.179688 7.890625 -19.234375 C 9.953125 -19.234375 11.863281 -18.722656 13.625 -17.703125 Z M 12.640625 -15.71875 "/></g></g></g><g fill="#3fb0b9" fill-opacity="1"><g transform="translate(48.818233, 85.93198)"><g><path d="M 17.90625 0 L 15.34375 0 L 15.34375 -8.390625 L 5.3125 -8.390625 L 5.3125 0 L 2.75 0 L 2.75 -19.125 L 5.3125 -19.125 L 5.3125 -10.84375 L 15.34375 -10.84375 L 15.34375 -19.125 L 17.90625 -19.125 Z M 17.90625 0 "/></g></g></g><g fill="#3fb0b9" fill-opacity="1"><g transform="translate(74.128285, 85.93198)"><g><path d="M 12.78125 -5.03125 L 5.421875 -5.03125 L 3.390625 0 L 0.84375 0 L 9.203125 -19.921875 L 9.359375 -19.921875 L 17.71875 0 L 14.765625 0 Z M 11.90625 -7.25 L 9.171875 -14.234375 L 6.34375 -7.25 Z M 11.90625 -7.25 "/></g></g></g><g fill="#3fb0b9" fill-opacity="1"><g transform="translate(97.322681, 85.93198)"><g><path d="M 13.28125 0 L 8.78125 -7.0625 C 8.644531 -7.039062 8.429688 -7.03125 8.140625 -7.03125 L 5.3125 -7.03125 L 5.3125 0 L 2.75 0 L 2.75 -19.125 L 7.859375 -19.125 C 9.160156 -19.125 10.320312 -18.894531 11.34375 -18.4375 C 12.363281 -17.976562 13.164062 -17.300781 13.75 -16.40625 C 14.332031 -15.519531 14.625 -14.453125 14.625 -13.203125 C 14.625 -12.015625 14.363281 -10.925781 13.84375 -9.9375 C 13.320312 -8.957031 12.523438 -8.210938 11.453125 -7.703125 L 16.265625 0 Z M 8.09375 -9.515625 C 9.46875 -9.515625 10.457031 -9.875 11.0625 -10.59375 C 11.675781 -11.320312 11.984375 -12.15625 11.984375 -13.09375 C 11.984375 -13.65625 11.851562 -14.207031 11.59375 -14.75 C 11.34375 -15.300781 10.9375 -15.757812 10.375 -16.125 C 9.820312 -16.488281 9.125 -16.671875 8.28125 -16.671875 L 5.3125 -16.671875 L 5.3125 -9.515625 Z M 8.09375 -9.515625 "/></g></g></g><g fill="#3fb0b9" fill-opacity="1"><g transform="translate(119.432818, 85.93198)"><g><path d="M 15.1875 -19.125 L 15.1875 -16.671875 L 5.3125 -16.671875 L 5.3125 -10.84375 L 14.125 -10.84375 L 14.125 -8.390625 L 5.3125 -8.390625 L 5.3125 -2.484375 L 15.546875 -2.484375 L 15.546875 0 L 2.75 0 L 2.75 -19.125 Z M 15.1875 -19.125 "/></g></g></g><g fill="#000000" fill-opacity="1"><g transform="translate(14.214547, 108.246801)"><g><path d="M 3.65625 -1.4375 L 1.546875 -1.4375 L 0.96875 0 L 0.25 0 L 2.640625 -5.703125 L 2.6875 -5.703125 L 5.078125 0 L 4.234375 0 Z M 3.40625 -2.078125 L 2.625 -4.078125 L 1.8125 -2.078125 Z M 3.40625 -2.078125 "/></g></g></g><g fill="#000000" fill-opacity="1"><g transform="translate(20.645569, 108.246801)"><g/></g></g><g fill="#000000" fill-opacity="1"><g transform="translate(24.156839, 108.246801)"><g><path d="M 4.8125 -0.40625 C 4.632812 -0.289062 4.410156 -0.179688 4.140625 -0.078125 C 3.867188 0.015625 3.578125 0.0625 3.265625 0.0625 C 2.703125 0.0625 2.207031 -0.0625 1.78125 -0.3125 C 1.351562 -0.5625 1.023438 -0.894531 0.796875 -1.3125 C 0.566406 -1.726562 0.453125 -2.191406 0.453125 -2.703125 C 0.453125 -3.242188 0.566406 -3.726562 0.796875 -4.15625 C 1.023438 -4.582031 1.34375 -4.921875 1.75 -5.171875 C 2.164062 -5.421875 2.632812 -5.546875 3.15625 -5.546875 C 3.46875 -5.546875 3.753906 -5.503906 4.015625 -5.421875 C 4.285156 -5.335938 4.53125 -5.226562 4.75 -5.09375 L 4.453125 -4.40625 C 4.023438 -4.6875 3.601562 -4.828125 3.1875 -4.828125 C 2.832031 -4.828125 2.503906 -4.734375 2.203125 -4.546875 C 1.898438 -4.367188 1.660156 -4.117188 1.484375 -3.796875 C 1.304688 -3.472656 1.21875 -3.117188 1.21875 -2.734375 C 1.21875 -2.335938 1.296875 -1.976562 1.453125 -1.65625 C 1.617188 -1.34375 1.851562 -1.097656 2.15625 -0.921875 C 2.46875 -0.742188 2.820312 -0.65625 3.21875 -0.65625 C 3.707031 -0.65625 4.132812 -0.789062 4.5 -1.0625 Z M 4.8125 -0.40625 "/></g></g></g><g fill="#000000" fill-opacity="1"><g transform="translate(30.534775, 108.246801)"><g><path d="M 0.453125 -2.734375 C 0.453125 -3.234375 0.578125 -3.695312 0.828125 -4.125 C 1.078125 -4.5625 1.414062 -4.90625 1.84375 -5.15625 C 2.269531 -5.414062 2.738281 -5.546875 3.25 -5.546875 C 3.75 -5.546875 4.210938 -5.414062 4.640625 -5.15625 C 5.066406 -4.90625 5.40625 -4.5625 5.65625 -4.125 C 5.914062 -3.695312 6.046875 -3.234375 6.046875 -2.734375 C 6.046875 -2.234375 5.921875 -1.765625 5.671875 -1.328125 C 5.421875 -0.898438 5.078125 -0.5625 4.640625 -0.3125 C 4.210938 -0.0625 3.75 0.0625 3.25 0.0625 C 2.738281 0.0625 2.269531 -0.0625 1.84375 -0.3125 C 1.414062 -0.5625 1.078125 -0.898438 0.828125 -1.328125 C 0.578125 -1.753906 0.453125 -2.222656 0.453125 -2.734375 Z M 1.203125 -2.734375 C 1.203125 -2.359375 1.289062 -2.007812 1.46875 -1.6875 C 1.65625 -1.375 1.90625 -1.125 2.21875 -0.9375 C 2.539062 -0.75 2.890625 -0.65625 3.265625 -0.65625 C 3.628906 -0.65625 3.96875 -0.742188 4.28125 -0.921875 C 4.59375 -1.109375 4.835938 -1.363281 5.015625 -1.6875 C 5.203125 -2.007812 5.296875 -2.359375 5.296875 -2.734375 C 5.296875 -3.109375 5.203125 -3.457031 5.015625 -3.78125 C 4.835938 -4.113281 4.585938 -4.367188 4.265625 -4.546875 C 3.953125 -4.734375 3.613281 -4.828125 3.25 -4.828125 C 2.875 -4.828125 2.53125 -4.734375 2.21875 -4.546875 C 1.90625 -4.359375 1.65625 -4.101562 1.46875 -3.78125 C 1.289062 -3.457031 1.203125 -3.109375 1.203125 -2.734375 Z M 1.203125 -2.734375 "/></g></g></g><g fill="#000000" fill-opacity="1"><g transform="translate(38.148861, 108.246801)"><g><path d="M 6.234375 -5.65625 L 6.234375 0 L 5.515625 0 L 5.515625 -3.546875 L 3.5 -0.6875 L 3.484375 -0.6875 L 1.5 -3.453125 L 1.5 0 L 0.78125 0 L 0.78125 -5.65625 L 0.796875 -5.65625 L 3.5 -1.828125 Z M 6.234375 -5.65625 "/></g></g></g><g fill="#000000" fill-opacity="1"><g transform="translate(46.293814, 108.246801)"><g><path d="M 6.234375 -5.65625 L 6.234375 0 L 5.515625 0 L 5.515625 -3.546875 L 3.5 -0.6875 L 3.484375 -0.6875 L 1.5 -3.453125 L 1.5 0 L 0.78125 0 L 0.78125 -5.65625 L 0.796875 -5.65625 L 3.5 -1.828125 Z M 6.234375 -5.65625 "/></g></g></g><g fill="#000000" fill-opacity="1"><g transform="translate(54.438767, 108.246801)"><g><path d="M 1.453125 -1.9375 C 1.453125 -1.695312 1.507812 -1.476562 1.625 -1.28125 C 1.738281 -1.09375 1.894531 -0.941406 2.09375 -0.828125 C 2.300781 -0.710938 2.523438 -0.65625 2.765625 -0.65625 C 3.015625 -0.65625 3.242188 -0.707031 3.453125 -0.8125 C 3.660156 -0.925781 3.820312 -1.082031 3.9375 -1.28125 C 4.050781 -1.476562 4.109375 -1.695312 4.109375 -1.9375 L 4.109375 -5.484375 L 4.828125 -5.484375 L 4.828125 -1.921875 C 4.828125 -1.523438 4.734375 -1.175781 4.546875 -0.875 C 4.367188 -0.582031 4.125 -0.351562 3.8125 -0.1875 C 3.5 -0.0195312 3.148438 0.0625 2.765625 0.0625 C 2.390625 0.0625 2.046875 -0.0195312 1.734375 -0.1875 C 1.421875 -0.351562 1.171875 -0.582031 0.984375 -0.875 C 0.804688 -1.175781 0.71875 -1.523438 0.71875 -1.921875 L 0.71875 -5.484375 L 1.453125 -5.484375 Z M 1.453125 -1.9375 "/></g></g></g><g fill="#000000" fill-opacity="1"><g transform="translate(61.10488, 108.246801)"><g><path d="M 5.5625 -5.484375 L 5.5625 0.1875 L 5.546875 0.1875 L 1.515625 -3.90625 L 1.53125 0 L 0.78125 0 L 0.78125 -5.640625 L 0.828125 -5.640625 L 4.84375 -1.515625 L 4.828125 -5.484375 Z M 5.5625 -5.484375 "/></g></g></g><g fill="#000000" fill-opacity="1"><g transform="translate(68.574877, 108.246801)"><g><path d="M 1.515625 -5.484375 L 1.515625 0 L 0.78125 0 L 0.78125 -5.484375 Z M 1.515625 -5.484375 "/></g></g></g><g fill="#000000" fill-opacity="1"><g transform="translate(72.002724, 108.246801)"><g><path d="M 4.03125 -5.484375 L 4.03125 -4.78125 L 2.546875 -4.78125 L 2.546875 0 L 1.8125 0 L 1.8125 -4.78125 L 0.390625 -4.78125 L 0.390625 -5.484375 Z M 4.03125 -5.484375 "/></g></g></g><g fill="#000000" fill-opacity="1"><g transform="translate(77.53128, 108.246801)"><g><path d="M 5.03125 -5.484375 L 2.984375 -1.828125 L 2.984375 0 L 2.25 0 L 2.25 -1.828125 L 0.21875 -5.484375 L 1.125 -5.484375 L 2.625 -2.65625 L 4.125 -5.484375 Z M 5.03125 -5.484375 "/></g></g></g><g fill="#000000" fill-opacity="1"><g transform="translate(83.894047, 108.246801)"><g/></g></g><g fill="#000000" fill-opacity="1"><g transform="translate(87.405317, 108.246801)"><g><path d="M 0.453125 -2.734375 C 0.453125 -3.234375 0.578125 -3.695312 0.828125 -4.125 C 1.078125 -4.5625 1.414062 -4.90625 1.84375 -5.15625 C 2.269531 -5.414062 2.738281 -5.546875 3.25 -5.546875 C 3.75 -5.546875 4.210938 -5.414062 4.640625 -5.15625 C 5.066406 -4.90625 5.40625 -4.5625 5.65625 -4.125 C 5.914062 -3.695312 6.046875 -3.234375 6.046875 -2.734375 C 6.046875 -2.234375 5.921875 -1.765625 5.671875 -1.328125 C 5.421875 -0.898438 5.078125 -0.5625 4.640625 -0.3125 C 4.210938 -0.0625 3.75 0.0625 3.25 0.0625 C 2.738281 0.0625 2.269531 -0.0625 1.84375 -0.3125 C 1.414062 -0.5625 1.078125 -0.898438 0.828125 -1.328125 C 0.578125 -1.753906 0.453125 -2.222656 0.453125 -2.734375 Z M 1.203125 -2.734375 C 1.203125 -2.359375 1.289062 -2.007812 1.46875 -1.6875 C 1.65625 -1.375 1.90625 -1.125 2.21875 -0.9375 C 2.539062 -0.75 2.890625 -0.65625 3.265625 -0.65625 C 3.628906 -0.65625 3.96875 -0.742188 4.28125 -0.921875 C 4.59375 -1.109375 4.835938 -1.363281 5.015625 -1.6875 C 5.203125 -2.007812 5.296875 -2.359375 5.296875 -2.734375 C 5.296875 -3.109375 5.203125 -3.457031 5.015625 -3.78125 C 4.835938 -4.113281 4.585938 -4.367188 4.265625 -4.546875 C 3.953125 -4.734375 3.613281 -4.828125 3.25 -4.828125 C 2.875 -4.828125 2.53125 -4.734375 2.21875 -4.546875 C 1.90625 -4.359375 1.65625 -4.101562 1.46875 -3.78125 C 1.289062 -3.457031 1.203125 -3.109375 1.203125 -2.734375 Z M 1.203125 -2.734375 "/></g></g></g><g fill="#000000" fill-opacity="1"><g transform="translate(95.019403, 108.246801)"><g><path d="M 4.046875 -5.484375 L 4.046875 -4.78125 L 1.515625 -4.78125 L 1.515625 -3.03125 L 3.734375 -3.03125 L 3.734375 -2.328125 L 1.515625 -2.328125 L 1.515625 0 L 0.78125 0 L 0.78125 -5.484375 Z M 4.046875 -5.484375 "/></g></g></g><g fill="#000000" fill-opacity="1"><g transform="translate(100.601044, 108.246801)"><g/></g></g><g fill="#000000" fill-opacity="1"><g transform="translate(104.112319, 108.246801)"><g><path d="M 1.515625 -5.484375 L 1.515625 -0.71875 L 4.3125 -0.71875 L 4.3125 0 L 0.78125 0 L 0.78125 -5.484375 Z M 1.515625 -5.484375 "/></g></g></g><g fill="#000000" fill-opacity="1"><g transform="translate(109.944225, 108.246801)"><g><path d="M 1.515625 -5.484375 L 1.515625 0 L 0.78125 0 L 0.78125 -5.484375 Z M 1.515625 -5.484375 "/></g></g></g><g fill="#000000" fill-opacity="1"><g transform="translate(113.372067, 108.246801)"><g><path d="M 3.234375 -2.84375 C 3.546875 -2.71875 3.789062 -2.539062 3.96875 -2.3125 C 4.15625 -2.09375 4.25 -1.832031 4.25 -1.53125 C 4.25 -1.1875 4.160156 -0.898438 3.984375 -0.671875 C 3.816406 -0.441406 3.59375 -0.269531 3.3125 -0.15625 C 3.039062 -0.0507812 2.742188 0 2.421875 0 L 0.78125 0 L 0.78125 -5.484375 L 2.203125 -5.484375 C 2.765625 -5.484375 3.195312 -5.367188 3.5 -5.140625 C 3.8125 -4.910156 3.96875 -4.5625 3.96875 -4.09375 C 3.96875 -3.8125 3.898438 -3.5625 3.765625 -3.34375 C 3.640625 -3.132812 3.460938 -2.96875 3.234375 -2.84375 Z M 1.515625 -3.078125 L 2.359375 -3.078125 C 2.640625 -3.078125 2.851562 -3.15625 3 -3.3125 C 3.144531 -3.476562 3.21875 -3.691406 3.21875 -3.953125 C 3.21875 -4.222656 3.128906 -4.425781 2.953125 -4.5625 C 2.785156 -4.707031 2.546875 -4.78125 2.234375 -4.78125 L 1.515625 -4.78125 Z M 2.390625 -0.6875 C 2.703125 -0.6875 2.960938 -0.753906 3.171875 -0.890625 C 3.378906 -1.035156 3.484375 -1.25 3.484375 -1.53125 C 3.484375 -1.820312 3.367188 -2.035156 3.140625 -2.171875 C 2.921875 -2.304688 2.648438 -2.375 2.328125 -2.375 L 1.515625 -2.375 L 1.515625 -0.6875 Z M 2.390625 -0.6875 "/></g></g></g><g fill="#000000" fill-opacity="1"><g transform="translate(119.181215, 108.246801)"><g><path d="M 3.796875 0 L 2.515625 -2.015625 C 2.472656 -2.015625 2.410156 -2.015625 2.328125 -2.015625 L 1.515625 -2.015625 L 1.515625 0 L 0.78125 0 L 0.78125 -5.484375 L 2.25 -5.484375 C 2.625 -5.484375 2.957031 -5.414062 3.25 -5.28125 C 3.539062 -5.144531 3.769531 -4.945312 3.9375 -4.6875 C 4.101562 -4.4375 4.1875 -4.132812 4.1875 -3.78125 C 4.1875 -3.445312 4.113281 -3.132812 3.96875 -2.84375 C 3.820312 -2.5625 3.59375 -2.347656 3.28125 -2.203125 L 4.65625 0 Z M 2.3125 -2.734375 C 2.707031 -2.734375 2.992188 -2.832031 3.171875 -3.03125 C 3.347656 -3.238281 3.4375 -3.476562 3.4375 -3.75 C 3.4375 -3.914062 3.398438 -4.078125 3.328125 -4.234375 C 3.253906 -4.390625 3.132812 -4.519531 2.96875 -4.625 C 2.8125 -4.726562 2.613281 -4.78125 2.375 -4.78125 L 1.515625 -4.78125 L 1.515625 -2.734375 Z M 2.3125 -2.734375 "/></g></g></g><g fill="#000000" fill-opacity="1"><g transform="translate(125.301297, 108.246801)"><g><path d="M 3.65625 -1.4375 L 1.546875 -1.4375 L 0.96875 0 L 0.25 0 L 2.640625 -5.703125 L 2.6875 -5.703125 L 5.078125 0 L 4.234375 0 Z M 3.40625 -2.078125 L 2.625 -4.078125 L 1.8125 -2.078125 Z M 3.40625 -2.078125 "/></g></g></g><g fill="#000000" fill-opacity="1"><g transform="translate(131.732315, 108.246801)"><g><path d="M 3.796875 0 L 2.515625 -2.015625 C 2.472656 -2.015625 2.410156 -2.015625 2.328125 -2.015625 L 1.515625 -2.015625 L 1.515625 0 L 0.78125 0 L 0.78125 -5.484375 L 2.25 -5.484375 C 2.625 -5.484375 2.957031 -5.414062 3.25 -5.28125 C 3.539062 -5.144531 3.769531 -4.945312 3.9375 -4.6875 C 4.101562 -4.4375 4.1875 -4.132812 4.1875 -3.78125 C 4.1875 -3.445312 4.113281 -3.132812 3.96875 -2.84375 C 3.820312 -2.5625 3.59375 -2.347656 3.28125 -2.203125 L 4.65625 0 Z M 2.3125 -2.734375 C 2.707031 -2.734375 2.992188 -2.832031 3.171875 -3.03125 C 3.347656 -3.238281 3.4375 -3.476562 3.4375 -3.75 C 3.4375 -3.914062 3.398438 -4.078125 3.328125 -4.234375 C 3.253906 -4.390625 3.132812 -4.519531 2.96875 -4.625 C 2.8125 -4.726562 2.613281 -4.78125 2.375 -4.78125 L 1.515625 -4.78125 L 1.515625 -2.734375 Z M 2.3125 -2.734375 "/></g></g></g><g fill="#000000" fill-opacity="1"><g transform="translate(137.852397, 108.246801)"><g><path d="M 1.515625 -5.484375 L 1.515625 0 L 0.78125 0 L 0.78125 -5.484375 Z M 1.515625 -5.484375 "/></g></g></g><g fill="#000000" fill-opacity="1"><g transform="translate(141.280239, 108.246801)"><g><path d="M 4.34375 -5.484375 L 4.34375 -4.78125 L 1.515625 -4.78125 L 1.515625 -3.109375 L 4.046875 -3.109375 L 4.046875 -2.40625 L 1.515625 -2.40625 L 1.515625 -0.71875 L 4.453125 -0.71875 L 4.453125 0 L 0.78125 0 L 0.78125 -5.484375 Z M 4.34375 -5.484375 "/></g></g></g><g fill="#000000" fill-opacity="1"><g transform="translate(147.347245, 108.246801)"><g><path d="M 3.625 -4.5 C 3.425781 -4.601562 3.210938 -4.6875 2.984375 -4.75 C 2.765625 -4.820312 2.554688 -4.859375 2.359375 -4.859375 C 2.066406 -4.859375 1.832031 -4.789062 1.65625 -4.65625 C 1.476562 -4.519531 1.390625 -4.335938 1.390625 -4.109375 C 1.390625 -3.878906 1.492188 -3.691406 1.703125 -3.546875 C 1.910156 -3.398438 2.203125 -3.257812 2.578125 -3.125 C 2.859375 -3.019531 3.09375 -2.90625 3.28125 -2.78125 C 3.476562 -2.664062 3.640625 -2.503906 3.765625 -2.296875 C 3.898438 -2.085938 3.96875 -1.820312 3.96875 -1.5 C 3.96875 -1.207031 3.894531 -0.941406 3.75 -0.703125 C 3.601562 -0.460938 3.394531 -0.273438 3.125 -0.140625 C 2.851562 -0.00390625 2.535156 0.0625 2.171875 0.0625 C 1.835938 0.0625 1.515625 0.0078125 1.203125 -0.09375 C 0.890625 -0.207031 0.613281 -0.347656 0.375 -0.515625 L 0.703125 -1.09375 C 0.890625 -0.957031 1.113281 -0.835938 1.375 -0.734375 C 1.632812 -0.640625 1.878906 -0.59375 2.109375 -0.59375 C 2.398438 -0.59375 2.65625 -0.664062 2.875 -0.8125 C 3.09375 -0.96875 3.203125 -1.195312 3.203125 -1.5 C 3.203125 -1.75 3.109375 -1.945312 2.921875 -2.09375 C 2.742188 -2.238281 2.488281 -2.378906 2.15625 -2.515625 C 1.84375 -2.628906 1.582031 -2.742188 1.375 -2.859375 C 1.175781 -2.972656 1.003906 -3.125 0.859375 -3.3125 C 0.710938 -3.507812 0.640625 -3.753906 0.640625 -4.046875 C 0.640625 -4.472656 0.785156 -4.816406 1.078125 -5.078125 C 1.378906 -5.347656 1.773438 -5.492188 2.265625 -5.515625 C 2.847656 -5.515625 3.394531 -5.363281 3.90625 -5.0625 Z M 3.625 -4.5 "/></g></g></g></svg>