<svg class="w-40 sm:w-60 h-auto" width="155" height="50" viewBox="0 0 155 50" fill="none" id="vai-nav" xmlns="http://www.w3.org/2000/svg">
	<g clip-path="url(#clip0_4153_30951)">
		<path id="vai-nav-logo" class="fill-pageText" d="M12.043 4.76935C12.043 2.11102 13.1378 0 14.5064 0C15.8749 0 16.9697 2.11102 16.9697 4.76935C16.9697 7.38858 15.8749 9.5387 14.5064 9.5387C13.1378 9.5387 12.043 7.38858 12.043 4.76935ZM17.5171 13.7217C18.0254 14.4253 18.4164 15.3245 18.651 16.2627C19.2766 18.7647 19.0811 19.742 18.7292 22.4785C18.7292 22.4785 21.349 8.48319 28.8563 2.18921C22.1701 4.41751 17.5171 13.7217 17.5171 13.7217ZM0 2.18921C7.50733 8.48319 10.1271 22.4785 10.1271 22.4785C9.81427 19.742 9.57967 18.7647 10.2053 16.2627C10.4399 15.2854 10.8309 14.4253 11.3392 13.7217C11.3783 13.7217 6.72532 4.41751 0 2.18921ZM14.5064 12.8616H14.4673H14.4282C13.1769 12.8616 12.3949 14.7381 11.9648 17.24C10.4399 26.2705 14.4673 49.9609 14.4673 49.9609C14.4673 49.9609 18.4946 26.2705 16.9697 17.24C16.5396 14.7381 15.7576 12.8616 14.5064 12.8616Z"></path>
		<path id="vai-nav-text" class="fill-pageText" d="M46.6085 8.32837L39.2575 24.4738H38.9056L31.5547 8.32837H34.6827L39.1793 18.9226L43.6368 8.32837H46.6085ZM57.2047 24.2392L55.6798 20.6036H49.3846L47.8597 24.2392H45.0444L52.3954 8.09381H52.7864L60.0591 24.2392H57.2047ZM54.7414 18.4535L52.4736 13.1368L50.2057 18.4535H54.7414ZM64.4384 14.036L74.4091 24.552L74.7219 24.4738V8.32837H71.9848V18.3753L62.1705 8.01562L61.7404 8.09381V24.2392H64.4384V14.036ZM84.3406 24.2392H81.5254L88.8763 8.09381H89.2673L96.6183 24.2392H93.7639L92.239 20.6036H85.9438L84.3406 24.2392ZM86.7649 18.4535H91.3006L89.0327 13.1368L86.7649 18.4535ZM101.193 14.036L111.164 24.552L111.477 24.4738V8.32837H108.739V18.3753L98.9252 8.01562L98.4951 8.09381V24.2392H101.193V14.036ZM119.766 24.3565C118.045 24.3565 116.794 24.2392 115.191 24.0829V8.44565C116.716 8.28928 118.045 8.172 119.609 8.172C125.905 8.172 129.033 11.8077 129.033 16.1079C129.033 20.6036 126.1 24.3565 119.766 24.3565ZM117.928 21.8155C118.593 21.9327 119.179 21.9327 120.196 21.9327C124.302 21.9327 126.139 19.4699 126.139 16.1079C126.139 12.785 124.028 10.5567 119.961 10.5567C119.179 10.5567 118.476 10.5958 117.928 10.674V21.8155ZM141.701 21.7764H134.702V17.3589H141.037V14.9742H134.702V10.7912H141.701V8.32837H131.965V24.2392H141.701V21.7764ZM147.84 21.7764V8.32837H145.142V24.2392H154.839V21.7764H147.84ZM34.3308 45.975H37.0679V30.0641H34.3308V45.975ZM51.1441 40.111L41.2908 29.7514L40.8607 29.8295V45.975H43.5977V35.7717L53.5684 46.2877L53.8812 46.2095V30.0641H51.1832V40.111H51.1441ZM62.5615 36.749C60.5674 35.889 59.7854 35.2635 59.7854 34.1689C59.7854 33.1134 60.5674 32.1751 62.2487 32.1751C63.3436 32.1751 64.5948 32.7224 65.455 33.3088L66.3152 30.9241C65.3768 30.2987 63.8519 29.7904 62.3269 29.7904C59.0034 29.7904 57.0874 31.9406 57.0874 34.2471C57.0874 36.1626 58.1041 37.6091 60.8802 38.7818C63.4218 39.8374 63.891 40.541 63.891 41.6356C63.891 42.7302 63.1481 43.7076 61.4667 43.7076C60.0982 43.7076 58.5733 43.1603 57.3221 42.222L56.3836 44.6458C57.7913 45.5449 59.5899 46.2095 61.3885 46.2095C64.673 46.2095 66.6671 44.0203 66.6671 41.4402C66.628 39.4073 65.7287 38.1173 62.5615 36.749ZM68.2702 32.527H73.3533V45.975H76.0904V32.527H81.1344V30.0641H68.3093V32.527H68.2702ZM83.715 45.975H86.4521V30.0641H83.715V45.975ZM89.0327 32.527H94.1158V45.975H96.8529V32.527H101.897V30.0641H89.0718V32.527H89.0327ZM114.214 39.681C114.214 42.4175 112.845 43.7858 110.577 43.7858C108.27 43.7858 106.941 42.4566 106.941 39.681V30.0641H104.243V39.8765C104.243 44.0203 106.589 46.2486 110.577 46.2486C114.487 46.2486 116.99 43.9421 116.99 39.8765V30.0641H114.253V39.681H114.214ZM119.258 32.527H124.341V45.975H127.039V32.527H132.083V30.0641H119.258V32.527ZM134.585 45.975H144.282V43.5121H137.283V39.0946H143.617V36.7099H137.283V32.527H144.282V30.0641H134.546V45.975H134.585ZM152.962 32.6442C152.962 34.1298 151.789 35.3417 150.304 35.3417C148.818 35.3417 147.645 34.1298 147.645 32.6442C147.645 31.1587 148.818 29.9077 150.304 29.9077C151.75 29.9468 152.962 31.1587 152.962 32.6442ZM152.454 32.6442C152.454 31.3933 151.477 30.3768 150.264 30.3768C149.091 30.3768 148.075 31.3933 148.075 32.6442C148.075 33.8952 149.052 34.9116 150.264 34.9116C151.477 34.9116 152.454 33.8561 152.454 32.6442ZM150.773 32.9179L151.477 33.9734H150.89L150.304 33.0352C150.225 33.0352 150.147 33.0352 150.147 33.0352C150.108 33.0352 150.069 33.0352 149.952 33.0352V33.9734H149.443V31.3542C149.678 31.3151 149.913 31.3151 150.186 31.3151C150.929 31.3151 151.281 31.706 151.281 32.1751C151.281 32.4488 151.086 32.7615 150.773 32.9179ZM150.734 32.136C150.734 31.9015 150.538 31.706 150.186 31.706C150.069 31.706 149.991 31.706 149.913 31.706V32.5661C150.03 32.5661 150.069 32.5661 150.147 32.5661C150.538 32.6052 150.734 32.4488 150.734 32.136Z" fill="white"></path>
	</g>
	<defs>
		<clipPath id="clip0_4153_30951">
			<rect width="154.839" height="50" fill="black"></rect>
		</clipPath>
	</defs>
</svg>
