<?xml version="1.0" encoding="utf-8"?>
<!-- Generator: Adobe Illustrator 22.0.1, SVG Export Plug-In . SVG Version: 6.00 Build 0)  -->
<svg version="1.1" id="Layer_1" xmlns="http://www.w3.org/2000/svg" xmlns:xlink="http://www.w3.org/1999/xlink" x="0px" y="0px"
	 width="300px" height="167px" viewBox="0 0 300 167" enable-background="new 0 0 300 167" xml:space="preserve">
<g>
	<g>
		<path fill="#198E43" d="M298.5,116.1L277.4,152c-7.9,13.5-25.2,18.1-38.8,10.4c0,0-46.6-26.5-50.5-29.1
			c-6.2-4-12.4-12.9-12.4-17.2v-0.3l61.8-1.4l60.9,1.6L298.5,116.1z"/>
		<path fill="#18D71F" d="M298.5,116.1H30.7c-16,0-28.9-13.7-28.9-30.7v-57c0-15,13.9-27.5,28-27.5h202L298.5,116.1z"/>
		<g>
			<g>
				<path fill="#FFFFFF" d="M48.7,39.3v7.8c0,0.4-0.3,0.8-0.8,0.8H37.7v6.2h8.9c0.4,0,0.8,0.3,0.8,0.8v7.8c0,0.4-0.3,0.8-0.8,0.8
					h-8.9v14.1c0,0.4-0.3,0.8-0.8,0.8h-8.8c-0.4,0-0.8-0.3-0.8-0.8V39.3c0-0.4,0.3-0.8,0.8-0.8H48C48.3,38.6,48.7,38.9,48.7,39.3z"
					/>
			</g>
			<g>
				<path fill="#FFFFFF" d="M74.2,69.8v7.8c0,0.4-0.3,0.8-0.8,0.8H53c-0.4,0-0.8-0.3-0.8-0.8V39.3c0-0.4,0.3-0.8,0.8-0.8h8.8
					c0.4,0,0.8,0.3,0.8,0.8V69h10.9C73.8,69,74.2,69.3,74.2,69.8z"/>
			</g>
			<g>
				<path fill="#FFFFFF" d="M88.2,39.3v38.3c0,0.4-0.3,0.8-0.8,0.8h-8.8c-0.4,0-0.8-0.3-0.8-0.8V39.3c0-0.4,0.3-0.8,0.8-0.8h8.8
					C87.8,38.6,88.2,38.9,88.2,39.3z"/>
			</g>
			<g>
				<path fill="#FFFFFF" d="M106.3,38.6H92.7c-0.4,0-0.8,0.3-0.8,0.8v38.3c0,0.4,0.3,0.8,0.8,0.8h8.8c0.4,0,0.8-0.3,0.8-0.8V64.8
					h4.1c7.7,0,12.9-5.3,12.9-13.2C119.3,43.5,114.3,38.6,106.3,38.6z M108.6,52.4c-0.1,1-0.5,1.9-1.1,2.4c-0.7,0.6-1.5,0.9-2.6,0.9
					h-2.7v-8.1h2.2c1.2,0,2.4,0.5,3.2,1.5C108.4,50,108.8,51.2,108.6,52.4z"/>
			</g>
			<g>
				<path fill="#FFFFFF" d="M159.8,55.6h-14.9c-0.4,0-0.8,0.3-0.8,0.8v7.3c0,0.4,0.3,0.8,0.8,0.8h5.9v2.8c-0.4,0.3-1.3,0.9-2.5,1.3
					c-1.6,0.6-3.4,0.9-5.4,0.9c-2.9,0-5.6-1.1-7.4-3c-2-2.1-3-4.9-3-8.3c0-1.5,0.2-3,0.7-4.3s1.2-2.4,2.1-3.4c1.9-2,4.6-3.1,7.7-3.1
					c2.1,0,4,0.5,5.8,1.5c1.7,0.9,2.7,2,3.1,2.4c0.2,0.2,0.3,0.3,0.6,0.3c0.2,0,0.4-0.1,0.6-0.2l5.5-5.7c0.3-0.3,0.3-0.7,0-1
					c-1.5-1.8-3.3-3.2-5.4-4.4c-3-1.6-6.6-2.4-10.6-2.4c-3,0-5.9,0.5-8.4,1.6c-2.5,1-4.7,2.5-6.5,4.4c-3.7,3.8-5.8,8.9-5.8,14.6
					c0,3.1,0.5,6,1.6,8.6c1,2.5,2.5,4.7,4.5,6.5c3.7,3.6,8.9,5.6,14.5,5.6c4.1,0,7.6-0.6,10.8-1.9c2.9-1.2,5.3-2.8,7.1-4.3
					c0.2-0.2,0.3-0.4,0.3-0.6v-16C160.5,56,160.2,55.6,159.8,55.6z M152.5,51.1c0.1,0,0.1-0.1,0.2-0.1
					C152.6,51.1,152.5,51.1,152.5,51.1z"/>
			</g>
			<g>
				<path fill="#FFFFFF" d="M195.6,77.3c-6.1-11.5-7.9-14.8-8.4-15.8c1.6-1,3-2.5,3.9-4.4c0.9-1.8,1.3-3.9,1.3-6.1
					c0-4-1.2-7.1-3.5-9.2c-2.4-2.1-5.9-3.2-10.5-3.2H166c-0.4,0-0.8,0.3-0.8,0.8v38.4c0,0.4,0.3,0.8,0.8,0.8h8.8
					c0.4,0,0.8-0.3,0.8-0.8V64h2.2l6.7,14c0.1,0.3,0.4,0.4,0.7,0.4h9.7c0.3,0,0.5-0.2,0.7-0.4C195.7,77.8,195.7,77.5,195.6,77.3z
					 M180.8,54.1c-0.7,0.7-1.6,1-2.8,1h-2.4v-7.5h2c1.5,0,2.6,0.3,3.3,1c0.6,0.6,0.9,1.5,0.9,2.7S181.4,53.5,180.8,54.1z"/>
			</g>
			<g>
				<path fill="#FFFFFF" d="M209.3,39.3v38.3c0,0.4-0.3,0.8-0.8,0.8h-8.8c-0.4,0-0.8-0.4-0.8-0.8V39.3c0-0.4,0.3-0.8,0.8-0.8h8.8
					C208.9,38.6,209.3,38.9,209.3,39.3z"/>
			</g>
			<g>
				<path fill="#FFFFFF" d="M240,43.8c-3.7-3.5-9-5.3-15.2-5.3h-11.1c-0.4,0-0.8,0.3-0.8,0.8v38.3c0,0.4,0.3,0.8,0.8,0.8h11.1
					c6.3,0,11.5-1.8,15.2-5.3s5.7-8.6,5.7-14.6S243.7,47.3,240,43.8z M233.8,63.2c-0.5,1.3-1.2,2.5-2.1,3.3c-0.9,0.9-1.9,1.6-3.2,2
					s-2.6,0.7-4.2,0.7h-1.5V47.7h1.5c1.5,0,3,0.2,4.2,0.7c1.2,0.4,2.3,1.1,3.2,2s1.6,2.1,2.1,3.3c0.5,1.4,0.7,3,0.7,4.8
					S234.3,61.9,233.8,63.2z"/>
			</g>
		</g>
	</g>
	
		<linearGradient id="SVGID_1_" gradientUnits="userSpaceOnUse" x1="250.8094" y1="-0.6495" x2="232.8906" y2="66.2242" gradientTransform="matrix(1 0 0 -1 0 167)">
		<stop  offset="0.4497" style="stop-color:#000000;stop-opacity:0"/>
		<stop  offset="0.9986" style="stop-color:#000000;stop-opacity:0.25"/>
	</linearGradient>
	<path fill="#198e43" enable-background="new    " d="M298.5,116.1L277.4,152c-7.9,13.5-25.2,18.1-38.8,10.4
		c0,0-46.6-26.5-50.5-29.1c-6.2-4-12.4-12.9-12.4-17.2C175.7,116.1,298.5,116.1,298.5,116.1z"/>
</g>
</svg>
