<svg xmlns="http://www.w3.org/2000/svg" xmlns:xlink="http://www.w3.org/1999/xlink" width="2462.101" height="927.566" viewBox="0 0 2462.101 927.566">
  <defs>
    <linearGradient id="linear-gradient" x1="0.5" y1="1" x2="0.811" y2="0.171" gradientUnits="objectBoundingBox">
      <stop offset="0" stop-color="#b53b0e"/>
      <stop offset="1" stop-color="#ff735f" stop-opacity="0"/>
    </linearGradient>
    <linearGradient id="linear-gradient-2" x1="0.092" y1="0.5" x2="1.08" y2="0.677" gradientUnits="objectBoundingBox">
      <stop offset="0" stop-color="#bea765"/>
      <stop offset="1" stop-color="#ffedb9" stop-opacity="0"/>
    </linearGradient>
    <linearGradient id="linear-gradient-3" x1="0.163" y1="0.837" x2="1.035" y2="0.292" gradientUnits="objectBoundingBox">
      <stop offset="0" stop-color="#f3fff2"/>
      <stop offset="1" stop-color="#fff"/>
    </linearGradient>
    <linearGradient id="linear-gradient-4" x1="0.5" y1="1" x2="0.699" y2="0.5" gradientUnits="objectBoundingBox">
      <stop offset="0" stop-color="#d95127"/>
      <stop offset="1" stop-color="#ff3c00" stop-opacity="0.169"/>
    </linearGradient>
    <linearGradient id="linear-gradient-5" x1="0.5" y1="1" x2="0.5" gradientUnits="objectBoundingBox">
      <stop offset="0" stop-color="#00597f"/>
      <stop offset="1" stop-color="#0db7ff" stop-opacity="0.376"/>
    </linearGradient>
    <linearGradient id="linear-gradient-6" x1="0.5" y1="1" x2="0.5" gradientUnits="objectBoundingBox">
      <stop offset="0" stop-color="#80cfda"/>
      <stop offset="1" stop-color="#96f3ff" stop-opacity="0.29"/>
    </linearGradient>
    <linearGradient id="linear-gradient-7" x1="0.5" y1="1" x2="0.5" gradientUnits="objectBoundingBox">
      <stop offset="0" stop-color="#599db4"/>
      <stop offset="1" stop-color="#93e5ff" stop-opacity="0.467"/>
    </linearGradient>
    <linearGradient id="linear-gradient-8" x1="0.031" y1="0.677" x2="0.875" y2="0.5" gradientUnits="objectBoundingBox">
      <stop offset="0" stop-color="#d1932a"/>
      <stop offset="1" stop-color="#ffc767" stop-opacity="0"/>
    </linearGradient>
  </defs>
  <g id="Group_196" data-name="Group 196" transform="translate(2413.66 946.367) rotate(-171)">
    <path id="Path_245" data-name="Path 245" d="M329.052,96.747c118.7,130.649,198.07-91.52,316.783,23.159q-6.014-5.541-12.014-11.2c60.132,55.527,109.487,25.357,157.9-2.878,48.613-28.923,96.287-55.911,157.695-9.863q12.306,8.857,24.666,17.2c61.94,40.417,110.325,9.138,157.769-17.455,47.646-27.729,94.352-50.77,157.562-20.167q-6.331-2.9-12.655-5.924c63.345,28.932,110.732,1.391,157.175-19.764,46.642-22.53,92.348-38.678,156.969-18.735,25.9,7.48,51.966,13.753,78.186,19.033-65.419-14.223-111.185,2.29-157.894,24.826-46.511,21.268-93.963,48.558-158.1,26.6q6.4,2.313,12.815,4.518c-64-23.463-110.774-.3-158.491,27.451-47.516,26.649-95.969,57.893-158.693,25.065q-12.522-6.818-24.985-14.135C961.545,106.2,913.8,132.992,865.116,162.04c-48.485,28.285-97.908,58.821-158.829,10.381q6.077,4.955,12.167,9.791c-120.289-101.77-198.333,109.607-318.632-9.054q-5.937-6.1-11.863-12.293C271.035,36.717,185.7,235.836,68.76,88.282,45.677,59.21,22.76,29.628,0,0,57.043,74.565,108.378,65.324,158.775,50.241c50.6-14.42,100.265-34.682,158.574,33.2Q323.2,90.133,329.052,96.747Z" transform="translate(177.832 210.137)" fill="url(#linear-gradient)" style="mix-blend-mode: multiply;isolation: isolate"/>
    <path id="Path_246" data-name="Path 246" d="M321.466,79.168c56,71,105.956,49.168,154.974,22C525.66,74.99,573.939,43.481,631.2,117.91q-5.746-7.322-11.468-14.683C735.82,249.55,812.188-16.522,928.279,127.121q11.764,13.943,23.581,27.464c59.221,66.527,107.2,35.016,154.251,8.094,47.245-27.948,93.554-51.307,154.039,7.826q-6.064-5.708-12.111-11.553c60.63,57.014,107.6,29.573,153.649,9.608,46.244-21.568,91.552-35.661,153.447,11.031q6.2,4.476,12.422,8.807c62.305,41.758,108.308,22.217,153.369,11.431,45.265-12.647,89.59-16.541,153.161,13.546,25.484,11.465,51.133,21.42,76.933,30.091-64.367-22.858-108.759-18.2-154.084-5.3-45.129,11.165-91.191,30.578-154.3-2.9q-6.3-3.49-12.581-7.119c-62.684-38.018-108.055-23.931-154.363-2.511-46.11,19.833-93.161,47-154.591-1.586q6.127,5,12.272,9.867c-61.278-50.606-107.657-27.99-154.967-.493-47.111,26.37-95.157,57.618-155.174-1.831q-11.977-12.13-23.9-24.737C881.673,74.82,806.612,327.343,688.934,189.807q5.808,7.039,11.624,14.008c-58.056-71.1-106.408-41.569-155.692-15.865-49.085,26.275-99.1,48.727-155.9-23.41q-5.666-7.175-11.316-14.34c-56.384-72.059-105.71-47.558-155.977-32.989C171.616,133.562,120.617,139.982,65.5,72.894,43.5,46.836,21.676,22.265,0,0,54.318,58.363,105.258,53.709,155.255,36.835c50.2-14.481,99.457-41.181,155.052,28.37Q315.874,72.158,321.466,79.168Z" transform="translate(-3.868 19.648)" fill="url(#linear-gradient-2)" style="mix-blend-mode: multiply;isolation: isolate"/>
    <path id="Path_247" data-name="Path 247" d="M326.438,99.845c116.9,141.162,197.461-93.72,314.346,33.969q-5.918-6.283-11.832-12.664c59.225,62.973,108.425,32.919,156.683,4.434,48.463-29.051,95.986-56.535,156.474-1.421q12.13,10.649,24.3,20.793c61.034,49.429,109.263,18.211,156.555-8.158,47.495-27.529,94.049-50.213,156.344-10.543q-6.241-3.79-12.474-7.711c62.439,37.823,109.667,10.442,155.958-10.069,46.49-22.009,92.039-37.15,155.753-9.361q6.386,2.631,12.783,5.143c64.12,23.854,110.369,3.961,155.675-8.47,45.51-13.963,90.08-20.462,155.463-5.205,26.21,5.752,52.579,10.521,79.112,14.562-66.177-10.746-110.818-3.582-156.391,10.487-45.373,12.7-91.68,32.306-156.6,14.8q-6.477-1.864-12.942-3.83c-64.5-20.924-110.118-5.445-156.677,16.592-46.355,20.626-93.65,47.809-156.888,17.695q6.311,3.143,12.635,6.162c-63.093-31.813-109.711-9.192-157.272,18.286-47.357,26.311-95.653,57.478-157.479,15.819q-12.339-8.59-24.623-17.7c-61.278-47.336-108.872-20.4-157.4,8.584-48.328,28.293-97.6,58.638-157.615,2.04q5.993,5.759,11.989,11.408C593.848,88.732,514.606,314.111,396.12,182.156q-5.846-6.674-11.68-13.415c-58.191-68.43-107.771-47.391-158.279-32.3-50.311,15.806-101.555,25.669-158.49-48.621C44.955,58.333,22.4,28.867,0,0,56.126,73.276,107.314,65.582,157.56,50.3c50.449-14.147,99.953-35.88,157.355,35.467Q320.669,92.826,326.438,99.845Z" transform="translate(106.369 135.028)" fill="url(#linear-gradient-3)" style="mix-blend-mode: multiply;isolation: isolate"/>
    <path id="Path_248" data-name="Path 248" d="M331.67,136.722c120.483,117.425,198.751-90.854,319.22,8.992q-6.1-4.742-12.19-9.6C699.715,183.617,749.241,153.262,797.824,125c48.782-29.005,96.618-55.911,158.908-18.7q12.486,7.111,25.024,13.722c62.819,31.816,111.376.447,158.991-26.519,47.812-28.038,94.68-51.673,158.781-29.141q-6.421-2.114-12.833-4.335c64.244,21.05,111.79-6.64,158.4-28.483,46.807-23.073,92.687-40.3,158.185-26.787,26.257,5,52.675,9.037,79.251,12.322-66.308-9-112.237,8.54-159.115,31.542-46.674,21.894-94.3,49.245-159.323,34.267q6.485,1.6,12.993,3.109c-64.895-16.286-111.833,7.564-159.713,35.639-47.677,27.067-96.291,58.361-159.914,33.691q-12.7-5.171-25.341-10.81c-63.076-29.747-110.988-2.778-159.838,26.453-48.646,28.46-98.234,59.183-160.046,19.092q6.165,4.126,12.349,8.132c-122.075-85.837-199.01,110.883-321.075,7.288q-6.025-5.407-12.04-10.926C272.752,81.9,188.535,272.646,69.822,134.921,46.389,107.286,23.113,78.729,0,49.614,117.121,197.082,202.673,1.377,319.789,124.546Q325.725,130.683,331.67,136.722Z" transform="translate(229.808 220.056)" fill="url(#linear-gradient-4)" style="mix-blend-mode: multiply;isolation: isolate"/>
    <path id="Path_249" data-name="Path 249" d="M334.159,244.6c122.251,102.185,199.3-92.113,321.539-8.07q-6.19-3.915-12.368-7.954c61.9,39.215,111.562,8.593,160.284-19.872,48.919-29.222,96.9-56.285,160.067-27.448q12.664,5.465,25.377,10.459c63.713,23.816,112.4-7.552,160.151-34.833,47.948-28.264,94.959-52.44,159.935-36.9q-6.511-1.435-13.008-2.964c65.117,14.258,112.809-13.337,159.558-35.607,46.949-23.348,92.956-41.37,159.344-32.884q6.655.773,13.319,1.483c66.792,6.389,113.5-13.632,159.268-28.156C1833.594,6.4,1878.618-3.572,1946.688,1.2c27.287,1.839,54.724,3.518,82.325,5.264C1960.149,2.1,1915.061,12.04,1869.025,27c-45.834,14.189-92.609,33.407-160.2,29.721q-6.752-.427-13.479-.89c-67.18-5.216-113.256,13.014-160.272,36.169-46.813,22.211-94.568,49.35-160.484,40.144q6.574,1.009,13.169,1.939c-65.771-10.309-112.847,14.1-160.867,42.36-47.815,27.365-96.573,58.576-161.072,41.241q-12.877-3.684-25.7-7.783c-63.964-21.908-112.007,5.372-161,34.853-48.79,28.735-98.52,59.669-161.208,27.849q6.259,3.3,12.524,6.48c-62.549-33.272-111.6-7.125-161.587,19.078-49.789,25.718-100.523,51.493-161.8,6.288q-6.118-4.629-12.216-9.378c-120.467-98.731-203.479,82.356-323.961-41.993C47.1,227.723,23.464,201.139,0,173.6c118.9,137.011,203.211-51.209,322.1,60.22Q328.123,239.264,334.159,244.6Z" transform="translate(292.154 172.29)" fill="url(#linear-gradient-5)" style="mix-blend-mode: multiply;isolation: isolate"/>
    <path id="Path_250" data-name="Path 250" d="M336.539,305.936c61.344,44.642,112.133,19.056,161.977-6.526,50.045-26.061,99.144-52.118,161.761-19.486q-6.276-3.118-12.536-6.354c62.762,31.19,112.544.335,161.383-28.41,49.038-29.477,97.133-56.839,161.17-35.548q12.834,3.987,25.721,7.549c64.572,16.769,113.379-14.494,161.251-42.014,48.072-28.4,95.212-53.048,161.043-43.2q-6.6-.886-13.181-1.848c65.98,8.765,113.78-18.551,160.652-41.036,47.068-23.408,93.2-41.984,160.45-37.063q6.741.435,13.493.834c67.657,3.434,114.482-16.049,160.37-30.561C1846.183,7,1891.332-3.3,1960.26.975c27.63,1.712,55.412,3.507,83.356,5.59-69.724-5.044-114.936,4.916-161.089,19.445-45.953,13.922-92.846,32.414-161.3,30.482q-6.824-.229-13.648-.481c-68.046-2.872-114.242,15.762-161.379,38.832-46.935,22.287-94.806,49.01-161.584,44.218q6.665.55,13.34,1.039c-66.632-5.689-113.829,19.165-161.967,47.466-47.935,27.537-96.816,58.526-162.178,47.434q-13.05-2.408-26.037-5.18C982.956,214.745,934.791,242.4,885.685,272.1c-48.908,29.017-98.756,60.087-162.322,36q6.348,2.523,12.7,4.932c-63.41-25.455-112.583,1.057-162.7,27.8-49.91,26.238-100.761,52.7-162.9,15.557q-6.2-3.83-12.388-7.787c-122.193-83.69-203.964,86.75-326.165-22.292Q35.712,292.457,0,254.506c120.607,123.626,203.706-55.538,324.311,42.161Q330.415,301.364,336.539,305.936Z" transform="translate(346.187 155.729)" fill="url(#linear-gradient-6)" style="mix-blend-mode: multiply;isolation: isolate"/>
    <path id="Path_251" data-name="Path 251" d="M338.916,357.877c62.26,36.1,113.134,9.617,163.074-16.644,50.14-26.759,99.344-53.3,162.86-28.839q-6.366-2.309-12.719-4.734c63.672,23.107,113.545-7.947,162.476-37,49.136-29.723,97.333-57.447,162.27-43.209q13.018,2.61,26.082,4.859c65.479,10.336,114.389-20.631,162.356-48.223,48.165-28.337,95.387-53.3,162.129-48.143q-6.684-.442-13.36-.936c66.882,4.284,114.786-22.428,161.747-44.785,47.167-23.115,93.387-41.874,161.551-39.233q6.828.229,13.672.442c68.565,1.77,115.486-16.7,161.466-30.66C1858.7,6.234,1903.942-3.8,1973.784,1.384c27.985,2.142,56.136,4.6,84.442,7.55-70.623-7.082-115.93,2.264-162.182,15.8-46.048,13.09-93.033,30.365-162.4,28.881q-6.922-.167-13.832-.336c-68.952-1.843-115.247,16.769-162.474,39.374-47.028,21.979-94.994,47.95-162.677,46.441q6.755.2,13.523.362c-67.541-2.191-114.834,22.874-163.07,51-48.03,27.5-97,58.062-163.271,52.387q-13.225-1.285-26.4-2.874c-65.724-8.949-113.987,19.08-163.192,48.949-49.005,29.273-98.945,60.385-163.41,43.814q6.432,1.766,12.878,3.422c-64.314-17.819-113.585,9.239-163.788,36.587-50.007,26.87-100.947,54.028-164,25.381q-6.3-2.981-12.568-6.087C277.347,324.946,197.02,483.7,73,392.375Q36.263,363.594,0,330.259C122.424,437.281,204.074,268.621,326.505,350.3Q332.705,354.15,338.916,357.877Z" transform="translate(408.636 145.947)" fill="url(#linear-gradient-7)" style="mix-blend-mode: multiply;isolation: isolate"/>
    <path id="Path_252" data-name="Path 252" d="M323.857,95.038c56.863,72.092,106.942,50.026,156.081,24.141,49.342-25.335,97.742-54.49,155.875,16.071q-5.83-6.914-11.642-13.9C741.99,257.807,817.132,7.142,934.94,137.55q11.935,12.445,23.926,24.411c60.085,58.632,108.191,27.342,155.356.833,47.367-27.627,93.8-50.474,155.151-.776q-6.148-4.776-12.284-9.689c61.5,47.7,108.6,20.3,154.765.123,46.361-21.744,91.789-36.264,154.551.922q6.291,3.547,12.593,6.958c63.178,32.69,109.3,12.908,154.48,1.273,45.385-13.35,89.831-18.554,154.272,3.7,25.833,8.435,51.825,15.607,77.972,21.751-65.227-16.279-109.744-10.322-155.2,3.245-45.25,12-91.438,31.6-155.4,6.354q-6.38-2.655-12.753-5.431c-63.562-29.281-109.054-14.557-155.486,7.164-46.231,20.2-93.4,47.4-155.686,7.927q6.211,4.088,12.444,8.04c-62.146-41.35-108.641-18.865-156.077,8.546-47.236,26.242-95.408,57.413-156.286,6.372q-12.146-10.461-24.244-21.432c-60.33-56.723-107.8-29.142-156.2,0-48.2,28.593-97.344,58.744-156.419-5.45q5.887,6.5,11.8,12.9C589.637,85.48,508.977,323.168,392.4,180.672q-5.749-7.063-11.491-14.161c-57.247-71.7-106.694-49.325-157.083-34.811-50.188,15.733-101.315,23.6-157.3-48.962C44.2,54.207,22.017,26.394,0,0,55.188,67.868,106.248,62.019,156.369,46.337c50.324-13.946,99.7-37.728,156.158,34.362Q318.188,87.867,323.857,95.038Z" transform="translate(46.262 67.552)" fill="url(#linear-gradient-8)" style="mix-blend-mode: multiply;isolation: isolate"/>
  </g>
</svg>