<svg xmlns="http://www.w3.org/2000/svg" viewBox="3700 3698.937 159.314 125.362">
  <g id="Group_687" data-name="Group 687" transform="translate(3546 1389.936)">
    <path id="path3357_1_" d="M48.36,128.76l-.7-5.123-3.214.4a3.891,3.891,0,0,0-1.1.3,1.386,1.386,0,0,0-.3.4,2.212,2.212,0,0,0-.1.8l.1.4h-.3l-.6-4.721h.3l.1.4a.912.912,0,0,0,.3.7.538.538,0,0,0,.4.3h1.1l7.132-.9a3.891,3.891,0,0,0,1.1-.3,1.386,1.386,0,0,0,.3-.4,2.212,2.212,0,0,0,.1-.8l-.1-.4h.3l.6,4.721h-.3l-.1-.4c-.1-.5-.2-.8-.5-.9a2.639,2.639,0,0,0-1.306,0l-3.415.4.7,5.123,3.415-.4a3.891,3.891,0,0,0,1.1-.3,1.387,1.387,0,0,0,.3-.4,2.212,2.212,0,0,0,.1-.8l-.1-.4h.3l.6,4.721h-.3l-.1-.4c-.1-.5-.2-.8-.5-.9a2.638,2.638,0,0,0-1.306,0l-7.132.9a3.892,3.892,0,0,0-1.1.3,1.387,1.387,0,0,0-.3.4,2.212,2.212,0,0,0-.1.8l.1.4h-.3l-.6-4.721h.3l.1.4a.912.912,0,0,0,.3.7.538.538,0,0,0,.4.3h1.1Zm-5.726-18.081h-.3l.2-3.918h.3v.4a1.02,1.02,0,0,0,.5,1,2.885,2.885,0,0,0,1.205.2l4.52.2a7.994,7.994,0,0,1,2.612.5,3.361,3.361,0,0,1,1.507,1.406,4.55,4.55,0,0,1,.5,2.712,4.828,4.828,0,0,1-.8,2.712,4.018,4.018,0,0,1-1.808,1.306,7.54,7.54,0,0,1-2.813.1l-4.42-.2a2.582,2.582,0,0,0-1.406.2,1.893,1.893,0,0,0-.4.9v.4h-.3l.2-4.822h.3v.4a1.058,1.058,0,0,0,.4,1,5.01,5.01,0,0,0,1.205.3l4.922.2h1.507a3.338,3.338,0,0,0,1.306-.4,2.372,2.372,0,0,0,.8-.9,5.758,5.758,0,0,0,.4-1.406,4.5,4.5,0,0,0-.4-2.009,2.345,2.345,0,0,0-1.205-1.205,6.763,6.763,0,0,0-2.511-.4l-4.52-.2c-.7,0-1.1,0-1.306.2a.979.979,0,0,0-.4.9Zm.1-6.027.7-2.913,9.744-4.822-6.328-1.406a2.045,2.045,0,0,0-1.306-.1q-.452.151-.6.9v.4l-.3-.1.9-3.817.3.1-.1.4a1.316,1.316,0,0,0,.2,1.1c.1.2.5.3,1.1.4L56.3,96.917l-.1.3-10.447,5.223,6.73,1.507a2.045,2.045,0,0,0,1.306.1,1.23,1.23,0,0,0,.6-.9l.1-.4.3.1-.9,3.817-.3-.1.1-.4a1.317,1.317,0,0,0-.2-1.1c-.1-.2-.5-.3-1.1-.4l-7.634-1.708c-.4.2-.7.4-.9.5s-.3.3-.5.6a1.171,1.171,0,0,0-.2.7Zm7.232-22.9,2.511.9-.1.3a1.873,1.873,0,0,0-1-.1,1.273,1.273,0,0,0-.9.4,2.043,2.043,0,0,0-.6.9l-.6,1.507L57.2,88.982a1.908,1.908,0,0,0,1.306.3c.3-.1.5-.4.7-.8l.1-.4.3.1L57.8,92.6l-.5-.2.2-.4a1.084,1.084,0,0,0,0-1.1,2.148,2.148,0,0,0-1-.6l-7.936-3.315-.5,1.205a3.049,3.049,0,0,0-.3,1.1,1.62,1.62,0,0,0,.3.9,2.1,2.1,0,0,0,1,.8l-.1.3-2.411-1.1Zm4.721-8.739L58,75.019l-.2.3a8.341,8.341,0,0,0-1.808-.5,2.835,2.835,0,0,0-1.507.4,2.918,2.918,0,0,0-1.1,1.1,2.069,2.069,0,0,0-.3,1.507,1.777,1.777,0,0,0,.7,1.1,1.652,1.652,0,0,0,1,.2A12.332,12.332,0,0,0,57.5,77.932a18.172,18.172,0,0,1,2.21-1.205,3.419,3.419,0,0,1,1.406-.2,2.849,2.849,0,0,1,1.306.4,2.993,2.993,0,0,1,1.406,2.009,3.456,3.456,0,0,1-.5,2.612,4.251,4.251,0,0,1-.5.7l-.8.8c-.4.4-.7.6-.7.7a.369.369,0,0,0-.1.3c0,.1.1.2.3.4l-.2.3L58,82.754l.2-.3a5.376,5.376,0,0,0,1.808.4,3.725,3.725,0,0,0,1.406-.4,3.463,3.463,0,0,0,1.205-1.205,2.185,2.185,0,0,0,.4-1.708,2,2,0,0,0-.8-1.205,1.892,1.892,0,0,0-.8-.2,3.569,3.569,0,0,0-1,.2,9.015,9.015,0,0,0-1.808,1c-.9.5-1.708.9-2.109,1.1a2.31,2.31,0,0,1-1.406.2,1.754,1.754,0,0,1-1.205-.4,2.68,2.68,0,0,1-1.306-1.909,3.375,3.375,0,0,1,.5-2.511,5.732,5.732,0,0,1,1.306-1.406,1.185,1.185,0,0,0,.5-.5c.1-.1.1-.2.1-.4a.918.918,0,0,0-.3-.5Zm9.744-12.054.2.2a1.907,1.907,0,0,0-.3.9,2.992,2.992,0,0,0,.5,1.406l4.822,9.141-.2.2L59.309,69.8a2.413,2.413,0,0,0-1-.2,1.274,1.274,0,0,0-.6.1c-.2.1-.4.3-.7.5l-.2-.2,2.913-3.516.2.2a1.633,1.633,0,0,0-.4.9.767.767,0,0,0,.2.5,2.265,2.265,0,0,0,1.205.5L67.747,70.6l-3.315-6.228a2.761,2.761,0,0,0-.8-1.1h-.3a1.978,1.978,0,0,0-.8.4.1.1,0,0,0-.1.1l-.2-.2Zm12.456,3.415.2.2-3.516,3.214-.2-.2.3-.3a1.4,1.4,0,0,0,.5-1,3.031,3.031,0,0,0-.7-1.1l-4.922-5.324-.8-.8a.448.448,0,0,0-.5,0,1.619,1.619,0,0,0-.7.4l-.3.3-.2-.2,3.516-3.214.2.2-.3.3a1.4,1.4,0,0,0-.5,1,3.031,3.031,0,0,0,.7,1.1l4.922,5.324.8.8a.448.448,0,0,0,.5,0,1.619,1.619,0,0,0,.7-.4Zm6.529-8.438.3-.1,1,3.014L77.692,63.97l-.2-.2.3-.2c.4-.3.6-.6.5-1a2.391,2.391,0,0,0-.6-1.1l-4.219-5.826c-.4-.6-.7-.9-1-.9a1.076,1.076,0,0,0-1,.3l-.3.2-.1-.3,4.118-3.014.2.2a1.921,1.921,0,0,0-.9.9.664.664,0,0,0-.1.6,2.391,2.391,0,0,0,.6,1.1L79.1,60.454a2.243,2.243,0,0,0,.7.7.306.306,0,0,0,.4,0,7.157,7.157,0,0,0,1.1-.7l.7-.5a5.245,5.245,0,0,0,1.306-1.205,3.6,3.6,0,0,0,.4-1.1c-.1-.4-.1-.9-.3-1.708Zm9.543-5.023.3-.1.5,3.114-7.735,4.018-.1-.3.4-.2a1.278,1.278,0,0,0,.7-.9,3.155,3.155,0,0,0-.4-1.205L83.317,48.9a2.761,2.761,0,0,0-.8-1.1,1.216,1.216,0,0,0-1,.1l-.4.4-.1-.3,4.52-2.31.1.3c-.5.3-.9.5-1,.7a.738.738,0,0,0-.2.6,4.265,4.265,0,0,0,.5,1.205l3.214,6.228a3.792,3.792,0,0,0,.5.8c.1.1.2.1.4.1a10.445,10.445,0,0,0,1.205-.5l.7-.4a4.18,4.18,0,0,0,1.507-1,3.142,3.142,0,0,0,.5-1,10.792,10.792,0,0,0,0-1.808Zm2.009-8.739,1.406,4.219,2.31-.8c.6-.2,1-.4,1.1-.7a1.677,1.677,0,0,0,0-1.406l.3-.1,1.205,3.717-.2.1a1.718,1.718,0,0,0-.6-.9c-.2-.2-.4-.2-.6-.3a2.184,2.184,0,0,0-1,.2l-2.31.8,1.205,3.516a4.438,4.438,0,0,1,.3.8c.1.1.2.1.3.2a1.767,1.767,0,0,0,.6-.1l1.808-.6a5.373,5.373,0,0,0,1.306-.6,2.773,2.773,0,0,0,.6-.8,5.666,5.666,0,0,0,.5-1.808l.3-.1v3.014L95.27,53.222l-.1-.3.4-.1c.2-.1.5-.2.6-.4a.767.767,0,0,0,.2-.5,4.569,4.569,0,0,0-.3-1.1l-2.31-6.931q-.3-1.055-.6-1.205a1.7,1.7,0,0,0-1,0l-.4.1-.1-.3,8.136-2.712.9,2.31-.3.1c-.3-.5-.5-.9-.7-1a1.085,1.085,0,0,0-.7-.3,3.648,3.648,0,0,0-1.1.3Zm16.775,1.406.4,3.214a2.448,2.448,0,0,0,.4,1.306,1.1,1.1,0,0,0,1,.2h.4v.3l-4.721.5v-.3h.4c.5-.1.8-.2,1-.6a2.3,2.3,0,0,0,0-1.205l-.8-7.232a2.448,2.448,0,0,0-.4-1.306,1.1,1.1,0,0,0-1-.2h-.4v-.3l4.118-.5a9.531,9.531,0,0,1,2.411,0,2.907,2.907,0,0,1,1.607.9,3.141,3.141,0,0,1,.2,4.018,3.417,3.417,0,0,1-2.411,1.1h-.9a6.668,6.668,0,0,1-1.306.1Zm0-.5h1.406a2.033,2.033,0,0,0,1.406-.8,2.24,2.24,0,0,0,.4-1.808,4.973,4.973,0,0,0-.4-1.306,1.716,1.716,0,0,0-.9-.8,3.661,3.661,0,0,0-1.406-.2,3.049,3.049,0,0,0-1.1.3Zm15.068-5.625v-.3l3.918.2v.3h-.4a1.236,1.236,0,0,0-1,.5,2.885,2.885,0,0,0-.2,1.205l-.2,4.52a8.371,8.371,0,0,1-.4,2.612A2.889,2.889,0,0,1,127.113,48a5.422,5.422,0,0,1-2.712.6,5.884,5.884,0,0,1-2.712-.7,3.539,3.539,0,0,1-1.306-1.808,9.508,9.508,0,0,1-.2-2.813l.2-4.42a2.583,2.583,0,0,0-.2-1.406,1.893,1.893,0,0,0-.9-.4h-.4v-.3l4.822.2v.3h-.4a1.058,1.058,0,0,0-1,.4,5.01,5.01,0,0,0-.3,1.205l-.2,4.922a8.675,8.675,0,0,0,.1,1.507,3.339,3.339,0,0,0,.4,1.306,2.372,2.372,0,0,0,.9.8,5.758,5.758,0,0,0,1.406.4,4.5,4.5,0,0,0,2.009-.4,2.345,2.345,0,0,0,1.205-1.205,6.763,6.763,0,0,0,.4-2.511l.1-4.52c0-.7,0-1.1-.2-1.306a1.273,1.273,0,0,0-.9-.4Zm12.556,7.132a3.673,3.673,0,0,1,1.507,1.1,2.828,2.828,0,0,1,.4,2.009,2.44,2.44,0,0,1-.9,1.406,3.48,3.48,0,0,1-1.607.8,10.056,10.056,0,0,1-2.813-.2l-5.123-1.1.1-.3.4.1a1.316,1.316,0,0,0,1.1-.2c.2-.2.3-.5.4-1.205l1.507-7.032c.1-.7.2-1.1,0-1.306a1.23,1.23,0,0,0-.9-.6l-.4-.1.1-.3,4.721,1a14.3,14.3,0,0,1,2.109.6,3.223,3.223,0,0,1,1.607,1.406,2.9,2.9,0,0,1,.3,1.808,2.863,2.863,0,0,1-.8,1.406,2.951,2.951,0,0,1-1.708.7Zm-4.118-1.406a1.452,1.452,0,0,0,.7.2c.3.1.5.1.8.2a3.861,3.861,0,0,0,1.808.1,2.23,2.23,0,0,0,1.708-1.708,2.42,2.42,0,0,0-.4-1.808,3.13,3.13,0,0,0-2.109-1.205,3.83,3.83,0,0,0-1.507-.1Zm-1.1,5.223a6.385,6.385,0,0,0,1.808.6,3.162,3.162,0,0,0,2.411-.2,1.931,1.931,0,0,0,1.1-1.507,1.959,1.959,0,0,0-.1-1.306,3.16,3.16,0,0,0-.9-1.205,6.811,6.811,0,0,0-1.909-.8c-.3-.1-.6-.1-.9-.2-.2,0-.4-.1-.6-.1Zm17.579,3.214.2.2-2.009,2.511-8.036-3.114.1-.3.4.2a.9.9,0,0,0,1.1-.1c.2-.1.4-.5.6-1.1l2.612-6.73a2.794,2.794,0,0,0,.3-1.306c-.1-.3-.4-.5-.8-.7l-.4-.2.1-.3,4.721,1.808-.1.3a4.07,4.07,0,0,0-1.205-.3.849.849,0,0,0-.6.2,7.4,7.4,0,0,0-.6,1.1L145.6,50.309a1.834,1.834,0,0,0-.2.9c0,.1.1.2.2.3a3.643,3.643,0,0,0,1.205.5l.8.3a6.788,6.788,0,0,0,1.708.5,2.29,2.29,0,0,0,1.1-.3c.4,0,.8-.4,1.306-.9Zm4.219,5.424-.1.3-4.219-2.21.1-.3.3.2a1.115,1.115,0,0,0,1.1.1,2.23,2.23,0,0,0,.8-1l3.415-6.429a2.189,2.189,0,0,0,.4-1,1.092,1.092,0,0,0-.1-.5c-.2-.2-.3-.4-.6-.5l-.3-.2.1-.3,4.219,2.21-.1.3-.4-.2a1.115,1.115,0,0,0-1.1-.1,2.23,2.23,0,0,0-.8,1l-3.415,6.429a2.189,2.189,0,0,0-.4,1,1.092,1.092,0,0,0,.1.5,1.029,1.029,0,0,0,.6.5Zm15.268-3.214L169.2,57.039l-.2-.1a4.013,4.013,0,0,0,.2-2.813,3.321,3.321,0,0,0-1.406-1.909,3.738,3.738,0,0,0-2.009-.7,4.06,4.06,0,0,0-2.21.7,7.685,7.685,0,0,0-2.21,2.21,5.2,5.2,0,0,0-1.1,2.411,3.317,3.317,0,0,0,.2,2.21,4.3,4.3,0,0,0,1.507,1.808,3.41,3.41,0,0,0,1.808.7,5.835,5.835,0,0,0,2.612-.5l.1.3a6.511,6.511,0,0,1-2.913.7,5.643,5.643,0,0,1-2.612-1,4.958,4.958,0,0,1-2.31-4.219,6.018,6.018,0,0,1,1.205-3.616,6.139,6.139,0,0,1,2.411-2.109,4.945,4.945,0,0,1,2.913-.6,5.96,5.96,0,0,1,2.813,1,4.966,4.966,0,0,1,1.607,1.909c.1.2.2.4.3.4a.6.6,0,0,0,.4.1.868.868,0,0,0,.6-.3ZM177.439,71.8l.1.2-2.913,1.306L168.8,66.883l.2-.2.3.3a1.106,1.106,0,0,0,1,.4c.2,0,.5-.3,1-.7l5.324-4.822c.5-.5.8-.8.8-1a1.227,1.227,0,0,0-.4-.9l-.3-.3.2-.2,3.415,3.717-.2.2a3.153,3.153,0,0,0-1-.8,1.709,1.709,0,0,0-.7-.1,6.336,6.336,0,0,0-1,.7l-5.223,4.721a3.2,3.2,0,0,0-.6.7v.4a7.849,7.849,0,0,0,.8,1l.5.6a6.409,6.409,0,0,0,1.406,1.205,1.4,1.4,0,0,0,1.1.2,2.76,2.76,0,0,0,2.009-.2Zm1.306,6.73-.2.2-2.813-3.918.2-.2.2.3a1.215,1.215,0,0,0,.9.6,2.391,2.391,0,0,0,1.1-.6l5.927-4.219a3.065,3.065,0,0,0,.8-.7.753.753,0,0,0,.1-.5.912.912,0,0,0-.3-.7l-.2-.3.2-.2,2.813,3.918-.2.2-.2-.3a1.215,1.215,0,0,0-.9-.6,3.106,3.106,0,0,0-1.205.6l-5.927,4.219a3.065,3.065,0,0,0-.8.7.753.753,0,0,0-.1.5.912.912,0,0,0,.3.7Zm8.94,4.621a3.183,3.183,0,0,1,.1,1.909,2.773,2.773,0,0,1-1.205,1.607,2.233,2.233,0,0,1-1.607.3,3.647,3.647,0,0,1-1.708-.7,8.1,8.1,0,0,1-1.607-2.31l-2.511-4.621.3-.1.2.4a1.278,1.278,0,0,0,.9.7,3.155,3.155,0,0,0,1.205-.4l6.328-3.415c.6-.3,1-.6,1-.8a1.216,1.216,0,0,0-.1-1l-.2-.4.3-.1,2.31,4.219c.4.8.7,1.507.9,2.009a4.122,4.122,0,0,1,0,2.21A2.375,2.375,0,0,1,191.1,84.06a2.233,2.233,0,0,1-1.607.3,6.3,6.3,0,0,1-1.808-1.205Zm-1.708-4.018a3.649,3.649,0,0,0,.3.7,5.924,5.924,0,0,0,.4.8,4.861,4.861,0,0,0,1.1,1.507,1.511,1.511,0,0,0,1.1.4,2.674,2.674,0,0,0,1.205-.3,2.175,2.175,0,0,0,1.1-1.507,3.213,3.213,0,0,0-.5-2.411,3.8,3.8,0,0,0-.9-1.205Zm-4.621,2.511a13.414,13.414,0,0,0,.7,1.808,3.5,3.5,0,0,0,1.708,1.708,2.249,2.249,0,0,0,1.808-.1,1.971,1.971,0,0,0,.9-.9,3.355,3.355,0,0,0,.3-1.507,8.279,8.279,0,0,0-.6-1.909,5.919,5.919,0,0,1-.4-.8,2.2,2.2,0,0,0-.3-.5Zm6.73,18.081-1-2.813,3.717-5.324a3.948,3.948,0,0,1-.2-.6c0-.1,0-.1-.1-.2,0-.1,0-.2-.1-.2l-3.114,1.1q-1.055.3-1.205.6a.908.908,0,0,0,0,1l.1.4-.3.1-1.507-4.52.3-.1.1.4c.2.4.4.7.8.8.2.1.6,0,1.205-.2l6.831-2.31q1.055-.3,1.205-.6a.909.909,0,0,0,0-1l-.1-.4.3-.1,1.306,3.817a8.425,8.425,0,0,1,.6,2.612,3.55,3.55,0,0,1-.4,1.708,2.6,2.6,0,0,1-1.406,1.1,2.521,2.521,0,0,1-1.909-.1A4.269,4.269,0,0,1,191.5,93.3l-2.31,3.214a5.016,5.016,0,0,0-.9,1.808,3.794,3.794,0,0,0,0,1.507Zm2.813-9.342c0,.1.1.2.1.3s0,.1.1.2A3.738,3.738,0,0,0,192.506,93a2.159,2.159,0,0,0,1.909.2A2.124,2.124,0,0,0,195.821,92a2.274,2.274,0,0,0,.1-1.808,6.6,6.6,0,0,0-.6-1.205Zm2.009,16.373-.7-4.319-1.909-.5c-.5-.1-.8-.2-1-.1-.2,0-.3.1-.4.3a2.828,2.828,0,0,0-.1,1.1h-.3l-.5-3.516h.3c.2.4.3.7.5.8a5.772,5.772,0,0,0,1.708.7l9.744,2.411v.3l-8.639,5.324a3.835,3.835,0,0,0-1.306,1.1,1.987,1.987,0,0,0-.2,1.1h-.3l-.7-4.319h.3a1.893,1.893,0,0,0,.4.9.553.553,0,0,0,.5.2,3.114,3.114,0,0,0,1.1-.5Zm.6-.4,4.219-2.612-4.822-1.205Zm-3.817,16.876v-3.013l5.324-3.717V115.3H191.8a3.1,3.1,0,0,0-1.306.2,1.273,1.273,0,0,0-.4.9v.4h-.3l.1-4.822h.3v.4a1.058,1.058,0,0,0,.4,1,2.885,2.885,0,0,0,1.205.2l7.232.1a3.1,3.1,0,0,0,1.306-.2,1.273,1.273,0,0,0,.4-.9v-.4h.3l-.1,4.118a7.974,7.974,0,0,1-.3,2.612,2.818,2.818,0,0,1-1,1.406,2.535,2.535,0,0,1-1.708.6,2.421,2.421,0,0,1-1.808-.7,4.152,4.152,0,0,1-1-2.109l-3.214,2.31a11.606,11.606,0,0,0-1.507,1.306,5.3,5.3,0,0,0-.5,1.507Zm5.927-7.936v.5a3.3,3.3,0,0,0,.7,2.411,2.3,2.3,0,0,0,1.708.8,2.363,2.363,0,0,0,1.708-.6,2.423,2.423,0,0,0,.7-1.708,7.205,7.205,0,0,0-.1-1.306Zm3.616,17.78-.7,3.817-.3-.1v-.2a1.493,1.493,0,0,0-.1-.6,2.02,2.02,0,0,0-.4-.8,4.657,4.657,0,0,0-1-1l-3.717-3.415-2.712-.5a2.639,2.639,0,0,0-1.306,0,1.352,1.352,0,0,0-.5.9l-.1.4-.3-.1.9-4.721.3.1-.1.4a1.316,1.316,0,0,0,.2,1.1c.1.2.5.3,1.1.4l2.612.5,5.223-2.109c.6-.3,1-.4,1.1-.5a1.447,1.447,0,0,0,.6-.7c.1-.1.1-.2.2-.5l.3.1-.9,4.721-.3-.1v-.9c-.1-.2-.2-.4-.5-.4a3.648,3.648,0,0,0-1.1.3l-4.018,1.607,3.014,2.813a2.251,2.251,0,0,0,1,.7h.4l.3-.3a.849.849,0,0,0,.2-.6Z" transform="translate(112.269 2272.252)"/>
    <path id="path3359_1_" d="M117.836,175.669c-.4-.1-.9-.7-1.306-1.1l-.6-.9-14.666.4c-51.23,1.306-51.33,1.306-51.732.9-.6-.6-.1-1.406,1-1.607,1.306-.2,64.991-1.507,66-1.406.5.1.8.4,1.1,1.205l.4,1.1,6.63.1,6.63.1.5-1.1a3.974,3.974,0,0,1,.9-1.306c.6-.2,60.772,1.1,64.79,1.406,2.712.2,2.813.2,2.813,1,0,.7-.1.8-1.909.9-1,0-15.972-.3-33.249-.8s-31.541-.8-31.742-.7a1.413,1.413,0,0,0-.6.7c-.4,1.306-1.607,1.507-8.237,1.507C121.251,175.87,118.137,175.769,117.836,175.669Zm.6-3.214a1.4,1.4,0,0,1,.5-1.406c.8-.9.6-1.406-1.1-2.612-3.315-2.411-7.433-3.315-13.46-3.114-4.721.2-6.73.5-18.181,3.014-9.643,2.109-14.063,2.813-17.478,2.813a33.916,33.916,0,0,1-9.643-1.406c-2.511-.8-8.237-4.118-8.237-4.721,0-.2,1.708-.4,3.415-.6,1.406-.1,7.333-.4,8.538-.5,2.712-.2-1.607.7-4.42,1.205-1.306.2-2.009.5-2.009.8,0,.6,3.516,2.21,6.027,2.813a35.422,35.422,0,0,0,5.726.7c5.023.2,9.141-.4,18.382-2.712,10.045-2.511,13.46-3.214,18.483-3.415,6.529-.3,10.547.9,13.661,3.817a8.252,8.252,0,0,0,1.708,1.406c.6,0,0-1.1-1.708-2.612a16.123,16.123,0,0,0-8.136-4.118c-3.114-.7-10.849-.4-18.282.6-15.469,2.21-19.186,2.411-25.113,1.607a23.5,23.5,0,0,1-9.543-3.315c-2.21-1.306-4.922-3.616-4.922-4.118,0-.3,5.625-.3,8.237-.2,2.612.2,5.023,0,6.228.3,1,.2-7.132.7-7.835.8-.7,0-.4.2-.7.4-.4.3-.3.4.3.9a25.2,25.2,0,0,0,7.735,3.415,35.392,35.392,0,0,0,12.355.6c1.808-.2,6.63-.9,10.849-1.708,7.132-1.205,7.936-1.306,14.063-1.306,5.424,0,6.931.1,8.639.5a14.968,14.968,0,0,1,7.232,4.018c1.708,1.708,1.808,1.808,2.009,1.1.4-1.406.2-2.813-.8-5.826-1.507-4.621-2.813-5.525-7.534-5.324-1.808.1-2.31.2-2.411.6-.1.3.3.7.9,1.1,1.306.8,1.205,1.306-.4,2.009-1.808.8-2.31.8-4.118-.4-1.406-.9-1.607-1-2.511-.6-4.118,1.708-5.324,1.607-7.634-.5-2.009-1.808-3.214-2.31-6.931-2.612-4.219-.4-5.726-1.1-4.721-2.009.6-.6,3.616-1.607,5.826-2.009,1.808-.3,2.411-.3,5.826.5.7.1,1,0,2.009-1s1.306-1.1,2.31-1a5.713,5.713,0,0,1,2.21,1.1c3.114,2.712,3.114,2.712,8.337,2.712,5.726,0,6.127-.2,6.127-2.21,0-3.516-2.712-4.822-6.63-3.214-3.114,1.306-8.84.8-9.442-.8-.3-.8-2.009-1.406-4.219-1.607-2.411-.2-2.913-.5-2.913-1.607a2.658,2.658,0,0,1,2.009-2.511c1.507-.5,2.411-.2,6.831,1.909,5.223,2.511,9.241,3.114,11.351,1.708.6-.4.8-.8.8-2.009,0-2.411-2.511-6.931-3.918-6.931a8.525,8.525,0,0,0-2.31,1.1c-3.114,2.009-5.625,1.708-8.237-.7-2.21-2.109-3.315-2.411-7.835-2.511-4.822,0-4.721,0-4.721-.7,0-1.306,3.717-3.717,6.931-4.621,3.817-1,6.73-.4,11.552,2.411a14.5,14.5,0,0,0,3.214,1.607c.9,0,1.507-1.406,1.708-4.319.3-4.52-.8-8.438-2.813-9.945-.8-.6-1-.6-2.813-.2a88.4,88.4,0,0,0-10.748,3.516c-4.319,1.607-7.634.5-9.041-2.913-.9-2.21.1-3.114,2.813-2.411,3.014.8,4.822.1,6.228-2.109,1.306-2.009,1.507-2.109,4.018-1.708a12.765,12.765,0,0,0,3.315.1,6.661,6.661,0,0,1,6.228,1.1,21.354,21.354,0,0,0,2.712,1.607c.7.2.9.9.6,1.909-.8,2.109.7,3.114,1.708,1.1.3-.6,1.306-2.511,2.31-4.219,1.507-2.712,1.708-3.214,1.507-4.219a5.152,5.152,0,0,0-3.516-3.516,43.937,43.937,0,0,0-5.927-.8c-7.534-.8-13.059-2.21-14.666-3.717-1-.9-.8-1.507.9-2.21a8.633,8.633,0,0,1,6.328.2,3.943,3.943,0,0,0,4.721-.6c1.808-1.406,2.913-1.607,5.525-.9,2.913.8,5.123.8,6.831,0,3.918-1.808,5.726.2,3.014,3.114a4.871,4.871,0,0,0-1.708,3.214c-.4,1.808-.2,3.014.4,3.014a55.344,55.344,0,0,0,4.822-6.127c3.516-4.822,4.42-6.328,4.42-7.132,0-1.607-.7-1.909-4.42-2.109-4.721-.2-5.424-.7-4.018-3.415a2.964,2.964,0,0,0,.5-1.708c-.2-.5-3.014-1.406-4.319-1.406-1.205,0-2.712-.8-2.712-1.507,0-1.507,3.516-2.612,5.525-1.808a5.784,5.784,0,0,0,6.429-1.306c1.507-1.306,2.511-1.607,4.319-1.1a14.748,14.748,0,0,0,2.913.5c1.406.1,1.507.1,2.913-1.406l1.406-1.507,5.826-.3c6.328-.3,6.63-.2,6.831,1.306.1.8.3.9,1.708,1,1.808.2,2.813.7,3.214,1.507.6,1.205-.3,1.607-3.717,1.607-4.621,0-6.73,1.1-5.023,2.411l.8.6-.9.8a17.073,17.073,0,0,1-3.516,1.607,11.464,11.464,0,0,0-2.813,1.1c-.2.3.5.9,1.909,1.306,1.406.5,2.009,1.205,1.507,2.009-.6,1-2.511,1.708-5.525,1.808a8.933,8.933,0,0,0-4.319.9c-1.808.9-4.621,3.717-6.931,6.931-1.708,2.411-2.21,3.516-1.406,3.516.6,0,3.717-2.109,5.424-3.717,2.411-2.31,3.114-2.712,4.118-2.31,1.1.5,1.909.4,4.52-.4,2.813-1,4.42-1,6.73-.1,1.507.6,2.511.7,5.525.7,4.018,0,4.219.1,3.214,1.607a12.707,12.707,0,0,1-4.621,3.014,22.33,22.33,0,0,1-3.616.6c-2.009.2-2.411.3-2.712.9-.9,1.808-2.009,2.109-4.118,1.205-1.808-.7-2.612-.6-6.228,1.1-3.214,1.607-3.415,1.607-4.822,1.306a14.765,14.765,0,0,1-2.511-.8c-1-.4-1.205-.4-2.813.5a9.1,9.1,0,0,0-2.913,2.612,18.8,18.8,0,0,0-1.205,1.909c0,.2.9-.2,2.009-.9,1.808-1,2.21-1.1,3.516-1a12.812,12.812,0,0,1,3.315,1.1,7.814,7.814,0,0,0,4.018.8c1.507,0,2.109.1,2.109.3,0,1.306-3.516,3.616-5.625,3.616a15.922,15.922,0,0,1-3.415-.8,18.6,18.6,0,0,0-3.315-.8,8.824,8.824,0,0,0-5.525,2.913,9.858,9.858,0,0,0-2.109,4.721c0,1.1,1.808.6,3.717-1,1-.9,1.1-.9,4.118-.8,2.913.1,3.114,0,4.721-.9,2.511-1.406,4.219-1.306,7.735.5,1.607.8,2.813,1.607,2.813,1.909.2,1.1-1.1,1.306-6.831,1.406a46.843,46.843,0,0,0-7.032.4,41.832,41.832,0,0,1-4.922.5c-4.219.1-4.42.2-4.319,3.114,0,2.612.7,4.118,2.009,4.721,1.507.7,2.913.3,6.228-1.909a29.014,29.014,0,0,1,4.018-2.21c1.306-.5,1.406-.5,2.813.2,1.507.7,1.507.7,4.52.2,2.31-.4,3.214-.5,4.118-.2,1,.3,1.607.2,3.616-.4a17.39,17.39,0,0,1,3.415-.8c1.205,0,2.511.9,2.21,1.607-.2.5-.9.7-4.118,1-2.109.2-2.21.3-3.616,1.708-1.406,1.507-1.607,1.507-3.114,1.507a30.669,30.669,0,0,1-4.52-.5c-3.918-.6-5.424-.6-7.534.3a25.072,25.072,0,0,1-3.918,1.1c-2.31.4-2.813.8-2.712,2.109s1.808,2.109,4.018,2.109a36.7,36.7,0,0,0,5.525-1c4.42-1.1,5.023-1.205,7.634-.5a9.414,9.414,0,0,0,4.52.2c2.21-.3,2.913-.3,4.219.1,1.909.6,2.612.4,5.424-1.607a10.173,10.173,0,0,1,3.114-1.607c2.31-.4,3.516.7,2.411,2.31-.3.5-1.1,2.009-1.808,3.315a7.977,7.977,0,0,1-2.009,2.913,9.787,9.787,0,0,1-3.014.4c-2.009,0-2.411.1-3.315.9a6.4,6.4,0,0,1-4.52,1.909,34.9,34.9,0,0,0-4.621.5c-4.118.6-5.826.6-6.73-.1a28.852,28.852,0,0,1-3.013-2.813c-2.712-2.612-3.918-3.315-5.123-2.612-1,.6-1.205,1.607-.5,4.319a27.709,27.709,0,0,1,.7,4.319,7.612,7.612,0,0,0,.7,2.913c.4.7.6.7,3.415.5,3.415-.3,3.717-.1,6.027,2.21,1.507,1.607,1.607,1.708,3.315,1.708a13.371,13.371,0,0,0,3.717-.7c1.909-.6,2.009-.6,3.415-.1a7.574,7.574,0,0,1,2.612,1.909l1.205,1.406,4.52.3a84.375,84.375,0,0,1,13.561,1.808,95.307,95.307,0,0,0,12.355,1.1,21.089,21.089,0,0,0,8.739-.9c4.822-1.607,9.04-4.219,7.232-4.52-.3,0-1.205-.2-2.009-.3-1.205-.1-6.328-.7-6.328-.7s.9-.1,1.708-.2c.7,0,6.63-.1,8.538-.1,2.813,0,4.219-.1,4.219.3,0,.5-4.42,4.018-6.63,5.123-2.813,1.406-4.822,1.909-9.241,2.31-5.223.4-10.648.1-20.693-1.306-8.136-1.1-13.963-1.708-14.364-1.406-.6.3-.3.8.7,1.306.7.4,2.21.6,5.324.8,4.118.2,4.42.3,5.023,1,.5.6,1.909,1.1,5.424,2.109a76.352,76.352,0,0,0,16.574,3.114c5.525,0,7.433-.5,9.543-1.1,2.712-.9,4.621-2.21,4.621-2.712,0-.2-.6-.5-1.507-.6-.8-.1-6.429-1-6.63-1.1-.3-.2,4.922-.1,7.835.1,2.411.1,5.123.3,5.726.7.9.7-6.027,4.621-9.945,5.424-6.931,1.406-14.565.7-28.427-2.511l-4.621-1.1-1.507,1a7.094,7.094,0,0,1-8.739-.6,4.689,4.689,0,0,0-2.813-1.406,18.333,18.333,0,0,0-7.835.9c-2.009.9-5.424,3.214-5.424,3.616a1.686,1.686,0,0,0,.7.9c.6.5.6.7.4,1.1-.3.5-.9.6-6.127.6C118.841,173.158,118.64,173.158,118.439,172.455Zm11.351-4.018a13.639,13.639,0,0,1,2.411-2.411c1.205-.8,1.406-1.205.9-1.507-.7-.4-5.022,4.018-5.022,5.223C127.982,170.345,128.685,169.843,129.79,168.437Zm-1.808-1.205a13.117,13.117,0,0,1,2.511-3.114l1.708-1.708-.9-1a6.867,6.867,0,0,0-4.822-2.109c-1.909,0-2.31.5-2.31,2.913a8.78,8.78,0,0,0,1.205,4.219,5.963,5.963,0,0,0,1.507,2.31C127.077,168.738,127.58,168.035,127.982,167.231Z" transform="translate(109.593 2258.291)"/>
  </g>
</svg>
