<?xml version="1.0" encoding="utf-8"?>
<!-- Generator: Adobe Illustrator 21.0.0, SVG Export Plug-In . SVG Version: 6.00 Build 0)  -->
<svg version="1.1" id="Layer_1" xmlns="http://www.w3.org/2000/svg" xmlns:xlink="http://www.w3.org/1999/xlink" x="0px" y="0px"
	 viewBox="0 0 167 45.4" style="enable-background:new 0 0 167 45.4;" xml:space="preserve">
<style type="text/css">
	.st0{enable-background:new    ;}
	.st1{fill:#E7E9EA;}
</style>
<title>Asset 2</title>
<g id="Layer_2">
	<g class="st0">
		<path class="st1" d="M18.1,4.8l16.4,34.1V14.3c0-3.2,0-4.9-0.1-5.2C34,7,33,5.9,31.4,5.9c-0.3,0-0.8,0.1-1.5,0.2s-1.1,0.2-1.5,0.2
			c-0.5,0-1-0.2-1.4-0.6s-0.6-0.8-0.6-1.4c0-1.5,0.9-2.2,2.7-2.2c0.4,0,0.6,0,0.8,0.1l2.7,0.4C33.8,2.8,35,2.8,36,2.8
			c1.1,0,2.5-0.1,4.2-0.3c0.6-0.1,1.3-0.2,2.1-0.3c0.1,0,0.2,0,0.4-0.1c0.2,0,0.3,0,0.4,0c2-0.1,2.9,0.6,2.9,2s-0.8,2-2.5,2
			c-0.3,0-0.5,0-0.7,0h-0.6c-1.2,0-2,0.3-2.4,0.8s-0.6,1.7-0.7,3.5v3.5v6.2v16.3c0,2.8-0.3,4.8-1,5.9c-0.6,1.1-1.7,1.7-3.3,1.7
			c-2,0-3.7-1.4-5.1-4.3l-16-33.2v28.4c0,3,1,4.6,3.1,4.6c0.3,0,0.8,0,1.5-0.1s1.1-0.1,1.5-0.1c1.3,0,2,0.7,2,2
			c0,1.4-0.9,2.1-2.7,2.1c-0.1,0-0.2,0-0.4,0c-0.2,0-0.3-0.1-0.4-0.1l-2.5-0.4c-1.4-0.2-2.7-0.3-3.9-0.3c-1.1,0-2.4,0.1-4.1,0.3
			l-3,0.4c-0.1,0-0.2,0-0.4,0.1c-0.2,0-0.4,0-0.5,0c-1.7,0-2.6-0.7-2.6-2.1c0-1.3,0.6-1.9,2-1.9c0.2,0,0.8,0,1.6,0.1
			c0.4,0.1,0.9,0.2,1.3,0.2c2.1,0,3.1-1.5,3.1-4.6v-4.3v-5.4v-5.2v-9.6c0-3.1-1-4.6-3.1-4.6C5.9,6,5.5,6,5,6.1c-1,0-1.5,0.1-1.9,0.1
			c-1.3,0-1.9-0.7-1.9-2C1.2,2.8,2,2,3.8,2c0.2,0,0.6,0,1,0.1c2,0.2,3.6,0.3,4.7,0.3c0.6,0,1.5-0.1,2.7-0.2C13.4,2.1,14.3,2,14.9,2
			c1.3,0,2.1,0.4,2.5,1.3L18.1,4.8z"/>
	</g>
	<g class="st0">
		<path class="st1" d="M65.5,0.9c4.5,0,8.2,1.7,11,5.2V5.4c0-0.2,0-0.4,0-0.7c-0.1-0.2-0.1-0.4-0.1-0.4c-0.1-0.9-0.1-1.3-0.1-1.2
			c0-1.4,0.6-2.1,1.9-2.1s2,0.9,2,2.6c0,0.3,0,1.3-0.1,2.9c-0.2,2-0.4,3.4-0.4,4.2c0,1.1,0.1,2.2,0.2,3.4l0.3,2.3V17
			c0,1.8-0.7,2.7-2.2,2.7c-1.6,0-2.4-0.9-2.3-2.6v-2.2c0.1-2.9-0.8-5.3-2.7-7.1c-1.9-1.8-4.4-2.7-7.5-2.7c-4,0-7.2,1.5-9.4,4.6
			c-2.3,3.1-3.4,7.4-3.4,12.8c0,5.6,1.2,9.9,3.5,13s5.6,4.7,9.8,4.7c2.3,0,4.3-0.5,6.1-1.6c1.8-1.1,3.1-2.5,3.8-4.3
			c0.5-1.2,0.7-2.8,0.7-4.8c0-1.9,0.8-2.8,2.3-2.8c1.7,0,2.5,0.9,2.5,2.8c0,4.4-1.5,7.9-4.5,10.7s-6.9,4.1-11.7,4.1
			c-5.5,0-9.9-1.9-13.1-5.8c-3.3-3.9-4.9-9-4.9-15.4c0-6.6,1.7-12,5-16S60,0.9,65.5,0.9z"/>
		<path class="st1" d="M116.5,20.5c-1.2,0.6-2.7,1.1-4.5,1.5c2.4,0.4,4,1.3,4.9,2.7c0.9,1.3,1.4,3.5,1.4,6.6V34c0,0.2,0,0.4,0,0.7
			c0,2.9,0.9,4.4,2.8,4.4s2.8-1.7,2.8-5.2v-1.8v-1.5v-0.8c0-1.2,0.1-2,0.2-2.4c0.3-0.7,1-1,1.9-1c1.5,0,2.2,0.9,2.2,2.6
			c0,0,0,0.5-0.1,1.3v1.3c0,0.9,0,1.4,0,1.6v1.5c0,0.2-0.1,0.6-0.1,1.1c0,2.4-0.7,4.2-2,5.5s-3.2,2-5.5,2c-4.8,0-7.2-2.4-7.2-7.3
			v-1.8v-2.1v-1.3c0-2.7-0.5-4.5-1.5-5.4s-3.2-1.3-6.4-1.3h-5.7c-1.3,0-1.9,0.8-1.9,2.4v4.7c0,3,0,4.7,0.1,5.1c0.4,2,1.4,3,3,3
			c0.6,0,1,0,1.3-0.1c0.7-0.1,1.2-0.1,1.6-0.1c1.3,0,2,0.7,2,2c0,1.4-0.9,2.1-2.6,2.1l-0.9-0.1L99,42.7c-1.3-0.2-2.4-0.2-3.4-0.2
			c-1.2,0-2.6,0.1-4.3,0.3l-2.9,0.4c-0.7,0.1-1,0.1-0.9,0.1c-1.7,0-2.6-0.7-2.6-2.2c0-1.3,0.6-2,1.9-2c0.2,0,0.8,0,1.6,0.1
			c0.4,0.1,0.9,0.2,1.3,0.2c2.1,0,3.1-1.5,3.1-4.6V10.4c0-3-1-4.6-3.1-4.6c-0.3,0-0.8,0.1-1.5,0.2s-1.1,0.2-1.5,0.2
			c-0.5,0-1-0.2-1.3-0.6c-0.4-0.4-0.5-0.8-0.5-1.4c0-1.4,0.9-2.1,2.7-2.1c0.2,0,0.4,0,0.9,0.1l3.1,0.3c0.8,0.1,1.8,0.1,3,0.1
			c1.3,0,2.7,0,4.2-0.1l4.6-0.2c1.5-0.1,3-0.1,4.3-0.1c8.9,0,13.4,3.4,13.4,10.2C121.1,16.3,119.6,19,116.5,20.5z M99.6,20h5.7
			c3.4,0,6-0.5,7.7-1.5c2.1-1.2,3.1-3.2,3.1-5.9c0-4.6-3.2-7-9.5-7c-3.4,0-5.7,0.3-6.9,0.8c-1.2,0.5-1.8,1.5-1.9,3v2v7
			c0,0.7,0.1,1.1,0.4,1.3S98.9,20,99.6,20z"/>
		<path class="st1" d="M142.4,34c0,2.4,0.2,3.8,0.7,4.2c0.4,0.4,0.8,0.6,1.4,0.7c0.6,0.1,1.9,0.1,4,0.1h5.4c2.8,0,4.7-0.4,5.6-1.1
			c0.9-0.7,1.4-2.2,1.4-4.5c0-0.6,0-1.3-0.1-2.1c-0.1-1.6-0.1-2.5-0.1-2.8c0-1.8,0.7-2.6,2.1-2.6c1.7,0,2.6,0.8,2.6,2.4
			c0,0.5,0,0.9-0.1,1.2l-0.4,3.1c-0.1,0.9-0.2,1.8-0.2,2.8c0,0.6,0,1.4,0.2,2.5c0.1,1.1,0.2,2,0.2,2.5c0,1.8-1,2.7-3.1,2.7
			c-0.4,0-1.3-0.1-2.8-0.2c-1-0.1-2.5-0.1-4.5-0.2h-4.6h-9.8c-1,0-2.6,0.1-4.9,0.2c-0.3,0-0.9,0-1.7,0.1s-1.4,0.1-1.9,0.1
			c-1.7,0-2.6-0.7-2.6-2.2c0-1.3,0.6-2,1.9-2c0.3,0,0.8,0.1,1.5,0.2c0.6,0.1,1.1,0.2,1.5,0.2c2.1,0,3.1-1.5,3.1-4.6V10.4
			c0-3-1-4.5-3.1-4.5c-0.6,0-1,0-1.3,0.1c-0.7,0.1-1.2,0.2-1.6,0.2c-0.5,0-1-0.2-1.3-0.6c-0.4-0.4-0.5-0.9-0.5-1.4
			c0-1.4,0.9-2.1,2.6-2.1c0.2,0,0.5,0,0.9,0.1l3.2,0.4c1.8,0.2,3.1,0.3,4,0.3c1.1,0,2.4-0.1,3.9-0.3l2.8-0.4c0.3,0,0.6-0.1,0.8-0.1
			c1.8,0,2.7,0.7,2.7,2.1c0,0.6-0.2,1-0.5,1.4c-0.4,0.4-0.8,0.6-1.3,0.6c-0.4,0-1-0.1-1.6-0.2c-0.3-0.1-0.7-0.1-1.3-0.1
			c-2.1,0-3.1,1.5-3.1,4.5L142.4,34L142.4,34z"/>
	</g>
</g>
</svg>
