<svg xmlns="http://www.w3.org/2000/svg" viewBox="0 0 253.22 52.08"><defs><style>.cls-1{fill:#ffce34;}</style></defs><title>Asset 1wlu-logo-250</title><g id="Layer_2" data-name="Layer 2"><g id="Layer_1-2" data-name="Layer 1"><path d="M158.65,35.54c0,2.41-.05,4.83-.05,7.28h-1.84c-.73-.91-1.49-1.85-2.27-2.8l-2.32-2.83-2.25-2.7-2-2.45c0,1.81,0,3.6.06,5.39s.07,3.58.16,5.39h-2q.18-2.9.29-5.74c.08-1.9.11-3.81.11-5.73a7.31,7.31,0,0,0,0-.94,1.79,1.79,0,0,0-.21-.69,1.11,1.11,0,0,0-.51-.45,2.88,2.88,0,0,0-.95-.2v-.72a12.36,12.36,0,0,1,1.35-.14c.46,0,.92,0,1.36,0a8.42,8.42,0,0,1,1,.07L150.74,31l2.31,2.79c.76.91,1.52,1.79,2.23,2.62l1.95,2.28v-.78c0-1.62,0-3.24-.09-4.84s-.14-3.21-.24-4.84h2C158.76,30.72,158.68,33.14,158.65,35.54Z"/><path d="M163.09,42.9c.11-1.8.2-3.59.23-5.37s.06-3.55.06-5.38a10.59,10.59,0,0,0,0-1.18,1.72,1.72,0,0,0-.28-.85,1.37,1.37,0,0,0-.65-.51,3.41,3.41,0,0,0-1.23-.2v-.76a20.56,20.56,0,0,1,3.91-.38h.76V42.89Z"/><path d="M178.94,35.55q-1.29,3.6-2.56,7.29h-2.22q-.9-2.36-1.75-4.67t-1.82-4.63c-.11-.24-.23-.54-.36-.91s-.28-.73-.45-1.11a10.32,10.32,0,0,0-.51-1.06,2.12,2.12,0,0,0-.6-.7,1.53,1.53,0,0,0-.59-.28,2.74,2.74,0,0,0-.64-.08l0-.71a15.4,15.4,0,0,1,2-.31c.69-.06,1.37-.1,2.06-.1.72,2,1.45,3.93,2.19,5.86S175.16,38,175.87,40c.67-1.94,1.29-3.88,1.84-5.82s1.09-3.91,1.59-5.9h2.25Q180.25,32,178.94,35.55Z"/><path d="M192.78,42.82H184.4c.15-1.87.24-3.72.26-5.57s0-3.71,0-5.58c0-.32,0-.65-.05-1a2,2,0,0,0-.26-.8,1.5,1.5,0,0,0-.56-.56,2.19,2.19,0,0,0-1-.26v-.8H192V29.8q-1.08-.11-2.13-.15c-.71,0-1.42,0-2.13,0h-.57v4.88l4.47-.07-.2,1.56-4.27-.11v2.41a5.31,5.31,0,0,0,0,.69c0,.24,0,.46,0,.68s0,.4.06.55a2.4,2.4,0,0,0,.19.71.88.88,0,0,0,.8.56,5.53,5.53,0,0,0,.71,0h1a5.3,5.3,0,0,0,1.05-.07,1.14,1.14,0,0,0,.58-.26,1.51,1.51,0,0,0,.35-.58c.09-.24.2-.56.33-1h.8Z"/><path d="M203.17,42.82c-.61-1.11-1.23-2.2-1.85-3.28s-1.27-2.16-1.94-3.23h-.54v6.51h-2.76c.08-1.88.15-3.74.22-5.57s.11-3.7.12-5.58a6.35,6.35,0,0,0-.08-1,2.6,2.6,0,0,0-.28-.81,1.41,1.41,0,0,0-.59-.57,2.13,2.13,0,0,0-1-.24v-.82l3,0h3q.62,0,1.23.06a6.13,6.13,0,0,1,1.2.27,3.29,3.29,0,0,1,1.68,1.28,3.79,3.79,0,0,1-.31,4.52A4.45,4.45,0,0,1,202,35.67c.21.39.43.76.65,1.13s.45.74.68,1.13c.11.2.29.51.5.9s.47.8.74,1.21.54.79.8,1.13a2,2,0,0,0,.66.63,2.73,2.73,0,0,0,1.19.24v.79Zm-1.44-12.61a3.15,3.15,0,0,0-2-.6h-.86v5.47h.64a3.16,3.16,0,0,0,2.22-.73,2.86,2.86,0,0,0,.79-2.2,2.36,2.36,0,0,0-.76-1.94Z"/><path d="M217.47,40.44a3.83,3.83,0,0,1-1.18,1.35,5.06,5.06,0,0,1-1.7.78,8.74,8.74,0,0,1-2,.25,10.07,10.07,0,0,1-2.19-.24,6.3,6.3,0,0,1-2-.87l.45-2.12A4.87,4.87,0,0,0,210.44,41a4.56,4.56,0,0,0,2.15.47,2.91,2.91,0,0,0,1.86-.57,2,2,0,0,0,.74-1.72,1.92,1.92,0,0,0-.5-1.43,4,4,0,0,0-1.26-.84,15,15,0,0,0-1.63-.57,7.9,7.9,0,0,1-1.62-.67,3.76,3.76,0,0,1-1.27-1.14,3.42,3.42,0,0,1-.5-2,3.54,3.54,0,0,1,.48-1.9,4.14,4.14,0,0,1,1.25-1.35,5.73,5.73,0,0,1,1.77-.78,8.9,8.9,0,0,1,2-.25,10.85,10.85,0,0,1,1.7.15,6.07,6.07,0,0,1,1.6.5l-.34,3h-.72a.54.54,0,0,1,0-.22.54.54,0,0,0,0-.22,2.69,2.69,0,0,0-.79-1.47,2.53,2.53,0,0,0-1.62-.43,3.16,3.16,0,0,0-1,.14,2.26,2.26,0,0,0-.82.41,1.91,1.91,0,0,0-.51.68,2.08,2.08,0,0,0-.2.95,1.83,1.83,0,0,0,.51,1.39,3.76,3.76,0,0,0,1.25.8,13.69,13.69,0,0,0,1.63.57,7.29,7.29,0,0,1,1.63.68,3.91,3.91,0,0,1,1.26,1.17,3.6,3.6,0,0,1,.5,2.07A4.12,4.12,0,0,1,217.47,40.44Z"/><path d="M221.23,42.9q.18-2.7.24-5.37c0-1.78.06-3.55.06-5.38,0-.45,0-.84-.05-1.18a1.85,1.85,0,0,0-.27-.85,1.42,1.42,0,0,0-.65-.51,3.12,3.12,0,0,0-1.21-.18v-.76a20.38,20.38,0,0,1,3.9-.38H224V42.91Z"/><path d="M239,31.59h-.75a6.17,6.17,0,0,0-.14-.86,1.2,1.2,0,0,0-.51-.68,2.23,2.23,0,0,0-.61-.27,4.63,4.63,0,0,0-.73-.12c-.26,0-.51,0-.77,0H234V42.8h-2.8c.07-1.81.14-3.6.2-5.37s.09-3.57.09-5.37v-1.2c0-.41,0-.82,0-1.23h-1.4a7.68,7.68,0,0,0-.81,0c-.27,0-.53.06-.8.1a1.59,1.59,0,0,0-.55.2,1.18,1.18,0,0,0-.47.74,6.56,6.56,0,0,0-.11.89h-.74l-.09-3.33h12.6Z"/><path d="M250.8,32.4c-.77,1.39-1.54,2.79-2.3,4.22v6.15h-2.79c0-.86.08-1.73.13-2.58s.1-1.72.1-2.59v-1c-.25-.5-.51-1-.81-1.55s-.62-1.09-1-1.63-.68-1.08-1-1.6-.68-1-1-1.46c-.12-.16-.24-.32-.37-.47a1.78,1.78,0,0,0-.35-.32,1.3,1.3,0,0,0-.43-.2,3,3,0,0,0-.6-.12l-.05-.72a14.69,14.69,0,0,1,1.87-.23q.92-.06,1.86-.06L247.94,35c.57-1.09,1.1-2.22,1.6-3.38s1-2.28,1.44-3.35h2.24C252.38,29.64,251.57,31,250.8,32.4Z"/><path d="M8,0H23.1c5.14.31,2.83,19.65,2.83,19.65S29.23,9.1,33.08.09H43.62v18C45.28,12.73,50.21.37,50.63,0h3s11.32,0,5.54,13.41c-2.53,6.37-5.8,15-10,29.12a132.31,132.31,0,0,0-14.76.65c-.46-3.19-1.25-15.87-1.25-15.87S28.23,39.41,27.45,44a152.18,152.18,0,0,0-18,3.23,193.82,193.82,0,0,0,3.72-27.13C13.78,9.75,13.27.73,8,0Z"/><path d="M122.75,19.4h-8.38c.16-1.86.24-3.72.26-5.57s0-3.72,0-5.57a8.06,8.06,0,0,0-.06-1,1.93,1.93,0,0,0-.26-.8,1.58,1.58,0,0,0-.56-.56,2.18,2.18,0,0,0-1-.25v-.8h9.12V6.41q-1.08-.11-2.13-.15c-.7,0-1.41,0-2.13,0h-.3a1.09,1.09,0,0,0-.26,0V11l4.46-.07-.2,1.56-4.26-.11v3.1c0,.23,0,.46,0,.67s0,.41.06.56a2.49,2.49,0,0,0,.19.71.89.89,0,0,0,.79.56,5.79,5.79,0,0,0,.72,0h1a6.18,6.18,0,0,0,1-.07,1,1,0,0,0,.58-.27,1.4,1.4,0,0,0,.35-.57c.09-.24.2-.57.34-1H123Z"/><path d="M133.83,17a3.94,3.94,0,0,1-1.18,1.35,4.92,4.92,0,0,1-1.71.78,8.1,8.1,0,0,1-2,.25,10.16,10.16,0,0,1-2.2-.24,6.23,6.23,0,0,1-2-.86l.45-2.13a4.46,4.46,0,0,0,3.79,1.89,3,3,0,0,0,1.87-.57,2,2,0,0,0,.74-1.72,1.92,1.92,0,0,0-.51-1.44,3.93,3.93,0,0,0-1.25-.84,15.73,15.73,0,0,0-1.63-.57,7.46,7.46,0,0,1-1.63-.67,3.82,3.82,0,0,1-1.26-1.14,3.47,3.47,0,0,1-.51-2,3.65,3.65,0,0,1,.48-1.91A4.25,4.25,0,0,1,126.5,5.9a5.29,5.29,0,0,1,1.8-.8,8.61,8.61,0,0,1,2-.25A9.65,9.65,0,0,1,132,5a5.7,5.7,0,0,1,1.61.51l-.34,3h-.72a.62.62,0,0,1,0-.23.59.59,0,0,0-.05-.22,2.65,2.65,0,0,0-.78-1.46,2.54,2.54,0,0,0-1.62-.44,3.64,3.64,0,0,0-1,.14,2.26,2.26,0,0,0-.82.41,2,2,0,0,0-.55.68,2.08,2.08,0,0,0-.2,1,1.83,1.83,0,0,0,.51,1.4,4,4,0,0,0,1.24.81,13.49,13.49,0,0,0,1.62.56,7.29,7.29,0,0,1,1.63.68,3.39,3.39,0,0,1,1.77,3.24A4.12,4.12,0,0,1,133.83,17Z"/><path d="M147.73,8.18H147a6.19,6.19,0,0,0-.15-.86,1.11,1.11,0,0,0-.5-.68,1.8,1.8,0,0,0-.62-.27,3.59,3.59,0,0,0-.73-.12c-.25,0-.51,0-.77,0h-1.45V19.38H140c.08-1.8.14-3.59.2-5.36s.09-3.55.09-5.37V7.44c0-.4,0-.81,0-1.23H138.8a5.84,5.84,0,0,0-.81,0,5.64,5.64,0,0,0-.8.1,1.29,1.29,0,0,0-.54.19,1.07,1.07,0,0,0-.47.74,6.94,6.94,0,0,0-.12.9h-.71l-.1-3.33h12.61Z"/><path d="M174,19.49c.13-1.81.2-3.6.24-5.38s.06-3.54.06-5.37a8.71,8.71,0,0,0-.05-1.19A1.85,1.85,0,0,0,174,6.7a1.49,1.49,0,0,0-.65-.51A3.33,3.33,0,0,0,172.12,6V5.25a20.46,20.46,0,0,1,3.9-.38h.77V19.49Z"/><path d="M190.31,17.11a4.54,4.54,0,0,1-1.44,1.32,6.44,6.44,0,0,1-1.94.74,9.68,9.68,0,0,1-2.08.23c-.67,0-1.34,0-2-.09s-1.3-.14-2-.24q.18-2.45.27-4.86c.06-1.61.09-3.23.09-4.87v-1c0-.34,0-.68-.08-1a2.49,2.49,0,0,0-.47-1.25,1.74,1.74,0,0,0-1.29-.46V4.87h5.78A12.9,12.9,0,0,1,187,5a4.12,4.12,0,0,1,1.49.51,2.68,2.68,0,0,1,1.05,1,3.39,3.39,0,0,1,.39,1.74,3.16,3.16,0,0,1-.22,1.21,3.3,3.3,0,0,1-.63,1,3.63,3.63,0,0,1-.95.71,4.12,4.12,0,0,1-1.17.43,6,6,0,0,1,1.57.24,3.66,3.66,0,0,1,1.25.66,3.32,3.32,0,0,1,.82,1.07,3.62,3.62,0,0,1,.3,1.52A3.42,3.42,0,0,1,190.31,17.11ZM186.76,6.82a2,2,0,0,0-1.65-.61H183.7v4.9h.87c1.8,0,2.7-.88,2.7-2.63a2.48,2.48,0,0,0-.52-1.66Zm1.06,7a2.19,2.19,0,0,0-.67-.84,2.63,2.63,0,0,0-1.07-.43,6.53,6.53,0,0,0-1.39-.12h-1v1.8c0,.6,0,1.21.07,1.82a6.71,6.71,0,0,0,.06.82,1.55,1.55,0,0,0,.16.63.92.92,0,0,0,.45.4,2.5,2.5,0,0,0,.9.14,2.59,2.59,0,0,0,1.1-.24,2.65,2.65,0,0,0,.85-.64,2.8,2.8,0,0,0,.56-.94,3,3,0,0,0,.19-1.06,3.6,3.6,0,0,0-.23-1.34Z"/><path d="M202.17,19.4h-8.38c.15-1.86.24-3.72.26-5.57s0-3.72,0-5.57c0-.33,0-.65-.05-1a2.28,2.28,0,0,0-.26-.8,1.67,1.67,0,0,0-.56-.56,2.18,2.18,0,0,0-1-.25v-.8h9.14V6.41q-1.08-.11-2.13-.15c-.7,0-1.42,0-2.14,0h-.29a1.24,1.24,0,0,0-.27,0V11L201,11l-.2,1.56-4.27-.11v3.1c0,.23,0,.46,0,.67s0,.41.06.56a2.86,2.86,0,0,0,.19.71.92.92,0,0,0,.8.56,5.79,5.79,0,0,0,.72,0h1a6.13,6.13,0,0,0,1-.07,1.1,1.1,0,0,0,.59-.27,1.5,1.5,0,0,0,.34-.57c.09-.24.2-.57.34-1h.79Z"/><path d="M212.57,19.4l-1.86-3.28c-.62-1.08-1.26-2.15-1.94-3.22h-.54v6.5h-2.76c.08-1.88.15-3.74.22-5.57s.11-3.71.11-5.57a6.46,6.46,0,0,0-.07-1,2.62,2.62,0,0,0-.29-.81,1.39,1.39,0,0,0-.58-.57,2.22,2.22,0,0,0-1-.24V4.85l3,0h3a10.14,10.14,0,0,1,1.23.07,5,5,0,0,1,1.2.27,3.22,3.22,0,0,1,1.68,1.27,3.77,3.77,0,0,1-.31,4.53,4.45,4.45,0,0,1-2.36,1.31c.21.38.43.76.65,1.12l.67,1.13c.12.2.3.51.51.9s.47.8.74,1.21a13.14,13.14,0,0,0,.8,1.13,1.9,1.9,0,0,0,.66.63,2.89,2.89,0,0,0,1.19.25v.78ZM211.12,6.79a3.14,3.14,0,0,0-2-.6h-.86v5.5h.63a3.17,3.17,0,0,0,2.23-.73,2.85,2.85,0,0,0,.78-2.2,2.32,2.32,0,0,0-.75-2Z"/><path d="M229,8.18h-.74a8.11,8.11,0,0,0-.14-.86,1.1,1.1,0,0,0-.49-.68,1.68,1.68,0,0,0-.61-.27,3.71,3.71,0,0,0-.73-.12c-.26,0-.51,0-.77,0H224V19.38h-2.81c.08-1.8.15-3.59.21-5.36s.09-3.55.09-5.37V6.21h-1.44a5.77,5.77,0,0,0-.81,0,5.47,5.47,0,0,0-.8.1,1.39,1.39,0,0,0-.55.19,1.14,1.14,0,0,0-.47.74,5.53,5.53,0,0,0-.11.9h-.74l-.09-3.33h12.59Z"/><path d="M240.81,9q-1.16,2.08-2.3,4.23v6.14h-2.79c0-.86.08-1.72.14-2.58s.09-1.72.09-2.58v-.48a2.85,2.85,0,0,0,0-.5c-.24-.51-.5-1-.8-1.56s-.62-1.09-1-1.63l-1-1.6c-.34-.52-.69-1-1-1.45a3.68,3.68,0,0,0-.37-.51,1.73,1.73,0,0,0-.35-.31A1.62,1.62,0,0,0,231,6a3.14,3.14,0,0,0-.61-.12l0-.72a14.71,14.71,0,0,1,1.87-.24c.61,0,1.23,0,1.86,0l3.87,6.73c.57-1.09,1.1-2.21,1.59-3.38s1-2.28,1.44-3.35h2.25Q242,6.9,240.81,9Z"/><path d="M109.94,9.66q-1.59,4.81-3.11,9.75h-3.45q-1-3.73-2.09-7.37c-.72-2.42-1.46-4.87-2.22-7.33L94.76,19.4h-3.2c-.12-.38-.33-1-.63-2s-.65-2.07-1-3.3-.8-2.54-1.24-3.88-.86-2.6-1.25-3.74-.76-2.12-1.08-2.92a6.22,6.22,0,0,0-.69-1.42,3.35,3.35,0,0,0-.8-.55,2,2,0,0,0-1-.15V.4A26.82,26.82,0,0,1,88.45,0h.69q1.14,3.87,2.35,7.66c.81,2.52,1.62,5.07,2.44,7.63L98.42,0h2.91l4.75,15.73c.82-2.61,1.58-5.21,2.29-7.82s1.38-5.25,2-7.92h2.94C112.12,3.21,111,6.43,109.94,9.66Z"/><path d="M170.91,19.5c-1.88,0-3.75,0-5.63,0s-3.75,0-5.63,0q.24-3.59.32-7.15T160,5.2A12.64,12.64,0,0,0,160,3.63a2.25,2.25,0,0,0-.36-1.12,1.73,1.73,0,0,0-.88-.67,4.53,4.53,0,0,0-1.63-.22v-1a23.74,23.74,0,0,1,2.53-.38c.85-.08,1.72-.12,2.57-.12h1.17q0,3.83,0,7.6v7.54a6.74,6.74,0,0,0,.09,1.19,1.31,1.31,0,0,0,1.05,1.14,4.56,4.56,0,0,0,1.17.11h1.14c.57,0,1,0,1.43,0a1.9,1.9,0,0,0,1-.3,1.71,1.71,0,0,0,.59-.76,6.81,6.81,0,0,0,.41-1.4h1.07Z"/><path d="M142.33,34q-.06,1.14-.06,2.31a9.57,9.57,0,0,1-.27,2.26,4.78,4.78,0,0,1-1.52,2.09,10.93,10.93,0,0,1-2.1,1.39,9.29,9.29,0,0,1-2.18.78,11.46,11.46,0,0,1-2.33.25,12.79,12.79,0,0,1-3.2-.38,6.19,6.19,0,0,1-2.41-1.22,5.42,5.42,0,0,1-1.52-2.11,8.06,8.06,0,0,1-.54-3.11q0-1.89.06-3.78c0-1.25.06-2.51.06-3.77v-.82a5.63,5.63,0,0,0-.1-.91,3.1,3.1,0,0,0-.29-.84,1.4,1.4,0,0,0-.5-.6,2.17,2.17,0,0,0-.89-.29c-.31,0-.63-.06-.94-.07v-1c.84-.14,1.68-.24,2.53-.32s1.68-.12,2.53-.12h1.08V35a18.38,18.38,0,0,0,.15,2.34,5,5,0,0,0,.63,1.89,3.28,3.28,0,0,0,1.41,1.25,5.87,5.87,0,0,0,2.48.45,6,6,0,0,0,2.9-.58,3.83,3.83,0,0,0,1.52-1.52,5.61,5.61,0,0,0,.58-2.27c.06-.87.09-1.77.09-2.71q0-5.07-.4-10.09h3.69Z"/><path class="cls-1" d="M58.55,0H80.18S73.09,12.42,66.32,35.15H87s-2.57,3.79-3.69,12.92c0,0-11.33-5.34-32.35-5.54,3.69-12.4,8.61-25.61,10.89-31.13C63.89,5.84,62.59,1,58.55,0Z"/><path class="cls-1" d="M0,52.08s47.11-17,86.11-1.24C86.12,50.84,50.51,38.79,0,52.08Z"/><path class="cls-1" d="M133.51,28.91s65.4-18.08,119.64-1.31C253.15,27.6,204.12,17.05,133.51,28.91Z"/></g></g></svg>