<?xml version="1.0" encoding="UTF-8"?>
<!-- Generator: Adobe Illustrator 18.1.1, SVG Export Plug-In . SVG Version: 6.00 Build 0)  -->
<svg version="1.1" id="Layer_1" xmlns="http://www.w3.org/2000/svg" xmlns:xlink="http://www.w3.org/1999/xlink" x="0px" y="0px" viewBox="0 0 216 216" enable-background="new 0 0 216 216" xml:space="preserve">
<path fill="#F47920" d="M203.6947,108.9165c0,51.2359-41.5304,92.7753-92.7619,92.7753c-51.236,0-92.7708-41.5393-92.7708-92.7753  c0-51.2271,41.5349-92.7664,92.7708-92.7664C162.1642,16.1501,203.6947,57.6894,203.6947,108.9165z"/>
<path fill="#FDB927" d="M178.1546,108.6091c0-37.0941-30.0744-67.164-67.1684-67.164c-37.0963,0-67.1662,30.0699-67.1662,67.164  c0,37.0985,30.0699,67.1684,67.1662,67.1684C148.0802,175.7775,178.1546,145.7077,178.1546,108.6091z"/>
<g>
	<defs>
		<path id="SVGID_1_" d="M176.7738,110.3284c-2.619,36.4616-29.6289,66.1885-66.1796,66.1885    c-36.5529,0-65.7542-29.4686-66.8678-66.0015c-1.1759-38.6708,29.0432-69.1639,67.0549-69.1639    C144.7352,41.3516,179.963,66.1166,176.7738,110.3284z M91.6797,106.921c-13.4871,0.0846-23.4689,12.387-22.8252,25.2505    c0.6948,13.9281,9.8325,25.0813,23.3152,25.0813c13.4871,0,25.2661-11.3803,24.1258-25.2773    C115.084,117.1343,105.2693,106.8364,91.6797,106.921z"/>
	</defs>
	<clipPath id="SVGID_2_">
		<use xlink:href="#SVGID_1_" overflow="visible"/>
	</clipPath>
	<g clip-path="url(#SVGID_2_)">
		<polygon fill="#F47920" points="110.8258,119.308 170.3198,72.878 173.4332,82.588 111.8503,121.0718   "/>
		<polygon fill="#F47920" points="104.9219,111.6691 107.1534,113.0722 147.6259,51.9703 139.2121,46.848 106.4541,108.863   "/>
		<polygon fill="#F47920" points="95.0693,109.2238 97.5814,109.6336 113.9615,37.6369 103.6301,35.0267 95.5748,105.4021   "/>
		<polygon fill="#F47920" points="84.2457,110.3997 86.5441,109.7805 77.6091,47.3513 68.3801,53.7965 82.8182,105.656   "/>
		<polyline fill="#F47920" points="73.4667,111.776 44.2966,82.3564 51.5969,75.6529 78.001,112.6891 76.0011,114.6044   "/>
		<polygon fill="#F47920" points="71.3198,122.9514 72.5269,120.279 36.7735,96.3869 32.4374,105.0547 68.5449,121.584   "/>
	</g>
</g>
<path fill="#F47920" d="M72.7184,124.3456c1.4699-5.3583,6.1601-13.8034,18.4179-14.9436c0,0,0.5835-0.0134,0.9354-0.0089  c3.0912,0.0401,16.0505,1.3496,19.8989,15.2064l-18.8923,8.0353l-20.587-7.5008L72.7184,124.3456z"/>
<path fill="#004990" d="M110.9327,198.9522c-24.0496,0-46.6591-9.3646-63.6637-26.3685  c-17.0048-17.0042-26.3698-39.6134-26.3698-63.6627c0-24.0496,9.3648-46.6593,26.3696-63.6648s39.6144-26.3709,63.6639-26.3709  c24.0457,0,46.6529,9.3654,63.6575,26.3712c17.0045,17.0059,26.3693,39.6157,26.3693,63.6646  c0,24.0487-9.3648,46.658-26.3696,63.6627C157.5857,189.5876,134.9787,198.9522,110.9327,198.9522z M110.9327,39.1421  c-18.6383,0-36.1609,7.2583-49.3399,20.4377C48.4141,72.759,41.1561,90.2821,41.1561,108.9209  c0,18.6384,7.2579,36.1607,20.4366,49.3388c13.1785,13.1781,30.7013,20.4356,49.34,20.4356c18.635,0,36.1554-7.2575,49.3332-20.4356  c13.1787-13.1787,20.4367-30.701,20.4367-49.3388c0-18.6384-7.258-36.1614-20.437-49.3414  C147.0875,46.4002,129.5672,39.1421,110.9327,39.1421z"/>
<path stroke="#000000" stroke-width="0.4352" d="M110.7724,187.9195"/>
<g>
	<defs>
		<path id="SVGID_3_" d="M178.1546,108.6091c0-37.0941-30.0744-67.164-67.1684-67.164c-37.0963,0-67.1662,30.0699-67.1662,67.164    c0,37.0985,30.0699,67.1684,67.1662,67.1684C148.009,175.7775,178.1546,145.7967,178.1546,108.6091z"/>
	</defs>
	<clipPath id="SVGID_4_">
		<use xlink:href="#SVGID_3_" overflow="visible"/>
	</clipPath>
	<g clip-path="url(#SVGID_4_)">
		<g>
			<g>
				<path fill="#00953A" d="M169.38,142.0909l3.9375-7.7547l-36.2478-10.4227c0,0-8.6856-3.3629-18.7697,0.8374l-21.6627,9.2468      l22.1972,8.0353L169.38,142.0909z"/>
				<polygon fill="#00953A" points="168.017,144.6431 53.2984,144.6431 70.5804,166.7223     "/>
				<polygon fill="#00953A" points="174.137,145.7477 64.8302,170.7756 82.3416,184.6368     "/>
				<path fill="#00953A" d="M45.1161,124.6307c0,0,6.8906-4.8105,17.0994-0.4989l49.0735,17.9012l-60.7299,0.0579L45.1161,124.6307z      "/>
			</g>
		</g>
		<path fill="#00953A" d="M156.1957,156.1615l6.6277-2.8328c-12.2222,12.6097-32.8092,23.9009-51.5077,23.4021    c-0.1693-0.0044-0.824-0.5612-1.3095-0.9176L156.1957,156.1615z"/>
	</g>
</g>
<g>
	<path fill="#FDB927" d="M131.9296,172.4815c0,4.5299-9.1933,8.1956-20.5336,8.1956c-11.3469,0-20.5425-3.6657-20.5425-8.1956   c0-4.5254,9.1956-8.1956,20.5425-8.1956C122.7362,164.2859,131.9296,167.9561,131.9296,172.4815z"/>
	<path fill="#004990" d="M111.396,181.3775c-11.9119,0-21.2429-3.9077-21.2429-8.896c0-4.9884,9.331-8.896,21.2429-8.896   c11.9067,0,21.234,3.9077,21.234,8.896C132.63,177.4698,123.3027,181.3775,111.396,181.3775z M111.396,164.9863   c-11.869,0-19.8421,3.8754-19.8421,7.4952c0,3.6198,7.973,7.4952,19.8421,7.4952c11.8639,0,19.8332-3.8754,19.8332-7.4952   C131.2291,168.8617,123.2598,164.9863,111.396,164.9863z"/>
</g>
<g>
	<path fill="#FDB927" d="M29.1525,89.8572c-0.5078,2.1825,0.9176,4.5566,3.2337,5.0955c2.3072,0.5345,4.6256-0.9576,5.1356-3.1535   c0.2494-1.0824,0.0757-2.2004-0.49-3.0912l1.3942-0.8151c0.7661,1.2338,1.049,2.7749,0.6948,4.2938   c-0.726,3.1357-3.9107,5.1089-7.1044,4.3651c-3.1892-0.7394-5.2114-3.8662-4.4675-7.0687c0.3519-1.5189,1.2383-2.7482,2.501-3.4965   l0.8908,1.3451C30.0433,87.8796,29.4064,88.7615,29.1525,89.8572z"/>
	<path fill="#FDB927" d="M30.5199,80.2852l10.8859,3.884l-0.5456,1.5322l-10.8881-3.884L30.5199,80.2852z"/>
	<path fill="#FDB927" d="M44.1897,77.6038l-8.8838-4.3962l-1.0846,2.1959l1.1091,0.5478l-0.726,1.4699l-2.5878-1.2783l4.3406-8.7702   l2.5856,1.2783l-0.7194,1.4565l-1.1113-0.5478l-1.0868,2.1914l8.886,4.3962L44.1897,77.6038z"/>
	<path fill="#FDB927" d="M50.3542,67.0876l-2.5433-1.8217l-9.7011-0.9398l1.0512-1.461l7.6433,0.6681l-3.0823-7.0286l1.04-1.4476   l3.9976,8.886l2.5433,1.8262L50.3542,67.0876z"/>
	<path fill="#FDB927" d="M56.1713,51.2487c-2.0712-2.5344-1.7193-6.2759,0.7839-8.3293c2.5054-2.0444,6.2291-1.6347,8.3025,0.8997   c2.0756,2.5388,1.726,6.2536-0.7795,8.307C61.9728,54.1706,58.2469,53.7876,56.1713,51.2487z M57.9975,44.1933   c-1.8084,1.4832-2.0355,4.178-0.5389,6.0042c1.4832,1.8173,4.1602,2.1202,5.9774,0.6548c1.8084-1.4788,2.0712-4.1824,0.5746-6.0087   C62.5051,42.9952,59.8059,42.719,57.9975,44.1933z"/>
	<path fill="#FDB927" d="M74.7005,31.7218l1.3852,2.53l-1.4387,0.7839l-0.5969-1.0824l-5.3494,2.9353l1.5923,2.8997l2.8506-1.5634   l0.7906,1.4431l-2.8507,1.5634l2.3852,4.3472l-1.4409,0.7884l-2.383-4.3472l-1.0734,0.5879l-0.7906-1.4431l1.0735-0.5879   l-2.3852-4.3472L74.7005,31.7218z"/>
	<path fill="#FDB927" d="M92.5572,37.6457l-2.3874-9.6209l-2.374,0.5924l0.2984,1.2026l-1.5946,0.392l-0.6948-2.8016l9.5007-2.3518   l0.6948,2.8016l-1.5768,0.392l-0.2984-1.2026l-2.3763,0.5835l2.3852,9.6254L92.5572,37.6457z"/>
	<path fill="#FDB927" d="M108.9529,35.1247l-1.7772,0.1826l-1.9598-3.1223l-4.5299,0.4721l-1.2917,3.4564l-1.795,0.1871   l1.2761-3.4564l-0.7995,0.0802l-0.1693-1.6346l1.6302-0.1737l2.5522-6.9039L108.9529,35.1247z M102.4498,27.6685l-1.1803,3.2694   l3.0066-0.3118L102.4498,27.6685z"/>
	<path fill="#FDB927" d="M113.9526,23.7756l-0.3118,4.953l1.2115,0.0713l4.5432-4.6813l2.1068,0.1292l-5.2247,5.4742l4.5076,6.0621   l-2.1024-0.1292l-3.9375-5.2069l-1.2026-0.0802l-0.3073,4.9486l-1.6347-0.1025l0.3029-4.9441l-1.2204-0.0802l0.1069-1.6391   l1.216,0.0713l0.3073-4.9441L113.9526,23.7756z"/>
	<path fill="#FDB927" d="M123.1237,30.2474c0.726-3.1936,3.8974-5.2158,7.0509-4.4987c3.1535,0.7171,5.1223,3.9063,4.3918,7.1043   c-0.7216,3.1936-3.8751,5.2024-7.0287,4.4853C124.3842,36.6213,122.3977,33.4455,123.1237,30.2474z M129.8094,27.3523   c-2.2805-0.5122-4.5432,0.9576-5.0688,3.2649c-0.5167,2.2894,0.8908,4.5833,3.1625,5.1178   c2.2761,0.5122,4.5699-0.9354,5.0955-3.2382C133.5241,30.1717,132.081,27.8734,129.8094,27.3523z"/>
	<path fill="#FDB927" d="M140.7131,28.8355l2.8462,7.6255l7.5676-2.9487l-4.7303,10.5474l-1.4788-0.6681l3.0377-6.7881   l-5.4073,2.1024l-2.04-5.4385l-3.0377,6.7836l-1.4877-0.6681L140.7131,28.8355z"/>
	<path fill="#FDB927" d="M158.111,52.0148l-1.461-1.0334l0.588-3.639l-3.7147-2.6369l-3.2515,1.7549l-1.4743-1.0467l3.2381-1.7549   l-0.6547-0.4677l0.9487-1.3407l1.3451,0.9488l6.4674-3.5099L158.111,52.0148z M158.1377,42.1222l-3.0466,1.6792l2.4676,1.746   L158.1377,42.1222z"/>
	<path fill="#FDB927" d="M166.0661,59.9877l-1.0512-1.265l3.8216-3.1624l0,0l1.265-1.0512l0,0l3.8217-3.158l3.9018,4.708   c1.1403,1.3763,0.9621,3.443-0.4677,4.6323c-1.3853,1.1403-3.4787,0.9576-4.619-0.4187l-2.8595-3.4475L166.0661,59.9877z    M174.0033,59.2216c0.5791,0.6948,1.5679,0.8151,2.3073,0.2005c0.7127-0.5879,0.8196-1.6169,0.2405-2.3117l-2.8506-3.4475   l-2.5478,2.1113L174.0033,59.2216z"/>
	<path fill="#FDB927" d="M177.1613,76.1295l-0.9131-1.5322l2.0044-3.0912l-2.334-3.9108l-3.6791,0.2851l-0.9265-1.55l3.6747-0.2984   l-0.4143-0.6904l1.4164-0.8418l0.8374,1.4075l7.3404-0.5924L177.1613,76.1295z M181.1834,67.0965l-3.4653,0.3029l1.55,2.6012   L181.1834,67.0965z"/>
	<path fill="#FDB927" d="M180.5777,84.53l3.6791-4.1602l-0.9086-2.2805l-4.6056,1.8351l-0.6058-1.5233l4.6056-1.8351l0,0   l1.5322-0.6102l0,0l4.6056-1.8307l2.2627,5.6835c0.6592,1.6658-0.1915,3.59-1.8707,4.2582c-1.6391,0.6548-3.59-0.1114-4.267-1.8173   l-3.7058,4.1067L180.5777,84.53z M188.6664,82.5435c0.9086-0.3563,1.2472-1.363,0.9443-2.1246l-1.6569-4.1557l-3.0733,1.2204   l1.6525,4.1602C186.8714,82.4945,187.8468,82.8687,188.6664,82.5435z"/>
	<path fill="#FDB927" d="M194.2073,89.8126l-4.8461,1.0467l0.2583,1.1803l5.7369,3.109l0.4454,2.0578l-6.6812-3.5455l-4.6145,5.9864   l-0.4454-2.0578l3.9464-5.2024l-0.2494-1.1803l-4.8461,1.0512l-0.3474-1.608l4.8417-1.0467l-0.2539-1.1937l1.6035-0.3519   l0.2584,1.1982l4.8461-1.0467L194.2073,89.8126z"/>
</g>
<g>
	<g>
		<g>
			<path fill="#004990" d="M97.9333,175.6796c-0.1849,0.0089-0.1849-0.1603,0-0.1603c0.6325,0,0.6748-0.2004,0.6592-0.5167     c-0.0846-1.8173-0.0557-3.5499-0.1136-4.4541c-0.0133-0.343,0.0713-0.4855-0.559-0.2405     c-0.1715,0.0713-0.2851-0.1292-0.1136-0.2004c1-0.4009,1.9487-0.8418,2.893-1.3585c0.1559-0.0891,0.2717,0.098,0.1002,0.1871     c-0.5456,0.3118-0.6303,0.6993-0.6459,1.0022c-0.0713,0.8953-0.0846,2.2449-0.0423,5.0644c0,0.3474,0.1136,0.5167,0.7439,0.5167     c0.1871,0,0.2004,0.1692,0,0.1603C100.0268,175.6083,98.7796,175.6172,97.9333,175.6796z"/>
			<path fill="#004990" d="M100.8703,175.7174l-0.0167-0.0006c-0.3819-0.0329-0.8658-0.0501-1.4007-0.0501     c-0.5399,0-1.0787,0.0178-1.5168,0.0501l-0.0167,0.0006c-0.0702,0-0.1246-0.0245-0.1492-0.0674     c-0.0175-0.0301-0.0173-0.0651,0.0004-0.0958c0.0266-0.0462,0.0859-0.0724,0.1627-0.0724c0.289,0,0.4632-0.0418,0.5481-0.1308     c0.0722-0.076,0.0817-0.1846,0.0738-0.3466c-0.0452-0.9716-0.0579-1.9047-0.069-2.7279     c-0.0095-0.7004-0.0177-1.3056-0.0445-1.7257c-0.0017-0.0423-0.002-0.0807-0.0021-0.1161     c-0.001-0.1748-0.0088-0.2124-0.0894-0.2124c-0.0741,0-0.2027,0.037-0.4167,0.1203c-0.1066,0.0448-0.228-0.0086-0.2469-0.1047     c-0.0109-0.054,0.0111-0.1258,0.1055-0.1651c1.0314-0.4134,1.9764-0.8571,2.8893-1.3568     c0.0985-0.0565,0.2146-0.0167,0.2369,0.0752c0.0132,0.0537-0.0065,0.1286-0.1015,0.1779     c-0.5256,0.3004-0.6106,0.6767-0.6258,0.971c-0.0725,0.9114-0.0839,2.283-0.0422,5.0618c0,0.3321,0.1019,0.4799,0.7064,0.4799     c0.12,0,0.1828,0.0618,0.1828,0.123c0,0.0326-0.018,0.0629-0.0491,0.0832C100.9594,175.7071,100.9184,175.7174,100.8703,175.7174     z M99.4529,175.5919c0.537,0,1.0231,0.0175,1.4056,0.0504l0.0118,0.0003c0.0331,0,0.0608-0.0061,0.0779-0.0173     c0.0056-0.0036,0.015-0.0111,0.015-0.0203c0-0.017-0.0317-0.0484-0.108-0.0484c-0.6567,0-0.7813-0.1946-0.7813-0.554     c-0.0418-2.7808-0.0302-4.1543,0.0424-5.0674c0.016-0.3121,0.1062-0.7124,0.6646-1.0317     c0.0493-0.0256,0.0729-0.0607,0.0646-0.0947c-0.0056-0.0228-0.0281-0.0459-0.0657-0.0459c-0.0196,0-0.0405,0.0061-0.0621,0.0186     c-0.9162,0.5011-1.8638,0.9462-2.8976,1.3607c-0.0448,0.0186-0.0671,0.0482-0.0604,0.0813     c0.0082,0.042,0.0725,0.0796,0.1457,0.0498c0.2269-0.0883,0.3597-0.1258,0.4446-0.1258c0.1627,0,0.1634,0.1331,0.1641,0.287     c0.0003,0.0345,0.0004,0.0721,0.0019,0.1125c0.027,0.4212,0.0352,1.027,0.0447,1.7288c0.0111,0.8226,0.0238,1.7549,0.0689,2.7251     c0.0072,0.1456,0.0058,0.2965-0.0942,0.4017c-0.1013,0.1066-0.2871,0.1539-0.6023,0.1539c-0.0574,0-0.0887,0.0189-0.098,0.0351     c-0.0042,0.0075-0.0043,0.0142-0.0004,0.0212c0.0084,0.0145,0.0349,0.0298,0.0845,0.0298l0.0121-0.0003     C98.3705,175.61,98.9111,175.5919,99.4529,175.5919z"/>
		</g>
		<g>
			<path fill="#004990" d="M103.06,169.2745c0-1.069,1.0735-1.9598,2.5211-1.9598c1.2026,0,2.1335,0.7305,2.1335,1.7906     c0,0.7305-0.588,1.1893-1.1603,1.5055c1.3741,0.5701,1.873,1.5723,1.873,2.677c0,1.4164-1.216,2.5344-2.8172,2.5344     c-1.4186,0-2.9086-0.9309-2.9086-2.3518c0-1.0245,0.5746-1.4877,1.5478-2.1424     C103.4475,170.9136,103.06,170.1921,103.06,169.2745z M104.5922,171.5238c-0.5011,0.2316-0.7572,0.6191-0.7572,1.216     c0,1.893,0.9131,2.7348,2.0311,2.7348c0.9309,0,1.3318-0.7127,1.3318-1.7995     C107.1979,172.7131,106.3828,172.2588,104.5922,171.5238z M106.2982,170.5083c0.2695-0.245,0.3118-0.7305,0.3118-1.1269     c0-1.02-0.5723-1.6926-1.3741-1.6926c-0.7728,0-1.1024,0.4722-1.1024,1.0022     C104.1335,169.5061,104.6769,169.7778,106.2982,170.5083z"/>
			<path fill="#004990" d="M105.61,175.8594c-0.7225,0-1.4547-0.2369-2.0087-0.6503c-0.6044-0.4513-0.9373-1.0687-0.9373-1.7388     c0-1.027,0.5701-1.5016,1.5127-2.1385c-0.7554-0.4137-1.1542-1.1236-1.1542-2.0573c0-1.1199,1.1238-1.9971,2.5585-1.9971     c1.2579,0,2.171,0.7686,2.171,1.8279c0,0.7603-0.6162,1.2177-1.113,1.5008c1.2115,0.5267,1.8256,1.4284,1.8256,2.6817     C108.4647,174.7297,107.2107,175.8594,105.61,175.8594z M105.5811,167.352c-1.3928,0-2.4836,0.8446-2.4836,1.9225     c0,0.9265,0.4042,1.6249,1.1689,2.0202l0.0562,0.0289l-0.0525,0.0351c-0.9528,0.6411-1.5312,1.1032-1.5312,2.1115     c0,1.113,1.0977,2.3145,2.8711,2.3145c1.5588,0,2.7798-1.0968,2.7798-2.4971c0-1.2441-0.6223-2.133-1.8499-2.6424l-0.0717-0.0298     l0.0679-0.0376c0.4898-0.2706,1.141-0.7177,1.141-1.4727C107.6772,168.0894,106.7957,167.352,105.5811,167.352z      M105.8661,175.512c-0.4852,0-2.0685-0.1999-2.0685-2.7721c0-0.5988,0.2549-1.0078,0.7789-1.2499l0.0149-0.007l0.015,0.0064     c1.7869,0.7333,2.6289,1.1881,2.6289,2.1859C107.2354,174.877,106.7618,175.512,105.8661,175.512z M104.5932,171.5648     c-0.4849,0.2294-0.7207,0.6141-0.7207,1.1751c0,1.6889,0.7452,2.6975,1.9936,2.6975c1.0698,0,1.2943-0.9582,1.2943-1.7622     C107.1605,172.7253,106.3383,172.2816,104.5932,171.5648z M106.3052,170.5526l-0.0223-0.0103     c-1.6613-0.7483-2.1868-1.0245-2.1868-1.8513c0-0.5025,0.2994-1.0395,1.1398-1.0395c0.8311,0,1.4115,0.7113,1.4115,1.7299     c0,0.3691-0.0337,0.8905-0.324,1.1544L106.3052,170.5526z M105.2359,167.7261c-0.7852,0-1.065,0.4986-1.065,0.9649     c0,0.777,0.51,1.0473,2.1198,1.7728c0.2522-0.2494,0.2819-0.7352,0.2819-1.0824     C106.5725,168.3915,106.0354,167.7261,105.2359,167.7261z"/>
		</g>
		<g>
			<path fill="#004990" d="M110.1221,172.0984c0-1.7059,1.4164-3.011,3.3851-3.011c1.9242,0,3.3406,1.2917,3.3406,3.011     c0,1.0155-0.4276,1.7905-1.2472,2.7616c-1.0868,1.3051-2.1023,2.4052-3.305,3.0778c-0.2494,0.1292-1.55,0.4587-1.7327-0.1425     c-0.0312-0.1114,0.6993-0.1826,1.1892-0.3608c0.8819-0.294,1.7149-0.9265,2.5923-1.7995     c0.1425-0.1425,0.4276-0.5879,0.4276-0.5879s-0.2851,0.0846-0.4454,0.1158c-0.2584,0.0401-0.4722,0.0713-0.7038,0.0713     C111.6365,175.2341,110.1221,173.8177,110.1221,172.0984z M114.1664,174.8199c0.8463,0,1.3095-0.6904,1.3095-1.9197     c0-1.7193-1.0334-3.4386-2.3518-3.4386c-0.8151,0-1.4743,0.7171-1.4743,2.0222     C111.6499,173.4124,112.9104,174.8199,114.1664,174.8199z"/>
			<path fill="#004990" d="M111.2715,178.1822c-0.4121,0-0.6695-0.13-0.7443-0.3761c-0.005-0.0178-0.0025-0.0354,0.0071-0.0515     c0.0384-0.0643,0.2041-0.1036,0.5179-0.1732c0.2234-0.0495,0.4767-0.1055,0.6872-0.1821     c0.7992-0.2664,1.6185-0.8354,2.5787-1.7908c0.1008-0.1008,0.2784-0.3622,0.3677-0.4977     c-0.098,0.0278-0.2492,0.0688-0.3519,0.0888c-0.272,0.0423-0.4813,0.0718-0.711,0.0718c-1.984,0-3.5384-1.3936-3.5384-3.173     c0-1.738,1.4714-3.0483,3.4226-3.0483c1.9259,0,3.3779,1.3103,3.3779,3.0483c0,1.0807-0.4805,1.8671-1.2558,2.7858     c-1.1528,1.3841-2.158,2.4389-3.3153,3.0862C112.1665,178.0466,111.6936,178.1819,111.2715,178.1822z M114.8579,174.9828     l-0.0543,0.0844c-0.0117,0.0184-0.289,0.4507-0.4326,0.5943c-0.9688,0.9641-1.7972,1.5386-2.6071,1.8084     c-0.2138,0.0779-0.4696,0.1347-0.6955,0.1848c-0.199,0.044-0.4467,0.0988-0.4699,0.1384     c0.0813,0.2583,0.4109,0.3143,0.673,0.3143c0.4042,0,0.8705-0.132,1.0069-0.2027c1.1464-0.6411,2.1458-1.6906,3.2936-3.0686     c0.7647-0.9059,1.2385-1.6798,1.2385-2.7376c0-1.6954-1.42-2.9737-3.3033-2.9737c-1.9086,0-3.3477,1.2784-3.3477,2.9737     c0,1.7374,1.5212,3.0984,3.4635,3.0984c0.2244,0,0.4307-0.0295,0.6979-0.071c0.1553-0.0301,0.4379-0.1139,0.4407-0.1147     L114.8579,174.9828z M114.1664,174.8572c-1.2335,0-2.5539-1.3555-2.5539-3.3735c0-1.2318,0.6074-2.0595,1.5116-2.0595     c0.6353,0,1.2396,0.3875,1.7015,1.0913c0.4371,0.6659,0.6876,1.535,0.6876,2.3846     C115.5133,174.1624,115.035,174.8572,114.1664,174.8572z M113.1242,169.4989c-0.8594,0-1.437,0.7978-1.437,1.9849     c0,1.9732,1.282,3.2989,2.4793,3.2989c0.8204,0,1.2722-0.6687,1.2722-1.8824     C115.4386,170.8958,114.2188,169.4989,113.1242,169.4989z"/>
		</g>
		<g>
			<path fill="#004990" d="M125.5245,172.5171c0,1.844-1.6748,3.3317-3.5232,3.3317c-1.8485,0-3.5054-1.4342-3.5054-3.3317     c0-1.9375,1.5857-3.3584,3.5054-3.3584C123.921,169.1587,125.5245,170.6642,125.5245,172.5171z M121.3554,169.564     c-1.069,0-1.363,0.9754-1.363,2.1736c0,2.1959,1.1937,3.7637,2.5656,3.7637c0.8908,0,1.4431-0.7527,1.4431-2.2449     C124.0012,170.9671,122.5847,169.564,121.3554,169.564z"/>
			<path fill="#004990" d="M122.0013,175.8861c-1.9534,0-3.5427-1.5114-3.5427-3.369c0-1.9041,1.5562-3.3957,3.5427-3.3957     c1.9634,0,3.5605,1.5233,3.5605,3.3957C125.5618,174.3433,123.9313,175.8861,122.0013,175.8861z M122.0013,169.196     c-1.9448,0-3.4681,1.4587-3.4681,3.3211c0,1.8165,1.5559,3.2944,3.4681,3.2944c1.8894,0,3.4859-1.5086,3.4859-3.2944     C125.4872,170.6859,123.9232,169.196,122.0013,169.196z M122.558,175.5387c-1.4596,0-2.6029-1.6695-2.6029-3.8011     c0-1.4877,0.4579-2.2109,1.4003-2.2109c0.6447,0,1.3056,0.365,1.8131,1.0016c0.5609,0.7038,0.8699,1.6728,0.8699,2.7282     C124.0385,174.7283,123.5129,175.5387,122.558,175.5387z M121.3554,169.6013c-0.8919,0-1.3257,0.6987-1.3257,2.1363     c0,2.0896,1.1105,3.7264,2.5283,3.7264c0.9064,0,1.4058-0.7839,1.4058-2.2076     C123.9639,171.4913,122.9158,169.6013,121.3554,169.6013z"/>
		</g>
	</g>
</g>
<polygon fill="#004990" points="88.789,187.6389 89.5194,184.6591 88.1253,185.207 87.7868,187.0198 "/>
<path fill="#FDB927" d="M68.5716,170.1475l1.4476,7.1934l7.1533-1.5768l-5.7102,8.7479l-1.2249-0.8018l3.6724-5.6256l-5.1067,1.118  l-1.0423-5.1312l-3.6747,5.6211l-1.2249-0.7973L68.5716,170.1475z"/>
<path fill="#FDB927" d="M84.4195,190.3827l-1.4832-0.628l-0.1826-3.3228l-3.7771-1.5946l-2.5255,2.1825l-1.4966-0.6369l2.5121-2.187  l-0.6659-0.2762l0.5768-1.3719l1.363,0.5746l5.0198-4.3606L84.4195,190.3827z M82.5376,181.6526l-2.3563,2.0801l2.5099,1.0556  L82.5376,181.6526z"/>
<path fill="#FDB927" d="M93.7375,192.8547l-1.1313-4.8862l-2.138-0.5211l-1.0646,4.3472l-1.4365-0.3519l1.0668-4.3517l0,0  l0.3519-1.4431l0,0l1.0645-4.3517l5.3494,1.3051c1.5612,0.3831,2.5344,2.0222,2.1447,3.6079  c-0.3764,1.5456-1.962,2.5834-3.5655,2.1914l1.0734,4.8773L93.7375,192.8547z M96.508,185.8573  c0.2116-0.8596-0.3452-1.6302-1.0645-1.8039l-3.9108-0.9621l-0.7104,2.9041l3.9129,0.9576  C95.537,187.1534,96.3209,186.6278,96.508,185.8573z"/>
<path fill="#FDB927" d="M103.7014,194.2979l0.2049-2.8239l-3.8417-7.9194l1.6191,0.1203l3.0778,6.2091l3.9441-5.6969l1.6035,0.1158  l-4.9419,7.2781l-0.2049,2.8239L103.7014,194.2979z"/>
<path fill="#FDB927" d="M113.9259,184.0489l0.8017,8.9216l5.1223-0.4632l-0.098-1.1135l1.4521-0.1337l0.2405,2.6012l-8.0353,0.7216  l-0.9443-10.4049L113.9259,184.0489z"/>
<path fill="#FDB927" d="M134.9762,190.9038l-1.5679,0.3831l-2.1291-2.5567l-3.982,0.9666l-0.7305,3.256l-1.5723,0.3831  l0.7171-3.2515l-0.7038,0.1693l-0.3563-1.4476l1.4342-0.3474l1.4342-6.4897L134.9762,190.9038z M128.2593,185.0154l-0.6503,3.0733  l2.6458-0.6414L128.2593,185.0154z"/>
<path fill="#FDB927" d="M134.7,179.9912l9.3403,3.403l-2.5701-6.2091l1.363-0.5657l3.9998,9.6521l-9.3537-3.394l2.5656,6.2091  l-1.3541,0.5568L134.7,179.9912z"/>
<path fill="#FDB927" d="M145.4523,175.2876l3.1535-1.893c2.4319-1.4699,5.6078-0.6281,7.091,1.8306  c1.4698,2.4676,0.7973,5.6078-1.697,7.1133l-3.1491,1.9019L145.4523,175.2876z M151.3318,182.2093l1.8974-1.1491  c1.7371-1.0423,2.2716-3.3273,1.2115-5.0822c-1.0601-1.7638-3.3317-2.3563-5.0688-1.3095l-1.8975,1.1447L151.3318,182.2093z"/>
</svg>