<?xml version="1.0" encoding="UTF-8"?>
<svg xmlns="http://www.w3.org/2000/svg" xmlns:xlink="http://www.w3.org/1999/xlink" width="16pt" height="16pt" viewBox="0 0 12 12" version="1.1">
<g id="surface915898">
<path style=" stroke:none;fill-rule:nonzero;fill:rgb(100%,100%,100%);fill-opacity:1;" d="M 11 2 C 10.609375 2.230469 9.828125 2.546875 9.367188 2.636719 C 9.355469 2.640625 9.34375 2.644531 9.328125 2.648438 C 8.921875 2.246094 8.367188 2 7.75 2 C 6.507812 2 5.5 3.007812 5.5 4.25 C 5.5 4.316406 5.496094 4.433594 5.5 4.5 C 3.824219 4.5 2.546875 3.621094 1.632812 2.5 C 1.53125 2.75 1.488281 3.144531 1.488281 3.515625 C 1.488281 4.214844 2.035156 4.902344 2.890625 5.332031 C 2.734375 5.371094 2.558594 5.398438 2.378906 5.398438 C 2.089844 5.398438 1.78125 5.324219 1.5 5.089844 C 1.5 5.101562 1.5 5.109375 1.5 5.117188 C 1.5 6.097656 2.539062 6.761719 3.464844 6.949219 C 3.277344 7.058594 2.898438 7.070312 2.714844 7.070312 C 2.582031 7.070312 2.121094 7.011719 2 6.988281 C 2.257812 7.789062 3.183594 8.242188 4.066406 8.257812 C 3.375 8.796875 2.898438 9 1.480469 9 L 1 9 C 1.894531 9.574219 3.03125 10 4.171875 10 C 7.886719 10 10 7.167969 10 4.5 C 10 4.457031 10 4.367188 9.996094 4.277344 C 9.996094 4.265625 10 4.257812 10 4.25 C 10 4.234375 9.996094 4.222656 9.996094 4.210938 C 9.996094 4.140625 9.992188 4.078125 9.992188 4.046875 C 10.386719 3.761719 10.730469 3.40625 11 3 C 10.636719 3.160156 10.25 3.269531 9.839844 3.316406 C 10.257812 3.066406 10.847656 2.472656 11 2 Z M 9 4.5 C 9 6.539062 7.523438 8.699219 4.765625 8.972656 C 5.140625 8.707031 5.5 8.332031 5.5 8.332031 C 5.5 8.332031 4 7 3.886719 5.261719 C 4.40625 5.417969 4.945312 5.5 5.5 5.5 L 6.5 5.5 L 6.5 4.25 C 6.5 3.558594 7.058594 3 7.75 3 C 8.441406 3 9 3.558594 9 4.25 C 9 4.25 9 4.460938 9 4.5 Z M 9 4.5 "/>
</g>
</svg>
