<?xml version="1.0" encoding="UTF-8"?>
<svg xmlns="http://www.w3.org/2000/svg" xmlns:xlink="http://www.w3.org/1999/xlink" width="16pt" height="16pt" viewBox="0 0 12 12" version="1.1">
<g id="surface916682">
<path style=" stroke:none;fill-rule:nonzero;fill:rgb(100%,100%,100%);fill-opacity:1;" d="M 4 1.5 C 2.621094 1.5 1.5 2.621094 1.5 4 L 1.5 8 C 1.5 9.378906 2.621094 10.5 4 10.5 L 8 10.5 C 9.378906 10.5 10.5 9.378906 10.5 8 L 10.5 4 C 10.5 2.621094 9.378906 1.5 8 1.5 Z M 4 2.5 L 8 2.5 C 8.828125 2.5 9.5 3.171875 9.5 4 L 9.5 8 C 9.5 8.828125 8.828125 9.5 8 9.5 L 4 9.5 C 3.171875 9.5 2.5 8.828125 2.5 8 L 2.5 4 C 2.5 3.171875 3.171875 2.5 4 2.5 Z M 8.5 3 C 8.222656 3 8 3.222656 8 3.5 C 8 3.777344 8.222656 4 8.5 4 C 8.777344 4 9 3.777344 9 3.5 C 9 3.222656 8.777344 3 8.5 3 Z M 6 3.5 C 4.621094 3.5 3.5 4.621094 3.5 6 C 3.5 7.378906 4.621094 8.5 6 8.5 C 7.378906 8.5 8.5 7.378906 8.5 6 C 8.5 4.621094 7.378906 3.5 6 3.5 Z M 6 4.5 C 6.828125 4.5 7.5 5.171875 7.5 6 C 7.5 6.828125 6.828125 7.5 6 7.5 C 5.171875 7.5 4.5 6.828125 4.5 6 C 4.5 5.171875 5.171875 4.5 6 4.5 Z M 6 4.5 "/>
</g>
</svg>
