<?xml version="1.0" encoding="UTF-8"?>
<svg xmlns="http://www.w3.org/2000/svg" xmlns:xlink="http://www.w3.org/1999/xlink" width="16pt" height="16pt" viewBox="0 0 12 12" version="1.1">
<g id="surface916141">
<path style=" stroke:none;fill-rule:nonzero;fill:rgb(100%,100%,100%);fill-opacity:1;" d="M 6 2 C 6 2 2.871094 2 2.09375 2.210938 C 1.664062 2.324219 1.324219 2.664062 1.210938 3.09375 C 1 3.871094 1 6 1 6 C 1 6 1 8.128906 1.210938 8.90625 C 1.324219 9.335938 1.664062 9.675781 2.09375 9.789062 C 2.871094 10 6 10 6 10 C 6 10 9.128906 10 9.90625 9.789062 C 10.335938 9.675781 10.675781 9.335938 10.789062 8.90625 C 11 8.128906 11 6 11 6 C 11 6 11 3.871094 10.789062 3.09375 C 10.675781 2.664062 10.335938 2.324219 9.90625 2.210938 C 9.128906 2 6 2 6 2 Z M 6 3 C 7.441406 3 9.246094 3.066406 9.648438 3.175781 C 9.734375 3.199219 9.800781 3.265625 9.824219 3.351562 C 9.945312 3.800781 10 5.171875 10 6 C 10 6.828125 9.945312 8.199219 9.824219 8.648438 C 9.800781 8.734375 9.734375 8.800781 9.648438 8.824219 C 9.246094 8.933594 7.441406 9 6 9 C 4.558594 9 2.753906 8.933594 2.351562 8.824219 C 2.265625 8.800781 2.199219 8.734375 2.175781 8.648438 C 2.054688 8.199219 2 6.828125 2 6 C 2 5.171875 2.054688 3.800781 2.175781 3.351562 C 2.199219 3.265625 2.265625 3.199219 2.351562 3.175781 C 2.753906 3.066406 4.558594 3 6 3 Z M 5 4.269531 L 5 7.730469 L 8 6 Z M 5 4.269531 "/>
</g>
</svg>
