<?xml version="1.0" standalone="no"?>
<!DOCTYPE svg PUBLIC "-//W3C//DTD SVG 20010904//EN"
 "http://www.w3.org/TR/2001/REC-SVG-20010904/DTD/svg10.dtd">
<svg version="1.0" xmlns="http://www.w3.org/2000/svg"
 width="1486.000000pt" height="577.000000pt" viewBox="0 0 1486.000000 577.000000"
 preserveAspectRatio="xMidYMid meet">

<g transform="translate(0.000000,577.000000) scale(0.100000,-0.100000)"
fill="#000000" stroke="none">
<path d="M1943 4773 c4 -1082 4 -1074 63 -1361 152 -743 614 -1336 1300 -1669
72 -35 175 -79 230 -98 l99 -35 -3 -32 c-4 -43 -52 -144 -89 -187 l-30 -35
-49 36 c-114 83 -228 121 -364 121 -181 0 -351 -80 -430 -202 l-33 -50 -65 25
c-306 115 -461 226 -536 384 -28 59 -31 74 -30 160 0 75 5 108 24 155 25 65
66 135 78 135 13 0 69 -102 87 -159 26 -81 23 -190 -8 -279 l-25 -73 24 -15
c36 -24 50 -12 75 63 33 96 34 249 0 346 -24 71 -82 165 -126 207 l-27 25 -49
-53 c-92 -100 -133 -224 -128 -384 2 -53 0 -94 -4 -91 -29 18 -172 198 -201
252 -55 105 -81 232 -70 341 l6 66 57 29 c114 59 222 195 256 326 20 72 19
205 -1 285 -19 75 -14 74 -134 17 -218 -105 -335 -362 -274 -598 15 -56 25
-265 14 -265 -9 0 -136 239 -181 340 -40 93 -139 373 -139 396 0 6 17 14 38
18 106 17 255 122 323 227 61 95 97 237 84 332 -7 46 -7 47 -44 47 -95 0 -235
-60 -321 -137 -56 -50 -114 -133 -138 -198 -9 -25 -20 -45 -23 -45 -12 0 -24
110 -23 215 1 108 19 193 60 285 l25 57 77 11 c248 38 442 242 466 490 l6 62
-83 0 c-153 0 -281 -53 -386 -159 -96 -96 -150 -216 -151 -332 0 -27 -10 -70
-25 -102 -37 -86 -57 -172 -64 -286 l-6 -104 -52 70 c-111 149 -257 255 -391
282 -148 31 -313 -5 -430 -92 l-33 -25 39 -48 c163 -207 434 -270 664 -155
l60 31 22 -27 c91 -112 166 -263 234 -469 161 -487 366 -852 652 -1157 l63
-68 -174 89 c-275 140 -446 200 -637 224 -253 31 -440 -73 -523 -292 l-19 -50
25 -10 c13 -5 54 -14 90 -21 177 -31 366 65 454 231 24 45 37 60 49 56 9 -3
46 -12 82 -21 36 -9 107 -33 158 -53 l94 -35 -79 -27 c-216 -72 -361 -255
-380 -477 l-6 -73 49 0 c125 1 283 60 377 141 26 23 66 69 89 102 40 59 87
172 88 212 1 53 12 50 189 -46 l172 -93 -80 -26 c-44 -15 -102 -41 -130 -59
-72 -46 -154 -139 -194 -220 -34 -67 -67 -204 -54 -218 14 -14 183 -6 242 11
136 40 268 141 328 253 28 53 28 56 -16 72 -25 10 -28 8 -48 -31 -30 -58 -125
-150 -187 -182 -61 -31 -152 -56 -203 -56 -33 0 -37 2 -32 23 3 12 20 54 39
93 73 155 244 264 417 264 49 0 72 -7 165 -53 59 -30 137 -67 175 -83 63 -27
84 -44 54 -44 -23 0 -131 -75 -175 -120 -78 -81 -132 -212 -132 -320 l0 -56
85 7 c202 16 380 168 426 364 6 28 13 55 15 61 2 9 21 7 71 -4 48 -11 121 -16
253 -16 209 -1 277 12 412 80 l71 36 19 -24 c50 -62 123 -246 105 -264 -3 -3
-42 3 -88 12 -240 48 -490 -54 -626 -256 -50 -74 -50 -73 44 -116 48 -21 79
-31 165 -48 l26 -6 -20 -52 c-13 -34 -22 -88 -26 -147 l-5 -94 80 6 c95 7 194
38 270 84 31 18 57 32 59 31 1 -2 10 -34 18 -72 20 -86 76 -192 135 -258 l45
-51 54 59 c59 64 123 187 142 272 7 28 13 52 15 52 1 0 29 -16 61 -35 77 -47
170 -75 268 -82 l79 -6 -5 89 c-3 51 -14 113 -26 146 l-20 57 36 7 c83 13 232
73 232 93 0 18 -80 128 -121 167 -141 134 -359 199 -534 160 -38 -8 -80 -18
-92 -22 l-22 -6 15 64 c16 69 60 167 96 211 l23 29 71 -36 c135 -67 205 -81
414 -80 131 0 205 5 252 16 l67 15 11 -51 c32 -157 161 -307 310 -362 25 -9
82 -19 128 -23 l82 -7 -1 51 c0 73 -30 173 -69 239 -44 73 -130 154 -198 186
-29 14 -52 27 -52 31 0 3 26 16 58 29 31 13 97 43 146 67 48 24 90 42 92 40 2
-2 11 -29 19 -61 32 -121 106 -227 211 -302 92 -66 177 -95 293 -102 l94 -5
-7 59 c-29 240 -161 410 -377 488 l-60 22 179 97 c171 93 181 97 240 97 118 0
237 -56 330 -153 54 -58 75 -93 103 -174 l18 -53 -37 0 c-54 0 -147 26 -206
58 -64 34 -157 124 -185 180 -12 23 -26 42 -31 42 -14 0 -60 -22 -60 -29 0
-22 73 -125 119 -171 105 -103 226 -150 383 -150 111 0 107 -5 87 92 -37 180
-195 357 -361 406 -32 9 -58 20 -58 23 0 8 167 72 240 92 116 32 106 34 137
-30 56 -115 171 -201 305 -229 74 -16 120 -14 211 8 38 10 47 16 47 33 0 41
-63 149 -119 205 -107 106 -229 142 -411 122 -201 -23 -388 -91 -703 -258
-108 -57 -199 -104 -202 -104 -2 0 10 30 28 68 27 57 32 81 35 163 7 156 -35
278 -129 381 l-49 53 -43 -46 c-53 -57 -101 -147 -122 -224 -28 -110 -14 -270
33 -362 l17 -32 32 20 31 20 -18 42 c-31 70 -44 175 -32 248 13 74 80 214 102
214 9 0 31 -32 53 -75 95 -187 67 -361 -83 -511 -92 -92 -215 -161 -431 -242
l-66 -25 -38 52 c-142 196 -451 258 -690 139 -27 -14 -72 -41 -98 -60 -47 -33
-50 -34 -68 -17 -28 25 -75 104 -87 144 -27 92 -33 83 81 121 141 46 391 172
533 268 164 110 260 190 389 322 405 416 627 939 675 1584 6 81 10 522 10
1048 l0 907 -1771 0 -1770 0 4 -997z m3454 -65 c-3 -859 -5 -996 -20 -1086
-66 -407 -189 -738 -383 -1027 -172 -258 -439 -512 -707 -674 -128 -77 -339
-176 -460 -216 l-109 -35 -61 16 c-136 35 -352 132 -526 236 -267 161 -536
419 -716 688 -136 204 -271 528 -329 790 -62 284 -60 237 -63 1308 l-4 982
1691 0 1691 0 -4 -982z m-3694 -550 c-17 -94 -71 -186 -148 -257 -46 -42 -163
-104 -220 -115 -27 -6 -24 0 38 58 l68 65 -16 31 -16 31 -32 -22 c-18 -12 -51
-40 -74 -63 -50 -47 -53 -37 -16 42 64 136 246 256 395 261 26 1 27 -1 21 -31z
m-1107 -599 c80 -14 172 -60 231 -113 57 -52 55 -57 -43 -91 -161 -57 -353
-15 -468 103 l-38 40 42 22 c43 22 143 48 191 49 14 1 52 -4 85 -10z m1034
-158 c0 -50 -30 -148 -63 -203 -54 -93 -193 -194 -294 -214 -32 -6 -33 -6 -33
27 1 93 48 204 121 284 56 60 95 88 178 121 81 34 91 32 91 -15z m286 -488
c17 -136 -43 -292 -148 -387 -34 -31 -65 -56 -69 -56 -17 0 49 148 101 227
l21 31 -30 22 -31 21 -37 -58 c-20 -32 -49 -86 -63 -121 -15 -34 -30 -65 -33
-69 -11 -11 -8 48 7 118 19 86 56 159 114 222 40 42 132 107 154 107 4 0 10
-26 14 -57z m-856 -1066 c0 -27 -63 -107 -110 -142 -66 -49 -145 -75 -223 -75
-35 0 -66 3 -70 6 -11 12 31 78 75 120 61 57 70 62 129 84 65 23 199 28 199 7z
m5518 -21 c67 -34 130 -92 160 -145 29 -51 22 -56 -81 -49 -117 8 -221 66
-279 157 -44 71 -42 74 60 69 70 -4 98 -10 140 -32z m-5008 -180 c0 -33 -40
-140 -70 -186 -44 -68 -123 -137 -196 -172 -65 -30 -169 -56 -180 -45 -12 12
27 134 58 184 63 101 149 171 257 209 76 27 131 31 131 10z m2225 -288 l46
-59 -34 -52 c-48 -73 -58 -93 -82 -170 l-22 -69 -12 48 c-14 56 -62 156 -97
201 -13 17 -24 35 -24 39 0 4 15 25 33 48 47 58 73 104 88 154 l13 43 22 -61
c12 -34 43 -89 69 -122z m-518 50 c66 -27 163 -85 163 -98 0 -13 -132 -68
-205 -86 -119 -30 -448 -19 -505 16 -26 16 61 103 150 151 104 55 284 63 397
17z m1135 21 c82 -17 169 -65 229 -125 42 -42 51 -57 40 -63 -58 -36 -397 -47
-511 -17 -73 19 -200 75 -200 87 0 21 133 92 213 114 64 17 158 19 229 4z
m973 -44 c169 -44 297 -171 349 -344 8 -29 14 -57 11 -61 -6 -10 -92 5 -145
26 -113 44 -208 131 -260 238 -30 62 -52 141 -42 151 8 8 23 6 87 -10z m-2765
-223 c0 -30 -36 -126 -63 -168 -53 -85 -179 -171 -276 -188 l-34 -6 6 40 c8
60 59 159 105 207 56 57 109 91 179 113 74 24 83 24 83 2z m2251 -2 c79 -27
123 -56 182 -119 53 -57 92 -133 103 -199 l7 -43 -29 6 c-50 11 -118 37 -154
60 -88 56 -175 184 -187 276 -7 46 -5 46 78 19z m-1336 -260 c15 -6 9 -10 -32
-24 -104 -34 -241 -139 -293 -222 -19 -30 -21 -31 -75 -23 -65 9 -155 39 -155
52 0 5 28 37 63 72 87 87 198 141 317 154 59 7 143 3 175 -9z m600 -5 c32 -9
86 -30 119 -48 60 -31 186 -144 186 -166 0 -10 -104 -45 -171 -55 -33 -6 -38
-3 -64 34 -61 88 -174 174 -279 212 -46 17 -55 23 -40 29 34 13 188 9 249 -6z
m-555 -137 c-41 -77 -70 -170 -70 -227 0 -45 -55 -98 -145 -141 -63 -30 -179
-59 -190 -48 -11 11 25 139 56 200 39 77 142 185 211 223 44 24 146 63 170 64
4 1 -10 -32 -32 -71z m292 52 c171 -53 335 -231 363 -395 4 -22 9 -48 12 -57
15 -56 -209 19 -297 99 -32 28 -40 42 -40 70 0 58 -29 154 -70 231 -22 39 -38
72 -36 72 2 0 33 -9 68 -20z m-118 -52 c62 -99 80 -160 80 -283 1 -77 -4 -127
-16 -165 -21 -67 -91 -185 -109 -185 -17 0 -71 89 -101 165 -19 46 -22 75 -22
175 0 107 3 128 26 188 29 71 82 157 99 157 5 0 24 -24 43 -52z"/>
<path d="M2130 4728 c0 -525 4 -897 11 -968 68 -735 407 -1321 984 -1703 189
-125 500 -267 585 -267 85 0 396 142 585 267 578 382 911 957 985 1702 6 62
10 447 10 962 l0 859 -1580 0 -1580 0 0 -852z m1540 -53 l0 -835 -729 0 -728
0 -7 53 c-8 70 -8 1602 1 1610 3 4 334 7 735 7 l728 0 0 -835z m875 825 c-3
-5 -11 -10 -16 -10 -5 0 -59 -23 -119 -50 l-109 -50 -68 26 c-38 14 -115 38
-172 55 -57 16 -107 31 -109 34 -3 3 131 5 297 5 199 0 300 -3 296 -10z m670
-30 l0 -34 -125 -28 c-123 -27 -317 -86 -435 -132 l-60 -23 -98 48 -98 48 40
20 c51 26 119 54 251 102 l105 38 210 -2 210 -2 0 -35z m-1300 -39 c218 -54
427 -133 615 -233 116 -62 234 -137 227 -145 -10 -9 -161 -73 -174 -73 -7 0
-57 24 -110 54 -182 100 -413 188 -625 236 l-98 22 0 84 c0 101 -10 98 165 55z
m1305 -159 l0 -89 -57 -12 c-32 -7 -115 -28 -184 -48 l-126 -35 -87 58 -87 58
48 18 c119 45 421 131 486 137 4 1 7 -39 7 -87z m-1345 -86 c155 -38 296 -90
464 -172 103 -50 151 -78 144 -85 -5 -5 -43 -29 -84 -52 l-75 -43 -90 43
c-112 53 -261 106 -384 137 l-95 24 -3 86 c-2 65 0 86 10 86 7 0 58 -11 113
-24z m1345 -171 l0 -84 -37 -10 c-21 -5 -66 -17 -100 -25 -191 -49 -483 -179
-659 -294 l-91 -60 -29 18 c-16 9 -53 31 -82 47 l-54 30 104 70 c230 156 492
279 738 347 230 63 210 66 210 -39z m-1347 -85 c142 -40 367 -129 367 -145 0
-2 -33 -29 -74 -59 l-73 -54 -89 33 c-49 19 -126 44 -171 57 l-83 23 0 87 c0
49 4 88 8 88 5 0 57 -13 115 -30z m1345 -167 l-3 -87 -99 -28 c-141 -41 -327
-120 -457 -194 l-112 -64 -69 51 c-37 28 -68 54 -68 58 0 13 201 128 320 185
149 70 413 162 478 165 10 1 12 -20 10 -86z m-1228 -134 c219 -84 482 -257
635 -419 l40 -42 -25 -16 c-13 -10 -44 -32 -68 -50 l-43 -33 -77 71 c-167 153
-390 286 -593 354 l-104 35 -3 90 -3 90 83 -26 c46 -14 117 -38 158 -54z
m1230 -123 l0 -84 -122 -42 c-67 -23 -177 -69 -245 -104 l-122 -62 -62 62 -61
61 91 52 c110 64 242 122 376 167 149 49 145 51 145 -50z m-1362 -92 c219 -82
438 -219 572 -358 l34 -36 -59 -60 -58 -59 -56 51 c-134 123 -298 226 -458
289 l-83 32 0 89 c0 48 2 88 5 88 3 0 50 -16 103 -36z m1362 -162 l0 -89 -87
-33 c-49 -18 -122 -50 -164 -71 -86 -42 -274 -166 -303 -198 -18 -19 -29 -21
-145 -21 l-126 1 86 82 c162 156 395 298 619 378 58 21 108 38 113 38 4 1 7
-39 7 -87z m-1366 -102 c128 -53 319 -184 410 -279 l30 -31 -127 0 -126 0 -63
44 c-35 24 -100 62 -145 85 l-83 41 0 91 c0 75 3 90 14 86 8 -3 49 -20 90 -37z
m1363 -186 c-3 -64 -7 -118 -10 -120 -2 -2 -103 -3 -223 -2 l-219 3 60 41 c87
59 187 113 290 156 49 20 94 38 99 38 5 0 7 -50 3 -116z m-1387 -79 c39 -19
70 -37 70 -40 0 -3 -34 -5 -75 -5 l-75 0 0 40 c0 22 2 40 5 40 3 0 37 -16 75
-35z m-160 -165 c0 -49 0 -49 -37 -56 -21 -3 -78 -25 -128 -48 -83 -38 -96
-41 -175 -41 -78 0 -91 3 -160 37 -159 78 -267 78 -428 0 -70 -34 -84 -37
-162 -37 -78 0 -92 3 -165 38 -45 21 -105 44 -135 50 l-55 12 -3 48 -3 47 725
0 726 0 0 -50z m1530 18 c0 -18 -7 -76 -15 -128 -107 -711 -507 -1280 -1125
-1603 -101 -53 -275 -127 -299 -127 -8 0 -11 251 -11 945 l0 945 725 0 725 0
0 -32z m-2065 -195 c78 -37 82 -38 195 -38 112 0 117 1 193 37 42 20 93 40
112 44 l35 6 0 -85 0 -85 -37 -7 c-21 -3 -78 -25 -128 -48 -82 -38 -97 -41
-170 -41 -74 0 -87 3 -175 44 -95 45 -96 45 -205 45 -109 0 -110 0 -205 -45
-88 -41 -101 -44 -175 -44 -69 0 -89 5 -150 33 -38 18 -88 39 -110 46 -43 13
-54 35 -69 138 -7 44 -6 47 15 47 12 0 63 -19 113 -42 90 -43 92 -43 206 -43
113 0 116 1 195 39 134 64 225 64 360 -1z m-2 -245 c91 -42 93 -43 202 -43
108 0 111 1 201 43 50 23 101 42 112 42 21 0 22 -5 22 -84 l0 -84 -44 -6 c-24
-4 -77 -23 -117 -42 -133 -64 -221 -63 -362 3 -78 37 -84 38 -192 38 -108 0
-114 -1 -192 -38 -137 -64 -235 -67 -350 -8 -42 21 -63 38 -71 58 -27 73 -50
153 -43 153 5 0 44 -17 87 -37 76 -37 83 -38 189 -38 108 0 112 1 200 42 107
49 121 53 203 48 49 -3 86 -15 155 -47z m-26 -236 c153 -78 271 -82 420 -14
48 22 100 43 116 46 l27 6 0 -88 0 -89 -43 -6 c-24 -3 -79 -23 -122 -44 -68
-32 -92 -38 -162 -41 -78 -4 -86 -2 -172 38 -162 74 -270 74 -431 0 -83 -38
-94 -41 -167 -38 l-78 3 -41 80 c-23 44 -45 90 -48 102 -7 22 -7 22 31 7 96
-40 240 -27 358 34 70 36 100 42 181 37 54 -2 85 -10 131 -33z m28 -259 c149
-70 266 -68 412 5 32 16 73 33 91 37 l32 7 0 -86 c0 -85 0 -86 -27 -92 -59
-13 -100 -28 -158 -58 -54 -28 -69 -31 -150 -31 -86 0 -94 2 -185 45 -93 43
-97 44 -195 44 -97 0 -103 -1 -191 -42 -50 -23 -95 -42 -100 -42 -9 1 -82 98
-102 136 -11 20 -8 22 56 28 45 5 95 19 152 45 47 22 92 41 100 45 8 3 51 4
95 3 70 -2 91 -8 170 -44z m-13 -244 c152 -70 271 -71 411 -4 40 19 87 37 105
41 l32 7 0 -86 0 -86 -37 -7 c-21 -3 -78 -25 -128 -48 -84 -38 -96 -41 -175
-41 -75 1 -92 5 -145 32 -116 60 -234 78 -330 52 l-40 -11 -52 57 -53 58 83
38 c73 35 90 39 161 39 72 0 88 -4 168 -41z m-111 -209 c30 -6 88 -27 129 -48
74 -36 77 -37 190 -37 114 0 116 0 206 43 50 23 101 42 112 42 21 0 22 -5 22
-84 l0 -83 -42 -7 c-22 -4 -73 -22 -112 -41 -201 -97 -318 -64 -580 159 l-60
51 30 6 c44 10 47 10 105 -1z m655 -468 c-7 -7 -112 32 -219 81 l-88 40 69 18
c39 10 94 30 123 45 30 15 68 30 84 34 l30 6 3 -109 c1 -60 0 -112 -2 -115z"/>
<path d="M2884 5298 c-91 -96 -134 -198 -134 -315 0 -74 7 -72 -135 -43 -53
11 -107 20 -120 20 -29 0 -55 -30 -55 -63 0 -26 13 -45 114 -160 32 -37 57
-69 55 -71 -2 -2 -24 -14 -49 -26 -59 -30 -152 -124 -183 -186 -22 -43 -57
-145 -57 -165 0 -12 134 -39 192 -39 71 0 161 24 227 61 29 17 55 28 58 26 2
-3 22 -56 44 -119 41 -115 56 -138 94 -138 35 0 60 39 94 140 17 52 35 101 39
108 6 9 22 5 63 -17 68 -37 157 -61 227 -61 53 0 192 27 192 37 0 3 -9 36 -20
73 -36 119 -125 231 -225 282 -22 11 -42 22 -44 24 -2 1 36 48 83 104 91 107
104 140 68 173 -24 22 -39 21 -157 -3 -141 -29 -135 -31 -135 38 0 122 -50
238 -140 327 l-46 46 -50 -53z m111 -134 c77 -132 66 -316 -27 -428 l-32 -39
-33 38 c-103 120 -104 344 -2 468 30 36 32 37 50 21 10 -9 30 -36 44 -60z
m-273 -320 c35 -6 40 -12 71 -75 l33 -69 -53 -2 c-29 -1 -59 -2 -67 -2 -11 -1
-166 164 -166 177 0 3 33 -2 73 -9 39 -8 89 -17 109 -20z m608 31 c0 -13 -155
-180 -167 -179 -7 0 -37 1 -67 2 l-54 2 34 68 34 67 107 22 c60 12 109 22 111
22 1 1 2 -1 2 -4z m-447 -264 c4 -4 -6 -35 -23 -68 -55 -109 -169 -192 -292
-212 -55 -9 -145 -4 -153 9 -10 16 58 130 104 173 58 55 117 87 191 104 54 12
157 9 173 -6z m262 8 c121 -22 231 -104 285 -211 16 -33 28 -64 25 -68 -8 -13
-98 -18 -153 -9 -116 18 -231 98 -284 196 -40 73 -39 87 2 94 54 10 62 10 125
-2z m-171 -164 l36 -55 -35 -102 c-20 -56 -37 -104 -39 -105 -2 -2 -20 43 -40
101 l-37 104 37 56 c20 31 38 56 39 56 1 0 19 -25 39 -55z"/>
<path d="M4310 3570 c-36 -45 -76 -70 -115 -70 -14 0 -34 -9 -46 -21 -19 -19
-20 -28 -14 -102 3 -45 9 -91 12 -101 5 -18 3 -18 -25 3 -39 27 -61 27 -102
-4 -25 -18 -46 -25 -80 -25 -64 0 -85 -23 -76 -85 4 -36 1 -55 -15 -87 -12
-24 -18 -50 -15 -64 4 -13 59 -69 130 -130 l124 -107 -10 -34 c-7 -27 -6 -40
7 -59 18 -29 56 -31 155 -9 94 21 100 20 100 -13 0 -66 -29 -129 -80 -175 -48
-43 -49 -46 -39 -76 6 -17 14 -31 18 -31 16 0 90 60 115 93 35 45 56 109 56
168 0 57 -3 55 104 33 100 -20 137 -16 153 17 8 17 10 36 4 56 -9 30 -6 33
118 139 135 117 148 138 115 189 -11 17 -16 44 -15 82 1 73 -15 93 -79 93 -34
0 -55 7 -80 25 -41 30 -63 31 -101 4 l-30 -21 5 24 c3 12 8 58 11 100 6 69 4
79 -14 97 -12 12 -33 21 -48 21 -37 0 -84 30 -118 74 -40 52 -82 51 -125 -4z
m157 -124 c18 -9 42 -16 54 -16 21 0 21 -2 14 -92 -3 -51 -9 -101 -11 -110 -7
-22 38 -68 65 -68 11 0 35 13 53 29 33 28 33 28 62 10 16 -10 47 -21 68 -24
35 -6 38 -9 38 -41 0 -19 6 -50 14 -69 l15 -35 -125 -106 c-121 -104 -129
-115 -125 -161 2 -27 -2 -28 -101 -6 -104 22 -105 38 -3 123 41 35 75 66 75
70 0 3 -11 17 -25 30 l-24 23 -51 -43 -50 -42 0 101 0 101 -35 0 -35 0 0 -95
c0 -52 -3 -95 -6 -95 -4 0 -27 16 -51 36 l-44 36 -25 -23 c-13 -12 -24 -25
-24 -29 0 -4 34 -36 75 -71 108 -91 100 -106 -64 -134 l-41 -7 0 39 c0 37 -5
43 -124 147 -124 107 -124 107 -110 134 8 15 14 46 14 69 0 40 1 41 38 48 21
3 52 14 68 24 29 18 29 18 62 -10 37 -33 58 -36 91 -13 23 17 24 19 17 135
l-7 119 23 0 c26 0 104 45 127 74 13 16 16 15 45 -12 17 -17 45 -37 63 -46z"/>
<path d="M1385 5673 c-16 -8 -37 -22 -46 -30 -12 -10 -28 -12 -51 -8 -86 16
-185 -50 -209 -137 -9 -34 -8 -53 4 -97 13 -47 13 -57 1 -76 -54 -82 -5 -219
94 -261 l32 -14 -24 -38 c-13 -20 -35 -61 -50 -90 -14 -28 -31 -52 -37 -52
-24 0 -117 52 -154 85 l-39 36 32 26 c59 45 78 118 47 173 -8 14 -14 43 -15
65 0 83 -61 136 -153 135 -29 0 -74 2 -102 5 -40 5 -57 2 -83 -15 -31 -19 -62
-71 -62 -104 0 -8 -11 -32 -25 -52 -46 -68 -24 -159 46 -191 21 -10 41 -25 44
-34 18 -53 112 -85 175 -59 28 12 32 10 75 -33 42 -41 156 -107 185 -107 8 0
9 -6 5 -17 -45 -105 -103 -337 -129 -508 -12 -81 -14 -87 -24 -63 -35 85 -152
229 -216 265 -19 10 -19 12 3 64 27 62 23 112 -14 176 -25 42 -90 83 -131 83
-13 0 -26 12 -37 35 -21 44 -80 83 -140 91 -63 9 -142 -29 -177 -85 -20 -31
-33 -40 -62 -45 -45 -7 -106 -58 -124 -103 -28 -65 -14 -155 29 -201 16 -18
21 -36 22 -80 1 -71 25 -115 83 -157 34 -23 53 -29 95 -29 29 0 66 7 83 15 26
13 35 14 55 4 74 -39 152 -24 216 39 31 31 44 54 49 84 4 23 10 42 14 42 14 0
127 -126 153 -170 35 -61 61 -131 80 -214 l16 -69 -32 31 c-51 48 -127 91
-201 114 -56 17 -85 20 -160 15 -121 -6 -129 -10 -121 -56 3 -20 22 -69 41
-109 47 -97 120 -169 220 -218 71 -36 85 -39 178 -42 56 -2 119 1 142 7 l40
11 -14 77 c-15 87 -10 418 8 508 21 106 12 97 88 89 135 -13 260 33 358 130
58 58 111 148 117 197 3 33 -58 52 -173 52 -108 1 -176 -18 -254 -72 l-46 -32
21 58 c26 72 122 270 148 302 l19 25 31 -27 c63 -52 157 -58 223 -13 40 27 78
81 78 112 0 17 10 29 38 43 66 34 102 93 102 168 0 61 -25 110 -78 148 -31 23
-41 37 -41 59 -1 48 -45 111 -94 135 -52 25 -129 27 -172 4z m130 -67 c41 -17
65 -60 65 -116 0 -37 3 -42 33 -55 111 -47 109 -174 -4 -216 -42 -16 -44 -19
-50 -64 -7 -64 -51 -105 -111 -105 -37 0 -47 6 -84 46 -41 44 -44 45 -79 35
-109 -30 -188 86 -119 177 l27 34 -22 43 c-31 63 -28 100 13 141 37 37 74 43
133 22 31 -11 35 -10 61 19 48 54 78 63 137 39z m-770 -297 c26 -21 28 -21 62
-5 33 16 37 16 60 0 23 -14 25 -21 19 -61 -5 -39 -2 -49 19 -75 30 -36 30 -38
4 -73 -18 -21 -28 -26 -55 -23 -28 3 -34 0 -48 -28 -8 -18 -24 -35 -36 -39
-29 -9 -67 18 -75 55 -5 23 -12 30 -30 30 -37 0 -56 11 -66 38 -11 29 8 67 39
77 16 5 19 13 15 49 -5 37 -2 46 18 60 31 21 41 20 74 -5z m-313 -479 c14 -11
33 -38 42 -60 14 -34 20 -40 46 -40 78 0 130 -51 130 -126 0 -31 -7 -44 -41
-75 l-42 -38 12 -45 c13 -55 4 -83 -39 -119 -41 -35 -85 -35 -135 -1 l-38 25
-30 -22 c-16 -12 -49 -24 -73 -27 -39 -4 -47 -1 -79 31 -38 38 -45 79 -25 132
9 25 6 31 -32 65 -39 34 -43 42 -43 84 0 64 42 107 112 113 47 5 49 7 67 49
10 26 29 51 45 59 38 21 94 18 123 -5z m1058 -153 c0 -39 -99 -141 -175 -180
-49 -25 -76 -31 -143 -35 -93 -5 -111 3 -92 38 16 31 87 106 122 131 51 37
128 58 211 59 56 0 77 -3 77 -13z m-845 -642 c115 -30 216 -109 266 -207 31
-60 27 -68 -33 -68 -109 0 -212 43 -289 120 -58 58 -107 149 -87 161 20 13 78
11 143 -6z"/>
<path d="M1350 5433 c-73 -37 -90 -131 -34 -186 92 -92 246 13 191 129 -30 62
-98 87 -157 57z m80 -77 c6 -8 10 -25 8 -38 -2 -19 -9 -23 -38 -23 -29 0 -36
4 -38 23 -4 28 14 52 38 52 10 0 23 -7 30 -14z"/>
<path d="M311 4656 c-33 -18 -50 -53 -51 -104 0 -37 6 -50 34 -78 29 -29 41
-34 81 -34 40 0 52 5 81 34 29 29 34 41 34 81 0 40 -5 52 -34 81 -28 28 -41
34 -77 34 -24 -1 -55 -7 -68 -14z m95 -77 c13 -15 16 -24 8 -36 -20 -32 -41
-38 -63 -19 -25 23 -26 39 -5 60 21 21 37 20 60 -5z"/>
<path d="M5858 5620 c-48 -26 -80 -72 -86 -126 -2 -24 -8 -44 -13 -44 -17 0
-83 -66 -95 -97 -36 -84 -4 -186 71 -231 34 -20 47 -36 55 -63 13 -46 41 -82
87 -110 49 -31 136 -31 186 0 44 27 42 30 90 -134 42 -145 70 -274 91 -416 22
-147 21 -150 -15 -101 -85 115 -267 192 -420 177 -96 -10 -97 -11 -76 -92 43
-164 186 -305 348 -342 24 -6 80 -11 123 -11 l79 0 -6 -217 c-6 -219 -23 -390
-57 -558 -14 -73 -19 -85 -26 -65 -4 14 -24 57 -44 95 -33 64 -36 79 -37 155
-2 134 -47 241 -140 333 -80 81 -179 128 -300 142 l-60 7 -7 -32 c-20 -101 2
-241 52 -334 62 -117 215 -226 337 -241 52 -7 57 -10 80 -49 37 -64 55 -124
62 -206 8 -102 -10 -200 -64 -350 -41 -116 -192 -437 -245 -522 l-23 -37 1
107 c0 66 8 134 18 177 45 178 -23 395 -163 515 -42 38 -157 101 -207 115 -19
5 -23 -2 -39 -57 -68 -237 42 -499 260 -616 l50 -27 3 -103 c4 -161 -37 -288
-133 -405 l-44 -54 23 -22 c12 -11 27 -21 32 -21 12 0 87 91 169 205 398 557
616 1351 575 2100 -9 164 -32 384 -46 440 -4 17 5 25 55 48 89 41 163 114 208
205 37 73 38 80 38 181 0 138 -2 142 -57 130 -114 -26 -224 -107 -281 -208
l-31 -54 -30 94 -31 94 50 17 c61 20 110 71 125 129 13 47 9 83 -16 134 -13
27 -13 38 -3 56 6 13 12 47 12 77 0 103 -94 188 -198 179 -42 -4 -55 -1 -84
21 -46 36 -148 42 -203 12z m180 -95 c31 -34 36 -36 64 -26 59 21 97 14 134
-23 40 -40 45 -83 14 -134 -25 -41 -25 -50 1 -78 13 -14 23 -41 26 -68 5 -42
3 -48 -31 -82 -35 -35 -38 -36 -94 -32 -57 5 -57 5 -98 -38 -35 -39 -46 -44
-83 -44 -36 0 -49 6 -77 34 -28 28 -34 41 -34 78 0 44 0 45 -47 59 -50 15 -93
62 -93 101 0 42 32 87 76 108 41 20 44 24 44 61 0 120 119 170 198 84z m498
-606 c-9 -88 -48 -169 -112 -229 -62 -59 -122 -89 -135 -68 -11 17 0 93 23
154 31 86 154 204 211 204 18 0 19 -5 13 -61z m-512 -557 c78 -37 154 -108
190 -180 41 -81 38 -86 -45 -79 -100 8 -193 53 -264 128 -52 54 -94 125 -95
158 0 26 137 9 214 -27z m-271 -542 c123 -38 229 -144 267 -267 19 -61 27
-153 14 -165 -9 -10 -100 18 -154 48 -64 35 -135 112 -168 182 -35 78 -54 222
-28 222 2 0 33 -9 69 -20z m-225 -869 c130 -66 232 -231 232 -374 l0 -51 -54
110 c-30 61 -61 116 -68 122 -11 8 -21 6 -43 -12 -28 -22 -29 -25 -14 -43 40
-47 127 -233 109 -233 -20 0 -131 115 -159 164 -51 88 -76 234 -55 314 8 27 6
27 52 3z"/>
<path d="M5975 5390 c-44 -18 -70 -59 -70 -111 0 -41 5 -53 31 -80 62 -61 157
-42 191 39 13 32 14 42 2 77 -23 65 -94 100 -154 75z m75 -85 c26 -32 -13 -81
-47 -59 -35 22 -23 74 17 74 10 0 23 -7 30 -15z"/>
<path d="M9810 4536 l0 -626 85 0 85 0 2 238 3 237 121 3 122 3 139 -238 139
-238 102 -3 c59 -1 102 1 102 7 0 5 -65 120 -144 255 l-144 245 62 29 c78 36
131 88 165 161 23 50 26 68 26 166 0 92 -4 118 -22 157 -48 104 -118 159 -253
199 -66 19 -106 22 -332 26 l-258 5 0 -626z m566 427 c165 -88 147 -329 -29
-390 -41 -14 -85 -18 -207 -18 l-155 0 -3 218 -2 219 177 -4 c161 -3 182 -5
219 -25z"/>
<path d="M6971 5083 c-19 -9 -46 -34 -60 -55 -14 -21 -35 -40 -46 -42 -11 -3
-32 -7 -47 -11 -41 -8 -95 -60 -114 -110 -22 -59 -13 -126 23 -173 22 -30 26
-44 24 -93 -5 -113 69 -189 183 -189 l57 0 -7 -37 c-21 -120 -125 -400 -144
-388 -4 2 -10 24 -12 48 -7 57 -49 149 -93 203 -37 45 -126 109 -167 119 -23
6 -27 2 -49 -57 -35 -92 -34 -228 3 -316 31 -75 77 -137 135 -181 24 -18 43
-37 43 -42 0 -5 -31 -51 -68 -102 -37 -50 -98 -136 -135 -189 l-68 -97 45 -30
c88 -61 139 -75 266 -75 95 0 125 4 171 22 80 32 156 88 211 157 l48 60 -22
17 c-48 37 -140 77 -209 89 -70 12 -188 4 -243 -17 -13 -5 -2 17 34 67 90 126
155 230 204 327 52 100 104 155 182 191 51 25 141 38 199 31 l40 -5 -49 -52
c-59 -64 -146 -110 -227 -119 l-59 -7 0 -33 c0 -33 1 -34 44 -34 140 0 293 99
369 239 l28 51 -28 11 c-101 40 -248 34 -346 -15 -28 -14 -53 -23 -55 -21 -3
3 20 123 34 172 2 9 12 9 40 2 26 -8 50 -7 83 1 91 23 141 86 141 177 0 41 5
54 26 74 56 51 70 140 33 216 -24 49 -56 75 -116 93 -24 7 -43 19 -43 26 0 22
-62 86 -97 100 -44 19 -121 17 -162 -3z m153 -78 c15 -10 32 -36 41 -66 16
-49 17 -49 59 -49 54 0 92 -28 107 -78 14 -48 1 -80 -49 -122 -38 -33 -38 -34
-29 -76 13 -54 -4 -99 -47 -125 -44 -27 -86 -24 -131 10 l-39 29 -35 -24 c-60
-40 -135 -24 -166 36 -19 36 -19 58 -1 102 15 35 15 35 -25 73 -34 34 -39 45
-39 83 0 37 6 50 34 78 30 30 41 34 83 34 49 0 50 1 66 40 28 73 105 98 171
55z m-481 -786 c29 -25 59 -65 79 -107 30 -61 33 -75 33 -159 0 -109 -10 -126
-52 -94 -76 60 -133 171 -135 265 -1 61 11 136 21 136 5 0 29 -18 54 -41z
m371 -707 l50 -22 -40 -41 c-74 -76 -222 -128 -323 -114 -52 7 -161 44 -161
54 0 10 58 63 98 90 18 13 56 31 85 42 73 27 221 22 291 -9z"/>
<path d="M6970 4813 c-59 -53 -48 -153 20 -188 124 -64 236 87 138 186 -25 24
-38 29 -79 29 -39 0 -55 -5 -79 -27z m110 -58 c15 -18 6 -61 -16 -69 -18 -7
-49 8 -57 28 -8 19 20 56 42 56 10 0 24 -7 31 -15z"/>
<path d="M13390 4485 l0 -575 80 0 80 0 0 575 0 575 -80 0 -80 0 0 -575z"/>
<path d="M10973 4662 c-101 -36 -170 -99 -221 -202 -25 -50 -27 -65 -27 -170
0 -107 2 -119 29 -175 78 -157 240 -240 424 -214 172 24 294 146 325 323 29
172 -57 345 -211 422 -50 24 -70 28 -162 31 -83 3 -116 0 -157 -15z m236 -162
c138 -70 172 -248 70 -364 -48 -55 -96 -77 -162 -77 -95 0 -165 43 -203 125
-59 126 -5 277 116 325 44 17 137 13 179 -9z"/>
<path d="M12680 4664 c-101 -32 -195 -131 -230 -243 -65 -205 34 -432 219
-502 116 -44 278 -21 343 48 l23 25 5 -39 5 -38 83 -3 82 -3 0 381 0 381 -82
-3 -83 -3 -3 -38 -3 -38 -32 27 c-58 49 -104 64 -197 63 -47 0 -105 -7 -130
-15z m234 -158 c85 -36 142 -136 133 -234 -6 -68 -23 -107 -69 -152 -42 -43
-89 -61 -152 -61 -92 0 -159 41 -201 124 -58 118 -6 273 110 323 40 17 137 18
179 0z"/>
<path d="M11634 4655 c-3 -8 -4 -133 -2 -277 5 -293 11 -323 74 -396 51 -60
110 -85 203 -85 86 0 155 24 204 70 l27 27 0 -47 c0 -118 -37 -198 -110 -234
-83 -43 -193 -22 -268 50 l-32 31 -55 -54 c-30 -30 -55 -60 -55 -66 0 -20 80
-85 138 -112 74 -34 221 -42 304 -18 74 21 147 73 181 128 54 87 57 115 57
576 l0 422 -80 0 -80 0 0 -218 c0 -253 -9 -301 -64 -350 -74 -64 -168 -68
-223 -9 -17 20 -36 52 -42 74 -6 22 -11 137 -11 271 l0 232 -80 0 c-62 0 -82
-3 -86 -15z"/>
<path d="M8502 3058 l3 -623 140 -3 c172 -4 410 13 490 34 181 48 265 149 265
319 0 125 -53 224 -149 280 -28 17 -51 32 -51 35 0 3 17 14 37 25 22 12 50 40
67 68 24 39 30 62 34 126 7 114 -15 179 -81 246 -96 95 -186 115 -525 115
l-232 0 2 -622z m563 427 c57 -29 85 -75 85 -142 0 -136 -87 -183 -337 -183
l-133 0 0 176 0 176 173 -4 c148 -3 178 -6 212 -23z m40 -530 c48 -24 64 -39
83 -75 29 -57 27 -145 -5 -188 -53 -72 -130 -92 -356 -92 l-147 0 0 196 0 196
183 -3 c179 -4 183 -5 242 -34z"/>
<path d="M14690 3005 l0 -575 80 0 80 0 0 575 0 575 -80 0 -80 0 0 -575z"/>
<path d="M12674 3466 c-73 -73 -27 -186 76 -186 69 0 110 43 110 115 0 55 -53
105 -110 105 -34 0 -48 -6 -76 -34z"/>
<path d="M10530 3375 l-75 -22 -3 -82 -3 -81 -69 0 -70 0 0 -80 0 -79 68 -3
67 -3 5 -240 c5 -227 6 -242 28 -276 12 -20 38 -44 57 -53 51 -24 141 -37 208
-30 l57 7 0 78 0 79 -70 0 c-56 0 -74 4 -89 19 -25 25 -33 105 -29 281 l3 135
93 3 92 3 0 79 0 80 -95 0 -94 0 -3 104 -3 103 -75 -22z"/>
<path d="M9805 3199 c-164 -24 -288 -150 -318 -323 -29 -172 56 -344 211 -422
53 -27 64 -29 177 -29 109 0 125 2 177 27 74 34 147 107 183 183 37 78 47 216
20 297 -62 192 -239 297 -450 267z m200 -197 c127 -88 125 -298 -3 -387 -58
-40 -158 -48 -219 -16 -140 71 -176 259 -70 369 81 85 199 99 292 34z"/>
<path d="M11182 3200 c-117 -17 -218 -93 -274 -208 -31 -64 -33 -72 -33 -182
0 -110 2 -119 32 -181 39 -79 99 -141 173 -177 43 -21 73 -28 138 -31 101 -4
160 11 218 56 l44 33 0 -40 0 -40 80 0 80 0 0 380 0 380 -80 0 -80 0 0 -40 0
-40 -45 35 c-65 49 -154 69 -253 55z m183 -182 c75 -40 119 -117 119 -208 0
-133 -92 -230 -219 -230 -133 0 -227 95 -227 228 0 66 17 112 57 160 63 75
181 97 270 50z"/>
<path d="M12160 3200 c-60 -10 -109 -32 -142 -63 l-28 -26 0 40 0 40 -82 -3
-83 -3 0 -375 0 -375 83 -3 82 -3 0 231 c0 186 3 238 16 268 59 143 244 163
302 33 13 -29 17 -84 20 -283 l4 -248 79 0 80 0 -3 288 c-3 276 -4 289 -26
338 -13 29 -35 63 -50 77 -56 54 -163 82 -252 67z"/>
<path d="M13262 3200 c-156 -23 -275 -148 -303 -319 -30 -178 54 -357 199
-428 47 -23 73 -28 153 -31 113 -5 170 10 244 62 45 33 115 118 115 141 0 6
-32 29 -72 52 l-72 41 -21 -35 c-11 -20 -37 -50 -58 -67 -51 -41 -143 -49
-205 -17 -199 101 -131 441 88 443 76 0 142 -41 186 -117 10 -17 15 -16 82 20
40 22 72 44 72 51 0 25 -78 115 -129 148 -78 52 -174 71 -279 56z"/>
<path d="M14040 3199 c-119 -20 -209 -90 -267 -207 -37 -73 -38 -80 -38 -181
0 -98 2 -111 31 -172 41 -87 89 -138 166 -180 56 -30 73 -34 160 -37 86 -4
102 -2 150 21 29 13 63 34 75 46 l22 21 3 -38 3 -37 83 -3 82 -3 0 381 0 381
-82 -3 -83 -3 -5 -33 -5 -34 -27 21 c-68 54 -169 76 -268 60z m215 -197 c126
-86 124 -297 -3 -387 -57 -40 -158 -48 -218 -17 -140 72 -178 251 -77 363 20
22 50 48 67 56 71 38 164 32 231 -15z"/>
<path d="M12665 3177 c-3 -6 -4 -176 -3 -377 l3 -365 83 -3 82 -3 0 381 0 380
-80 0 c-55 0 -82 -4 -85 -13z"/>
<path d="M507 3146 c-105 -29 -193 -126 -223 -246 -25 -98 -15 -301 18 -391
61 -164 224 -311 371 -335 20 -4 40 -10 42 -14 3 -4 -48 -58 -112 -120 -93
-90 -115 -115 -107 -128 24 -37 39 -36 92 6 62 48 146 82 225 89 l57 6 0 40 0
39 -57 -6 -58 -7 45 40 45 40 243 1 242 0 0 33 c0 30 -5 35 -57 61 -230 112
-451 390 -478 602 l-7 49 64 39 63 39 -75 34 c-41 19 -90 50 -109 70 -58 60
-141 82 -224 59z m129 -82 c45 -22 76 -66 81 -119 5 -39 1 -47 -39 -96 -75
-93 -93 -146 -93 -274 0 -103 2 -114 31 -176 18 -36 52 -88 77 -114 l46 -47
-35 5 c-92 15 -203 89 -269 178 -66 90 -89 173 -89 324 0 110 2 125 28 180 33
72 68 111 121 136 50 23 97 24 141 3z m149 -424 c64 -127 181 -267 293 -351
31 -24 62 -47 67 -52 6 -5 -39 -7 -110 -5 -104 3 -128 7 -176 30 -79 36 -133
89 -171 166 -29 58 -33 76 -33 147 0 71 4 88 34 150 l34 69 17 -49 c10 -28 30
-75 45 -105z"/>
<path d="M582 3019 c-17 -7 -22 -16 -22 -44 0 -28 5 -37 22 -44 31 -11 58 -2
70 24 20 44 -22 82 -70 64z"/>
<path d="M6765 3151 c-44 -11 -87 -36 -115 -66 -14 -15 -60 -45 -103 -65 l-78
-38 62 -38 61 -38 -5 -56 c-5 -64 -39 -153 -88 -238 -51 -86 -237 -268 -339
-330 -46 -29 -90 -52 -97 -52 -8 0 -13 -13 -13 -35 l0 -35 248 0 248 0 39 -41
40 -41 -51 7 c-29 4 -54 3 -57 -2 -2 -4 -2 -22 0 -39 5 -30 7 -32 66 -38 74
-7 169 -50 224 -100 l40 -35 27 28 27 28 -121 112 c-66 62 -118 116 -115 121
2 4 22 10 43 14 69 11 183 75 248 140 68 69 126 173 144 262 7 33 10 113 8
193 -3 122 -6 142 -29 192 -64 136 -200 218 -314 190z m120 -90 c97 -45 146
-136 153 -286 7 -175 -32 -298 -129 -400 -54 -58 -160 -119 -229 -132 l-35 -6
47 52 c145 161 154 385 22 547 -39 47 -44 60 -44 103 0 108 110 171 215 122z
m-188 -338 c24 -51 28 -69 28 -148 0 -71 -5 -100 -22 -137 -32 -71 -103 -141
-176 -174 -55 -25 -76 -29 -182 -32 l-120 -4 65 50 c158 120 308 316 350 460
7 23 17 42 21 42 4 0 20 -26 36 -57z"/>
<path d="M6751 3013 c-29 -19 -27 -59 3 -78 43 -28 91 18 67 63 -14 26 -45 33
-70 15z"/>
<path d="M9251 2190 c-206 -54 -382 -232 -435 -438 -88 -337 82 -670 396 -779
96 -33 278 -42 386 -19 256 54 429 264 449 544 l6 82 -317 0 -316 0 0 -80 0
-80 209 0 c116 0 212 -4 215 -8 10 -17 -56 -138 -102 -185 -92 -95 -231 -140
-366 -119 -230 36 -395 231 -396 467 0 136 39 234 132 331 160 166 401 186
589 48 45 -33 112 -108 121 -136 5 -14 158 71 158 88 0 7 -20 39 -45 72 -76
100 -204 183 -336 216 -91 22 -253 20 -348 -4z"/>
<path d="M12130 1864 l0 -236 -31 26 c-47 40 -84 56 -150 67 -116 19 -242 -23
-323 -105 -183 -189 -128 -530 104 -644 43 -21 73 -28 139 -31 100 -4 149 9
214 55 l47 34 0 -35 0 -35 80 0 80 0 0 570 0 570 -80 0 -80 0 0 -236z m-125
-321 c83 -42 130 -118 129 -213 -1 -137 -93 -230 -227 -230 -195 0 -294 246
-158 393 65 71 171 91 256 50z"/>
<path d="M10447 1720 c-115 -20 -223 -105 -275 -218 -25 -52 -27 -68 -27 -172
1 -103 4 -121 27 -172 35 -75 104 -147 174 -183 46 -24 73 -30 143 -33 104 -5
156 8 216 53 l45 35 0 -35 0 -35 85 0 85 0 -2 373 -3 372 -82 3 -83 3 0 -42 0
-43 -27 27 c-60 56 -176 85 -276 67z m170 -171 c42 -13 119 -97 132 -145 32
-115 -18 -232 -122 -285 -62 -32 -161 -24 -219 18 -159 114 -116 368 70 419
47 13 79 11 139 -7z"/>
<path d="M11387 1716 c-26 -7 -65 -27 -87 -45 l-40 -32 0 36 0 36 -82 -3 -83
-3 -3 -372 -2 -373 84 0 84 0 4 233 c3 226 4 233 28 277 29 51 83 86 148 96
l42 6 0 79 c0 90 0 90 -93 65z"/>
<path d="M12738 1720 c-147 -25 -262 -129 -303 -274 -23 -78 -16 -199 15 -281
29 -75 107 -155 187 -193 54 -25 67 -27 198 -27 113 0 148 4 180 18 58 26 145
80 145 90 0 9 -90 127 -97 127 -3 0 -17 -8 -31 -19 -73 -51 -195 -74 -276 -51
-51 14 -119 68 -141 111 -8 15 -15 30 -15 34 0 3 130 5 289 5 l289 0 6 34 c10
50 -9 159 -39 223 -49 108 -142 180 -260 202 -65 12 -79 12 -147 1z m136 -161
c48 -13 111 -72 131 -121 l15 -38 -210 0 c-140 0 -210 4 -210 10 0 21 29 65
63 98 57 55 131 73 211 51z"/>
<path d="M13649 1720 c-55 -10 -104 -33 -141 -68 l-28 -26 0 42 0 42 -80 0
-80 0 0 -375 0 -375 85 0 85 0 0 233 c0 204 3 237 19 273 32 70 107 111 183
101 54 -7 86 -31 109 -80 17 -38 19 -68 19 -284 l0 -243 85 0 85 0 0 253 c0
281 -9 341 -59 412 -53 74 -172 114 -282 95z"/>
<path d="M14301 1720 c-61 -13 -125 -54 -152 -96 -15 -24 -23 -57 -26 -102 -9
-124 47 -186 232 -257 52 -20 106 -46 120 -57 71 -55 -24 -135 -127 -108 -40
11 -93 54 -115 94 -10 18 -14 17 -74 -19 -35 -21 -66 -40 -68 -42 -9 -6 19
-53 55 -93 59 -65 123 -93 225 -98 112 -6 176 14 235 73 90 90 80 244 -21 321
-19 14 -84 45 -146 69 -126 50 -149 66 -149 107 0 24 6 32 36 44 57 24 111 10
158 -39 l38 -40 43 23 c24 13 54 31 66 41 l23 17 -27 40 c-62 94 -203 147
-326 122z"/>
</g>
</svg>
