<?xml version="1.0" encoding="UTF-8" standalone="no" ?>
<!DOCTYPE svg PUBLIC "-//W3C//DTD SVG 1.1//EN" "http://www.w3.org/Graphics/SVG/1.1/DTD/svg11.dtd">
<svg xmlns="http://www.w3.org/2000/svg" xmlns:xlink="http://www.w3.org/1999/xlink" version="1.1" width="352" height="120" viewBox="0 0 550 187.5" xml:space="preserve">
<desc>Created with Fabric.js 5.3.0</desc>
<defs>
</defs>
<g transform="matrix(1 0 0 1 275 93.75)" id="MQVBM2QP-9-_CSUbOPsed"  >
<g style="" vector-effect="non-scaling-stroke"   >
		<g transform="matrix(1 0 0 1 129.25 -5.3)" id="RWkDX4eT0fd3KGaltxzHY"  >
<path style="stroke: none; stroke-width: 1; stroke-dasharray: none; stroke-linecap: butt; stroke-dashoffset: 0; stroke-linejoin: miter; stroke-miterlimit: 4; fill: rgb(50,98,172); fill-rule: nonzero; opacity: 1;" vector-effect="non-scaling-stroke"  transform=" translate(-379.25, -63.45)" d="M 259.1 29.5 L 261.3 29.5 L 261.3 6.5 L 259.1 6.5 L 259.1 0.2 L 272.6 0.2 C 279.1 0.2 282.20000000000005 3.1 282.20000000000005 9 L 282.20000000000005 13 C 282.20000000000005 18.9 279.40000000000003 21.9 274.00000000000006 21.9 L 269.6000000000001 21.9 L 269.6000000000001 29.4 L 271.80000000000007 29.4 L 271.80000000000007 35.699999999999996 L 259.1000000000001 35.699999999999996 L 259.1000000000001 29.499999999999996 z M 271 15.9 C 273.9 15.9 274.4 15.1 274.4 12.2 L 274.4 9.3 C 274.4 6.700000000000001 273.4 6.200000000000001 270.5 6.200000000000001 L 269.7 6.200000000000001 L 269.7 15.9 L 271 15.9 z M 293.5 36.2 C 287.9 36.2 284.9 32.7 284.9 25.900000000000002 L 284.9 22.6 C 284.9 16.3 288.4 12.500000000000002 293.4 12.500000000000002 C 299 12.500000000000002 302.09999999999997 16 302.09999999999997 22.5 L 302.09999999999997 25.7 L 291.79999999999995 25.7 L 291.79999999999995 27.2 C 291.79999999999995 29.5 292.4 30.599999999999998 293.99999999999994 30.599999999999998 C 295.19999999999993 30.599999999999998 295.8999999999999 29.9 296.09999999999997 28.4 L 302.2 28.4 C 302 33.3 298.7 36.199999999999996 293.5 36.199999999999996 z M 295.9 21.6 L 295.9 20.700000000000003 C 295.9 18.800000000000004 295.09999999999997 17.700000000000003 293.9 17.700000000000003 C 292.29999999999995 17.700000000000003 291.79999999999995 18.700000000000003 291.79999999999995 21.1 L 291.79999999999995 21.6 L 295.9 21.6 z M 324.2 30.200000000000003 L 325.59999999999997 30.200000000000003 L 325.59999999999997 35.7 L 317.4 35.7 L 317.4 21.5 C 317.4 19.5 316.9 18.6 315.4 18.6 C 313.9 18.6 313.29999999999995 19.5 313.29999999999995 21.5 L 313.29999999999995 30.2 L 314.79999999999995 30.2 L 314.79999999999995 35.7 L 305.09999999999997 35.7 L 305.09999999999997 30.200000000000003 L 306.59999999999997 30.200000000000003 L 306.59999999999997 18.5 L 305.09999999999997 18.5 L 305.09999999999997 13 L 312.7 13 L 312.7 16.2 C 314.4 13.799999999999999 316.5 12.6 318.9 12.6 C 322.79999999999995 12.6 324.29999999999995 14.899999999999999 324.29999999999995 19.7 L 324.29999999999995 30.2 z M 347.4 30.200000000000003 L 348.79999999999995 30.200000000000003 L 348.79999999999995 35.7 L 340.59999999999997 35.7 L 340.59999999999997 21.5 C 340.59999999999997 19.5 340.09999999999997 18.6 338.59999999999997 18.6 C 337.09999999999997 18.6 336.49999999999994 19.5 336.49999999999994 21.5 L 336.49999999999994 30.2 L 337.99999999999994 30.2 L 337.99999999999994 35.7 L 328.29999999999995 35.7 L 328.29999999999995 30.200000000000003 L 329.79999999999995 30.200000000000003 L 329.79999999999995 18.5 L 328.29999999999995 18.5 L 328.29999999999995 13 L 335.9 13 L 335.9 16.2 C 337.59999999999997 13.799999999999999 339.7 12.6 342.09999999999997 12.6 C 345.99999999999994 12.6 347.49999999999994 14.899999999999999 347.49999999999994 19.7 L 347.49999999999994 30.2 z M 351.2 28.1 L 355.9 28.1 C 356.2 30.200000000000003 357.2 31.200000000000003 358.5 31.200000000000003 C 359.5 31.200000000000003 360.2 30.6 360.2 29.700000000000003 C 360.2 29.000000000000004 359.7 28.400000000000002 358.7 27.700000000000003 L 354.09999999999997 24.400000000000002 C 352.29999999999995 23.1 351.29999999999995 21.000000000000004 351.29999999999995 18.700000000000003 C 351.29999999999995 15.000000000000004 353.79999999999995 12.500000000000004 356.9 12.500000000000004 C 358.5 12.500000000000004 359.9 13.200000000000003 361.29999999999995 14.600000000000003 L 361.29999999999995 13 L 365.49999999999994 13 L 365.49999999999994 19.6 L 360.8999999999999 19.6 C 360.5999999999999 17.900000000000002 359.99999999999994 17.1 358.7999999999999 17.1 C 357.8999999999999 17.1 357.1999999999999 17.700000000000003 357.1999999999999 18.5 C 357.1999999999999 19.1 357.59999999999985 19.6 358.4999999999999 20.3 L 362.39999999999986 23.1 C 364.9999999999999 24.900000000000002 366.09999999999985 27 366.09999999999985 29.900000000000002 C 366.09999999999985 33.6 363.49999999999983 36.2 360.29999999999984 36.2 C 358.49999999999983 36.2 356.99999999999983 35.5 355.49999999999983 33.900000000000006 L 355.49999999999983 35.800000000000004 L 351.1999999999998 35.800000000000004 L 351.1999999999998 28.100000000000005 z M 370.3 39.900000000000006 L 372.2 39.900000000000006 L 374.59999999999997 34.10000000000001 L 368.9 18.500000000000007 L 367.59999999999997 18.500000000000007 L 367.59999999999997 13 L 376.9 13 L 376.9 18.5 L 375.5 18.5 L 378.1 28 L 381 18.5 L 379.3 18.5 L 379.3 13 L 388.3 13 L 388.3 18.5 L 386.90000000000003 18.5 L 378.20000000000005 39.9 L 380.30000000000007 39.9 L 380.30000000000007 45.4 L 370.30000000000007 45.4 L 370.30000000000007 39.9 z M 389.7 30.200000000000006 L 391.2 30.200000000000006 L 391.2 5.8 L 389.7 5.8 L 389.7 0.2 L 398 0.2 L 398 30.2 L 399.4 30.2 L 399.4 35.7 L 389.7 35.7 L 389.7 30.200000000000003 z M 402.09999999999997 18.500000000000007 L 400.79999999999995 18.500000000000007 L 400.79999999999995 13 L 410.09999999999997 13 L 410.09999999999997 18.5 L 408.7 18.5 L 411.3 28 L 414.1 18.5 L 412.40000000000003 18.5 L 412.40000000000003 13 L 421.40000000000003 13 L 421.40000000000003 18.5 L 420 18.5 L 413.5 35.9 L 408.2 35.9 L 402.09999999999997 18.5 z M 429.7 36.2 C 426 36.2 424 33.900000000000006 424 29.400000000000002 L 424 19.3 C 424 14.9 426.1 12.5 429.8 12.5 C 432.1 12.5 433.90000000000003 13.5 435.2 15.6 L 435.2 12.899999999999999 L 442.7 12.899999999999999 L 442.7 18.4 L 441.2 18.4 L 441.2 30.2 L 442.7 30.2 L 442.7 35.7 L 434.8 35.7 L 434.8 33.300000000000004 C 433.3 35.300000000000004 431.7 36.2 429.7 36.2 z M 432.4 30.500000000000004 C 433.79999999999995 30.500000000000004 434.4 29.700000000000003 434.4 28.000000000000004 L 434.4 20.400000000000006 C 434.4 18.800000000000004 433.9 18.100000000000005 432.59999999999997 18.100000000000005 C 431.29999999999995 18.100000000000005 430.79999999999995 18.800000000000004 430.79999999999995 20.400000000000006 L 430.79999999999995 28.500000000000007 C 430.79999999999995 29.800000000000008 431.29999999999995 30.500000000000007 432.4 30.500000000000007 z M 464.2 30.200000000000003 L 465.59999999999997 30.200000000000003 L 465.59999999999997 35.7 L 457.4 35.7 L 457.4 21.5 C 457.4 19.5 456.9 18.6 455.4 18.6 C 453.9 18.6 453.29999999999995 19.5 453.29999999999995 21.5 L 453.29999999999995 30.2 L 454.79999999999995 30.2 L 454.79999999999995 35.7 L 445.09999999999997 35.7 L 445.09999999999997 30.200000000000003 L 446.59999999999997 30.200000000000003 L 446.59999999999997 18.5 L 445.09999999999997 18.5 L 445.09999999999997 13 L 452.7 13 L 452.7 16.2 C 454.4 13.799999999999999 456.5 12.6 458.9 12.6 C 462.79999999999995 12.6 464.29999999999995 14.899999999999999 464.29999999999995 19.7 L 464.29999999999995 30.2 z M 468.3 30.200000000000003 L 469.8 30.200000000000003 L 469.8 18.5 L 468.3 18.5 L 468.3 13 L 476.5 13 L 476.5 30.3 L 478 30.3 L 478 35.8 L 468.3 35.8 L 468.3 30.199999999999996 z M 469.5 2.3000000000000043 L 476.5 2.3000000000000043 L 476.5 9.200000000000005 L 469.5 9.200000000000005 L 469.5 2.3 z M 486.4 36.2 C 482.7 36.2 480.7 33.900000000000006 480.7 29.400000000000002 L 480.7 19.3 C 480.7 14.9 482.8 12.5 486.5 12.5 C 488.8 12.5 490.6 13.5 491.9 15.6 L 491.9 12.899999999999999 L 499.4 12.899999999999999 L 499.4 18.4 L 497.9 18.4 L 497.9 30.2 L 499.4 30.2 L 499.4 35.7 L 491.5 35.7 L 491.5 33.300000000000004 C 489.9 35.300000000000004 488.4 36.2 486.4 36.2 z M 489.09999999999997 30.500000000000004 C 490.49999999999994 30.500000000000004 491.09999999999997 29.700000000000003 491.09999999999997 28.000000000000004 L 491.09999999999997 20.400000000000006 C 491.09999999999997 18.800000000000004 490.59999999999997 18.100000000000005 489.29999999999995 18.100000000000005 C 487.99999999999994 18.100000000000005 487.49999999999994 18.800000000000004 487.49999999999994 20.400000000000006 L 487.49999999999994 28.500000000000007 C 487.49999999999994 29.800000000000008 487.99999999999994 30.500000000000007 489.09999999999997 30.500000000000007 z M 286.09999999999997 75.8 L 288.29999999999995 75.8 L 288.29999999999995 52.8 L 286.09999999999997 52.8 L 286.09999999999997 46.5 L 298.79999999999995 46.5 L 298.79999999999995 52.8 L 296.59999999999997 52.8 L 296.59999999999997 75.8 L 298.79999999999995 75.8 L 298.79999999999995 82 L 286.09999999999997 82 L 286.09999999999997 75.8 z M 320.79999999999995 76.5 L 322.19999999999993 76.5 L 322.19999999999993 82 L 314 82 L 314 67.8 C 314 65.8 313.5 64.89999999999999 312 64.89999999999999 C 310.5 64.89999999999999 309.9 65.8 309.9 67.8 L 309.9 76.5 L 311.4 76.5 L 311.4 82 L 301.7 82 L 301.7 76.5 L 303.2 76.5 L 303.2 64.7 L 301.7 64.7 L 301.7 59.2 L 309.3 59.2 L 309.3 62.400000000000006 C 311 60.00000000000001 313.1 58.800000000000004 315.5 58.800000000000004 C 319.4 58.800000000000004 320.9 61.1 320.9 65.9 L 320.9 76.5 z M 324.59999999999997 74.4 L 329.29999999999995 74.4 C 329.59999999999997 76.5 330.59999999999997 77.5 331.9 77.5 C 332.9 77.5 333.59999999999997 76.9 333.59999999999997 76 C 333.59999999999997 75.3 333.09999999999997 74.7 332.09999999999997 74 L 327.49999999999994 70.7 C 325.69999999999993 69.4 324.69999999999993 67.3 324.69999999999993 65 C 324.69999999999993 61.3 327.19999999999993 58.8 330.29999999999995 58.8 C 331.9 58.8 333.29999999999995 59.5 334.69999999999993 60.9 L 334.69999999999993 59.3 L 338.8999999999999 59.3 L 338.8999999999999 65.89999999999999 L 334.2999999999999 65.89999999999999 C 333.9999999999999 64.19999999999999 333.3999999999999 63.39999999999999 332.1999999999999 63.39999999999999 C 331.2999999999999 63.39999999999999 330.59999999999985 63.99999999999999 330.59999999999985 64.8 C 330.59999999999985 65.39999999999999 330.99999999999983 65.89999999999999 331.89999999999986 66.6 L 335.79999999999984 69.39999999999999 C 338.39999999999986 71.19999999999999 339.49999999999983 73.3 339.49999999999983 76.19999999999999 C 339.49999999999983 79.89999999999999 336.8999999999998 82.49999999999999 333.6999999999998 82.49999999999999 C 331.8999999999998 82.49999999999999 330.3999999999998 81.79999999999998 328.8999999999998 80.19999999999999 L 328.8999999999998 82 L 324.5999999999998 82 L 324.5999999999998 74.4 z M 349.4 82.5 C 343.79999999999995 82.5 342.59999999999997 81.6 342.59999999999997 76.7 L 342.59999999999997 64.4 L 341.09999999999997 64.4 L 341.09999999999997 59.2 L 342.59999999999997 59.2 L 342.59999999999997 51 L 349.4 51 L 349.4 59.3 L 350.79999999999995 59.3 L 350.79999999999995 64.5 L 349.4 64.5 L 349.4 74.8 C 349.4 76.3 349.5 76.5 350.7 76.5 L 351.09999999999997 76.5 L 351.09999999999997 82.5 L 349.4 82.5 z M 353.7 76.5 L 355.2 76.5 L 355.2 64.7 L 353.7 64.7 L 353.7 59.2 L 361.9 59.2 L 361.9 76.5 L 363.4 76.5 L 363.4 82 L 353.7 82 L 353.7 76.5 z M 354.9 48.6 L 361.9 48.6 L 361.9 55.5 L 354.9 55.5 L 354.9 48.6 z M 373.29999999999995 82.5 C 367.69999999999993 82.5 366.49999999999994 81.6 366.49999999999994 76.7 L 366.49999999999994 64.4 L 365 64.4 L 365 59.2 L 366.5 59.2 L 366.5 51 L 373.3 51 L 373.3 59.3 L 374.7 59.3 L 374.7 64.5 L 373.3 64.5 L 373.3 74.8 C 373.3 76.3 373.40000000000003 76.5 374.6 76.5 L 375 76.5 L 375 82.5 L 373.3 82.5 z M 385.69999999999993 59.2 L 385.69999999999993 73.5 C 385.69999999999993 75.5 386.19999999999993 76.4 387.69999999999993 76.4 C 389.19999999999993 76.4 389.69999999999993 75.5 389.69999999999993 73.5 L 389.69999999999993 64.8 L 388.19999999999993 64.8 L 388.19999999999993 59.3 L 396.49999999999994 59.3 L 396.49999999999994 76.6 L 397.99999999999994 76.6 L 397.99999999999994 82 L 390.3999999999999 82 L 390.3999999999999 78.8 C 388.5999999999999 81.2 386.69999999999993 82.39999999999999 384.2999999999999 82.39999999999999 C 380.3999999999999 82.39999999999999 378.8999999999999 80.1 378.8999999999999 75.3 L 378.8999999999999 64.7 L 377.3999999999999 64.7 L 377.3999999999999 59.2 L 385.69999999999993 59.2 z M 407.8999999999999 82.5 C 402.2999999999999 82.5 401.0999999999999 81.6 401.0999999999999 76.7 L 401.0999999999999 64.4 L 399.5999999999999 64.4 L 399.5999999999999 59.2 L 401.0999999999999 59.2 L 401.0999999999999 51 L 407.8999999999999 51 L 407.8999999999999 59.3 L 409.2999999999999 59.3 L 409.2999999999999 64.5 L 407.8999999999999 64.5 L 407.8999999999999 74.8 C 407.8999999999999 76.3 407.99999999999994 76.5 409.19999999999993 76.5 L 409.5999999999999 76.5 L 409.5999999999999 82.5 L 407.8999999999999 82.5 z M 420.5999999999999 82.5 C 414.9999999999999 82.5 411.9999999999999 79 411.9999999999999 72.2 L 411.9999999999999 68.9 C 411.9999999999999 62.60000000000001 415.4999999999999 58.800000000000004 420.4999999999999 58.800000000000004 C 426.0999999999999 58.800000000000004 429.1999999999999 62.300000000000004 429.1999999999999 68.80000000000001 L 429.1999999999999 72 L 418.89999999999986 72 L 418.89999999999986 73.5 C 418.89999999999986 75.8 419.4999999999999 76.9 421.09999999999985 76.9 C 422.29999999999984 76.9 422.99999999999983 76.2 423.1999999999999 74.7 L 429.2999999999999 74.7 C 429.0999999999999 79.5 425.7999999999999 82.5 420.5999999999999 82.5 z M 423.0999999999999 67.8 L 423.0999999999999 66.89999999999999 C 423.0999999999999 64.99999999999999 422.2999999999999 63.89999999999999 421.0999999999999 63.89999999999999 C 419.4999999999999 63.89999999999999 418.9999999999999 64.89999999999999 418.9999999999999 67.3 L 418.9999999999999 67.8 L 423.0999999999999 67.8 z M 459.3999999999999 73.39999999999999 C 459.3999999999999 79.3 456.3999999999999 82.39999999999999 450.7999999999999 82.39999999999999 C 445.1999999999999 82.39999999999999 442.1999999999999 79.3 442.1999999999999 73.39999999999999 L 442.1999999999999 67.8 C 442.1999999999999 61.9 445.1999999999999 58.8 450.7999999999999 58.8 C 456.3999999999999 58.8 459.3999999999999 61.9 459.3999999999999 67.8 L 459.3999999999999 73.39999999999999 z M 450.7999999999999 64.3 C 449.6999999999999 64.3 448.9999999999999 65.3 448.9999999999999 67.1 L 448.9999999999999 74.19999999999999 C 448.9999999999999 75.99999999999999 449.6999999999999 76.99999999999999 450.7999999999999 76.99999999999999 C 451.8999999999999 76.99999999999999 452.5999999999999 75.99999999999999 452.5999999999999 74.19999999999999 L 452.5999999999999 67.1 C 452.5999999999999 65.3 451.8999999999999 64.3 450.7999999999999 64.3 z M 462.1999999999999 76.5 L 463.6999999999999 76.5 L 463.6999999999999 64.4 L 462.1999999999999 64.4 L 462.1999999999999 59.2 L 463.6999999999999 59.2 L 463.6999999999999 52.6 C 463.6999999999999 48.4 465.2999999999999 46.4 469.09999999999985 46.4 L 472.29999999999984 46.4 L 472.29999999999984 51.9 L 472.09999999999985 51.9 C 470.6999999999999 51.9 470.29999999999984 52.6 470.29999999999984 54.4 L 470.29999999999984 59.199999999999996 L 471.79999999999984 59.199999999999996 L 471.79999999999984 64.39999999999999 L 470.29999999999984 64.39999999999999 L 470.29999999999984 76.49999999999999 L 471.79999999999984 76.49999999999999 L 471.79999999999984 82 L 462.09999999999985 82 L 462.09999999999985 76.5 z M 285.39999999999986 120.3 L 287.59999999999985 120.3 L 287.59999999999985 96.8 L 284.79999999999984 96.8 L 284.79999999999984 102.2 L 280 102.2 L 280 91 L 303.6 91 L 303.6 102.3 L 298.70000000000005 102.3 L 298.70000000000005 96.89999999999999 L 295.90000000000003 96.89999999999999 L 295.90000000000003 120.39999999999999 L 298.00000000000006 120.39999999999999 L 298.00000000000006 126.69999999999999 L 285.30000000000007 126.69999999999999 L 285.30000000000007 120.29999999999998 z" stroke-linecap="round" />
</g>
		<g transform="matrix(1 0 0 1 30.55 45.25)" id="eNvxaCx8fzEsUEQvlf39Q"  >
<path style="stroke: none; stroke-width: 1; stroke-dasharray: none; stroke-linecap: butt; stroke-dashoffset: 0; stroke-linejoin: miter; stroke-miterlimit: 4; fill: rgb(50,98,172); fill-rule: nonzero; opacity: 1;" vector-effect="non-scaling-stroke"  transform=" translate(-280.55, -114)" d="M 310 127 C 304.4 127 301.4 123.5 301.4 116.7 L 301.4 113.4 C 301.4 107.10000000000001 304.9 103.30000000000001 309.9 103.30000000000001 C 315.5 103.30000000000001 318.59999999999997 106.80000000000001 318.59999999999997 113.30000000000001 L 318.59999999999997 116.50000000000001 L 308.29999999999995 116.50000000000001 L 308.29999999999995 118.00000000000001 C 308.29999999999995 120.30000000000001 308.9 121.40000000000002 310.49999999999994 121.40000000000002 C 311.69999999999993 121.40000000000002 312.3999999999999 120.70000000000002 312.59999999999997 119.20000000000002 L 318.7 119.20000000000002 C 318.5 124.10000000000002 315.2 127.00000000000001 310 127.00000000000001 z M 312.5 112.3 L 312.5 111.39999999999999 C 312.5 109.49999999999999 311.7 108.39999999999999 310.5 108.39999999999999 C 308.9 108.39999999999999 308.4 109.39999999999999 308.4 111.8 L 308.4 112.3 L 312.5 112.3 z M 338.5 118.39999999999999 C 338.5 123.8 335.4 126.99999999999999 330.4 126.99999999999999 C 324.5 126.99999999999999 321.5 123.39999999999999 321.5 116.39999999999999 L 321.5 112.19999999999999 C 321.5 106.6 324.3 103.29999999999998 328.3 103.29999999999998 C 330.2 103.29999999999998 331.7 103.99999999999999 333.2 105.49999999999999 L 333.2 103.69999999999999 L 338.3 103.69999999999999 L 338.3 111.49999999999999 L 332.7 111.49999999999999 C 332.59999999999997 109.79999999999998 331.8 108.79999999999998 330.5 108.79999999999998 C 328.9 108.79999999999998 328.5 110.19999999999999 328.5 112.99999999999999 L 328.5 116.89999999999999 C 328.5 120.1 328.8 121.39999999999999 330.6 121.39999999999999 C 332 121.39999999999999 332.6 120.3 332.6 117.8 L 332.6 117.5 L 338.70000000000005 117.5 C 338.50000000000006 117.8 338.50000000000006 118.1 338.50000000000006 118.4 z M 348.5 91 L 348.5 106.2 C 350.1 104.3 351.9 103.3 354 103.3 C 357.9 103.3 359.4 105.6 359.4 110.39999999999999 L 359.4 121 L 360.9 121 L 360.9 126.5 L 352.59999999999997 126.5 L 352.59999999999997 112.2 C 352.59999999999997 110.2 352.09999999999997 109.3 350.59999999999997 109.3 C 349.09999999999997 109.3 348.59999999999997 110.2 348.59999999999997 112.2 L 348.59999999999997 120.9 L 349.99999999999994 120.9 L 349.99999999999994 126.4 L 340.29999999999995 126.4 L 340.29999999999995 121 L 341.79999999999995 121 L 341.79999999999995 96.6 L 340.29999999999995 96.6 L 340.29999999999995 91 L 348.49999999999994 91 z M 382.7 121 L 384.09999999999997 121 L 384.09999999999997 126.5 L 375.9 126.5 L 375.9 112.2 C 375.9 110.2 375.4 109.3 373.9 109.3 C 372.4 109.3 371.79999999999995 110.2 371.79999999999995 112.2 L 371.79999999999995 120.9 L 373.29999999999995 120.9 L 373.29999999999995 126.4 L 363.59999999999997 126.4 L 363.59999999999997 121 L 365.09999999999997 121 L 365.09999999999997 109.2 L 363.59999999999997 109.2 L 363.59999999999997 103.7 L 371.2 103.7 L 371.2 106.9 C 372.9 104.5 375 103.30000000000001 377.4 103.30000000000001 C 381.29999999999995 103.30000000000001 382.79999999999995 105.60000000000001 382.79999999999995 110.4 L 382.79999999999995 121 z M 403.8 117.9 C 403.8 123.80000000000001 400.8 126.9 395.2 126.9 C 389.59999999999997 126.9 386.59999999999997 123.80000000000001 386.59999999999997 117.9 L 386.59999999999997 112.30000000000001 C 386.59999999999997 106.4 389.59999999999997 103.30000000000001 395.2 103.30000000000001 C 400.8 103.30000000000001 403.8 106.4 403.8 112.30000000000001 L 403.8 117.9 z M 395.2 108.9 C 394.09999999999997 108.9 393.4 109.9 393.4 111.7 L 393.4 118.8 C 393.4 120.6 394.09999999999997 121.6 395.2 121.6 C 396.3 121.6 397 120.6 397 118.8 L 397 111.7 C 397 109.8 396.3 108.9 395.2 108.9 z M 405.9 121 L 407.4 121 L 407.4 96.6 L 405.9 96.6 L 405.9 91 L 414.2 91 L 414.2 121 L 415.59999999999997 121 L 415.59999999999997 126.5 L 405.9 126.5 L 405.9 121 z M 435 117.9 C 435 123.80000000000001 432 126.9 426.4 126.9 C 420.79999999999995 126.9 417.79999999999995 123.80000000000001 417.79999999999995 117.9 L 417.79999999999995 112.30000000000001 C 417.79999999999995 106.4 420.79999999999995 103.30000000000001 426.4 103.30000000000001 C 432 103.30000000000001 435 106.4 435 112.30000000000001 L 435 117.9 z M 426.4 108.9 C 425.29999999999995 108.9 424.59999999999997 109.9 424.59999999999997 111.7 L 424.59999999999997 118.8 C 424.59999999999997 120.6 425.29999999999995 121.6 426.4 121.6 C 427.5 121.6 428.2 120.6 428.2 118.8 L 428.2 111.7 C 428.3 109.8 427.59999999999997 108.9 426.4 108.9 z M 443.5 127 C 439.7 127 437.8 124.8 437.8 120.2 L 437.8 110.10000000000001 C 437.8 105.7 439.90000000000003 103.30000000000001 443.6 103.30000000000001 C 445.90000000000003 103.30000000000001 447.8 104.30000000000001 449 106.4 L 449 103.7 L 456.4 103.7 L 456.4 109.2 L 454.9 109.2 L 454.9 126 C 454.9 133.4 451.9 137 445.5 137 C 442.8 137 440.5 136.5 438.6 135.3 L 438.6 129.60000000000002 C 440.3 130.90000000000003 442 131.40000000000003 444 131.40000000000003 C 447 131.40000000000003 448.2 130.10000000000002 448.2 127.00000000000003 L 448.2 124.40000000000003 C 447.09999999999997 126.10000000000004 445.5 127.00000000000003 443.5 127.00000000000003 z M 446.2 121.3 C 447.59999999999997 121.3 448.2 120.5 448.2 118.8 L 448.2 111.2 C 448.2 109.60000000000001 447.7 108.9 446.4 108.9 C 445.09999999999997 108.9 444.59999999999997 109.60000000000001 444.59999999999997 111.2 L 444.59999999999997 119.3 C 444.49999999999994 120.6 445.09999999999997 121.3 446.2 121.3 z M 460.59999999999997 130.7 L 462.49999999999994 130.7 L 464.8999999999999 124.89999999999999 L 459.19999999999993 109.3 L 457.8999999999999 109.3 L 457.8999999999999 103.8 L 467.19999999999993 103.8 L 467.19999999999993 109.3 L 465.79999999999995 109.3 L 468.4 118.8 L 471.29999999999995 109.3 L 469.59999999999997 109.3 L 469.59999999999997 103.8 L 478.59999999999997 103.8 L 478.59999999999997 109.3 L 477.2 109.3 L 468.5 130.7 L 470.6 130.7 L 470.6 136.2 L 460.6 136.2 L 460.6 130.7 z M 82.49999999999994 128.6 L 84.59999999999994 128.6 L 84.59999999999994 92.8 L 82.49999999999994 91.2 z" stroke-linecap="round" />
</g>
		<g transform="matrix(1 0 0 1 -158.25 37.45)" id="uNNZQF0Y12B3eOpZ3F8mX"  >
<path style="stroke: none; stroke-width: 1; stroke-dasharray: none; stroke-linecap: butt; stroke-dashoffset: 0; stroke-linejoin: miter; stroke-miterlimit: 4; fill: rgb(50,98,172); fill-rule: nonzero; opacity: 1;" vector-effect="non-scaling-stroke"  transform=" translate(-91.75, -106.2)" d="M 82.4 91 L 100 87.6 L 100 128.6 L 103.6 128.6 L 103.6 84 L 103.8 83.8 L 79.69999999999999 88.39999999999999 z" stroke-linecap="round" />
</g>
		<g transform="matrix(1 0 0 1 -164.75 11.7)" id="UIEsJksD5soceqAQ1CDmS"  >
<path style="stroke: none; stroke-width: 1; stroke-dasharray: none; stroke-linecap: butt; stroke-dashoffset: 0; stroke-linejoin: miter; stroke-miterlimit: 4; fill: rgb(50,98,172); fill-rule: nonzero; opacity: 1;" vector-effect="non-scaling-stroke"  transform=" translate(-85.25, -80.45)" d="M 116 94.2 L 116 84.9 L 106.5 79.2 L 76.1 85.2 L 76.1 101.10000000000001 L 52.49999999999999 104.9 L 39.49999999999999 98 L 1.0999999999999943 106.3 L 1.0999999999999943 113.1 L 2.2999999999999945 113.5 L 2.2999999999999945 128.6 L 4.099999999999994 128.6 L 4.099999999999994 113.39999999999999 L 38.39999999999999 106.99999999999999 L 38.39999999999999 128.6 L 45.79999999999999 128.6 L 45.79999999999999 112 L 71.19999999999999 108 L 72.39999999999999 106 L 45.89999999999999 110.3 L 45.79999999999999 111.1 L 45.79999999999999 107.69999999999999 L 76.1 102.79999999999998 L 76.1 128.49999999999997 L 78 128.49999999999997 L 78 86.49999999999997 L 106.2 80.89999999999998 L 106.2 128.39999999999998 L 111.4 128.39999999999998 L 111.4 101.39999999999998 L 136 97.59999999999998 L 137.2 95.59999999999998 L 111.39999999999999 99.79999999999998 L 111.39999999999999 97 L 138.5 92.4 L 139.9 92.2 L 141.1 90.7 C 140.5 90.4 141 90.3 140.29999999999998 90.10000000000001 L 116 94.2 z M 38.5 105 L 3 112.1 L 3 107.8 L 38.5 100.1 L 38.5 105 z M 169.1 32.400000000000006 C 169 32.400000000000006 169 32.300000000000004 168.9 32.300000000000004 L 151.3 36 C 151.20000000000002 36 151.10000000000002 36.1 151.10000000000002 36.2 L 151.10000000000002 78.1 C 151.10000000000002 78.19999999999999 151.10000000000002 78.19999999999999 151.20000000000002 78.3 C 151.20000000000002 78.3 151.3 78.39999999999999 151.4 78.39999999999999 L 151.5 78.39999999999999 L 152.3 78.19999999999999 L 153.60000000000002 77.99999999999999 L 154.40000000000003 77.79999999999998 C 154.50000000000003 77.79999999999998 154.60000000000002 77.69999999999999 154.60000000000002 77.59999999999998 L 154.60000000000002 39.5 L 169.20000000000002 36.4 C 169.3 36.4 169.4 36.3 169.4 36.199999999999996 L 169.4 32.599999999999994 C 169.20000000000002 32.599999999999994 169.20000000000002 32.49999999999999 169.1 32.39999999999999 z" stroke-linecap="round" />
</g>
		<g transform="matrix(1 0 0 1 -93.338963289 -8.65)" id="lJRYH0SUjUyKL1rxtXMM8"  >
<path style="stroke: none; stroke-width: 1; stroke-dasharray: none; stroke-linecap: butt; stroke-dashoffset: 0; stroke-linejoin: miter; stroke-miterlimit: 4; fill: rgb(50,98,172); fill-rule: nonzero; opacity: 1;" vector-effect="non-scaling-stroke"  transform=" translate(-156.661036711, -60.1)" d="M 163.7 41.8 C 163.39999999999998 41.8 163.1 41.8 162.7 41.9 C 158.6 42.699999999999996 158.6 47.699999999999996 158.6 47.8 L 158.6 73.69999999999999 C 158.6 73.79999999999998 158.6 73.79999999999998 158.7 73.89999999999999 C 158.7 73.89999999999999 158.79999999999998 73.99999999999999 158.89999999999998 73.99999999999999 L 166.49999999999997 72.69999999999999 C 166.59999999999997 72.69999999999999 166.69999999999996 72.6 166.69999999999996 72.49999999999999 L 167.09999999999997 46.19999999999999 C 167.19999999999996 46.09999999999999 167.09999999999997 41.79999999999999 163.69999999999996 41.79999999999999 z M 148.6 48 C 148.5 48 148.5 47.9 148.4 48 C 148.20000000000002 48.1 148 48.2 147.70000000000002 48.5 C 146.20000000000002 50.2 146.20000000000002 54.3 146.20000000000002 54.5 L 146.20000000000002 78.2 C 146.20000000000002 78.3 146.3 78.4 146.3 78.4 L 146.4 78.4 C 146.5 78.4 146.5 78.4 146.6 78.30000000000001 L 148.6 76.70000000000002 C 148.7 76.70000000000002 148.7 76.60000000000002 148.7 76.50000000000001 L 148.7 48.1 L 148.6 48 z" stroke-linecap="round" />
</g>
		<g transform="matrix(1 0 0 1 -76.7304019687 -13.85)" id="Pnd6jhbSR8EGqzxf56siT"  >
<path style="stroke: none; stroke-width: 1; stroke-dasharray: none; stroke-linecap: butt; stroke-dashoffset: 0; stroke-linejoin: miter; stroke-miterlimit: 4; fill: rgb(50,98,172); fill-rule: nonzero; opacity: 1;" vector-effect="non-scaling-stroke"  transform=" translate(-173.2695980313, -54.9)" d="M 163.7 38.6 C 163.2 38.6 162.7 38.7 162.2 38.800000000000004 C 157 39.900000000000006 155.7 45.00000000000001 155.79999999999998 47.5 L 155.79999999999998 77.2 C 155.79999999999998 77.3 155.79999999999998 77.3 155.89999999999998 77.4 C 155.89999999999998 77.4 155.99999999999997 77.5 156.09999999999997 77.5 L 156.19999999999996 77.5 L 157.49999999999997 77.2 C 157.59999999999997 77.2 157.69999999999996 77.10000000000001 157.69999999999996 77 L 157.69999999999996 48.8 C 157.69999999999996 46.4 158.89999999999995 41.599999999999994 163.69999999999996 40.599999999999994 C 165.49999999999997 40.199999999999996 167.09999999999997 40.49999999999999 168.39999999999995 41.49999999999999 C 168.49999999999994 41.599999999999994 168.59999999999994 41.599999999999994 168.69999999999996 41.49999999999999 C 168.79999999999995 41.39999999999999 168.79999999999995 41.29999999999999 168.69999999999996 41.199999999999996 C 167.79999999999995 39.9 166.19999999999996 38.599999999999994 163.69999999999996 38.599999999999994 z M 190.5 36 L 172.2 31.4 L 172 31.4 C 171.9 31.4 171.9 31.5 171.9 31.599999999999998 L 172 74.7 C 172 74.8 172 74.9 172.1 74.9 C 172.2 74.9 172.2 75 172.29999999999998 74.9 L 182.29999999999998 72.2 C 182.39999999999998 72.2 182.49999999999997 72.10000000000001 182.49999999999997 72 L 182.49999999999997 48.3 C 182.49999999999997 48.099999999999994 182.49999999999997 44.599999999999994 179.89999999999998 43 C 179.99999999999997 42.8 180.09999999999997 42.7 180.2 42.5 C 180.2 42.4 180.29999999999998 42.4 180.29999999999998 42.3 C 182.89999999999998 44.3 183.6 47.699999999999996 183.6 49.4 L 183.6 76.7 C 183.6 76.8 183.7 76.9 183.79999999999998 76.9 L 185.1 77.2 C 185.2 77.2 185.29999999999998 77.2 185.29999999999998 77.10000000000001 C 185.39999999999998 77.10000000000001 185.39999999999998 77.00000000000001 185.39999999999998 76.9 L 185.39999999999998 48.1 C 185.39999999999998 45.9 184.09999999999997 42.6 181.79999999999998 41 L 184.6 39.6 L 187.79999999999998 38.4 L 188.1 38.5 L 188 77.5 C 188 77.6 188.1 77.7 188.2 77.7 L 190.39999999999998 78.4 L 190.59999999999997 78.4 C 190.69999999999996 78.4 190.69999999999996 78.30000000000001 190.69999999999996 78.2 L 190.69999999999996 36.4 C 190.69999999999996 36.4 190.79999999999995 36.3 190.69999999999996 36.199999999999996 C 190.69999999999996 36.099999999999994 190.59999999999997 35.99999999999999 190.49999999999997 35.99999999999999 z" stroke-linecap="round" />
</g>
		<g transform="matrix(1 0 0 1 -59.0350480947 -3.7)" id="kowxxbvMV1O6bj9CxbuRj"  >
<path style="stroke: none; stroke-width: 1; stroke-dasharray: none; stroke-linecap: butt; stroke-dashoffset: 0; stroke-linejoin: miter; stroke-miterlimit: 4; fill: rgb(50,98,172); fill-rule: nonzero; opacity: 1;" vector-effect="non-scaling-stroke"  transform=" translate(-190.9649519053, -65.05)" d="M 244.2 109.2 L 208.29999999999998 91.80000000000001 L 208.29999999999998 91.30000000000001 C 208.29999999999998 90.80000000000001 208.1 90.30000000000001 207.7 90.10000000000001 L 201.29999999999998 85.60000000000001 L 201.29999999999998 48.3 L 202.2 47.4 L 202.39999999999998 43.8 L 201.29999999999998 42.3 L 201.29999999999998 36.599999999999994 L 201.7 36.199999999999996 L 201.7 36 L 201.79999999999998 35.8 L 202.2 36.099999999999994 L 202.29999999999998 33.099999999999994 L 197.99999999999997 27.099999999999994 L 197.99999999999997 22.299999999999994 L 199.09999999999997 21.999999999999993 L 199.09999999999997 18.099999999999994 L 191 6.7 L 170.8 1.4000000000000004 L 170.3 1.4000000000000004 L 150 6.7 L 141.9 18.2 L 141.9 22.099999999999998 L 143 22.4 L 143 27.2 L 138.8 33.2 L 138.8 36 L 139.8 37.3 L 139.8 42.3 L 138.70000000000002 43.8 L 138.70000000000002 47.4 L 139.8 47.9 L 139.8 92.19999999999999 L 137.60000000000002 93.49999999999999 L 137.60000000000002 101.29999999999998 C 137.60000000000002 101.29999999999998 140.3 101.09999999999998 145.50000000000003 101.79999999999998 L 145.50000000000003 100.49999999999999 L 150.40000000000003 97.19999999999999 L 150.40000000000003 102.6 L 153.10000000000002 103.19999999999999 L 153.10000000000002 95.39999999999999 L 170.8 92.8 L 170.8 108.39999999999999 C 171.8 108.8 172.9 109.19999999999999 173.8 109.6 L 173.8 93 L 192.8 95.8 L 192.8 118.9 C 200.8 123.60000000000001 205.20000000000002 128.6 205.20000000000002 128.6 L 206.70000000000002 128.6 L 206.70000000000002 99 L 240.8 114.8 L 240.60000000000002 115 L 240.60000000000002 128.7 L 242.40000000000003 128.7 L 242.40000000000003 115.39999999999999 L 244.10000000000002 113.49999999999999 L 244.10000000000002 109.79999999999998 C 244.20000000000002 109.39999999999998 244.50000000000003 109.29999999999998 244.20000000000002 109.19999999999999 z M 151.89999999999998 10.299999999999997 L 170.49999999999997 5.599999999999997 L 188.99999999999997 10.299999999999997 L 188.99999999999997 21.099999999999998 L 170.69999999999996 16.4 C 170.59999999999997 16.4 170.59999999999997 16.299999999999997 170.49999999999997 16.4 L 148.19999999999996 22.2 C 148.09999999999997 22.2 148.09999999999997 22.2 148.09999999999997 22.3 L 145.09999999999997 26.6 L 145.09999999999997 21.3 C 145.09999999999997 21.2 144.99999999999997 21.1 144.89999999999998 21.1 L 144.49999999999997 21 L 151.89999999999998 10.3 z M 141.79999999999998 35.5 L 149.7 24.5 L 170.5 19.2 L 191.3 24.5 L 192.20000000000002 25.7 L 192.20000000000002 31.4 L 170.50000000000003 25.799999999999997 L 170.30000000000004 25.799999999999997 L 148 31.5 C 147.9 31.5 147.9 31.6 147.9 31.6 L 141.70000000000002 40.400000000000006 L 141.8 35.50000000000001 z M 194.89999999999998 90.3 L 194.89999999999998 91.89999999999999 L 170.59999999999997 88.69999999999999 L 150.69999999999996 91.89999999999999 L 140.29999999999995 99.1 L 140.29999999999995 96.1 L 150.39999999999995 88.89999999999999 L 170.49999999999994 85.6 L 194.59999999999994 88.69999999999999 L 194.89999999999995 88.89999999999999 L 194.89999999999995 90.3 z M 195.99999999999997 85.6 L 170.49999999999997 82.19999999999999 L 170.39999999999998 82.19999999999999 L 149.49999999999997 85.39999999999999 L 149.39999999999998 85.39999999999999 L 142.2 90.8 L 141.89999999999998 46.199999999999996 L 141.99999999999997 46.199999999999996 L 144.89999999999998 47.99999999999999 C 144.99999999999997 48.099999999999994 145.09999999999997 47.99999999999999 145.2 47.89999999999999 L 148.7 43.49999999999999 C 148.7 43.49999999999999 148.79999999999998 43.39999999999999 148.79999999999998 43.29999999999999 L 148.79999999999998 37.39999999999999 C 148.79999999999998 37.29999999999999 148.7 37.19999999999999 148.6 37.19999999999999 C 148.5 37.19999999999999 148.4 37.19999999999999 148.29999999999998 37.29999999999999 L 141.89999999999998 45.79999999999999 L 141.89999999999998 44.49999999999999 L 149.29999999999998 33.99999999999999 L 170.6 28.599999999999994 L 191.9 33.99999999999999 L 192.3 34.49999999999999 L 192.3 84.19999999999999 C 192.3 84.29999999999998 192.4 84.39999999999999 192.5 84.39999999999999 L 196.1 84.69999999999999 L 196 85.6 z M 242.39999999999998 113.3 L 242.2 113.5 L 207.6 97.3 L 207.6 97.2 L 207.5 96.7 L 207.6 96.7 C 208 96.4 208.2 96 208.2 95.5 L 208.2 94 L 242.29999999999998 110.5 L 242.29999999999998 113.3 z" stroke-linecap="round" />
</g>
</g>
</g>
</svg>