<svg id="Layer_1" data-name="Layer 1" xmlns="http://www.w3.org/2000/svg" viewBox="0 0 361.91 109.49"><defs><style>.cls-1{isolation:isolate;}.cls-2{fill:#00254e;}</style></defs><g id="Lane_Memorial_Library" data-name="Lane Memorial Library" class="cls-1"><g class="cls-1"><path class="cls-2" d="M19.58,60.19l3.62-.6V32l-3.57-.67V28H35.49v3.27L31.08,32V59.31h9.14l3.06-9.23,4.33.65L46.24,63.3H19.58Z" transform="translate(-19.58 -24.32)"/><path class="cls-2" d="M49.54,55.36a6.83,6.83,0,0,1,1.1-3.91,8.6,8.6,0,0,1,3.1-2.75,16.63,16.63,0,0,1,4.85-1.64,33.05,33.05,0,0,1,6.32-.55v-.78A7.2,7.2,0,0,0,64.72,44,2.4,2.4,0,0,0,64,42.81a3.06,3.06,0,0,0-1.43-.72,9.69,9.69,0,0,0-2.38-.24,19.86,19.86,0,0,0-2.52.15c-.78.11-1.51.23-2.19.38s-1.3.32-1.86.5-1.08.35-1.54.51h0l-1.5-2.79a11.07,11.07,0,0,1,1.56-1,20.05,20.05,0,0,1,2.64-1.23,23.61,23.61,0,0,1,3.43-1,17.42,17.42,0,0,1,3.91-.43,18,18,0,0,1,4.66.51,6.65,6.65,0,0,1,3,1.61,6.35,6.35,0,0,1,1.62,2.85,16.08,16.08,0,0,1,.48,4.22V59.61h2.53v3l-1.16.22L71.67,63c-.57.09-1.14.16-1.73.21s-1.14.08-1.65.08a8.81,8.81,0,0,1-1.48-.1,2,2,0,0,1-1-.41,1.6,1.6,0,0,1-.51-.82,4.54,4.54,0,0,1-.16-1.34v-.71A8.48,8.48,0,0,1,64,61.06a9.47,9.47,0,0,1-1.65,1.1,11.22,11.22,0,0,1-2.14.83,9.56,9.56,0,0,1-2.59.33,9.38,9.38,0,0,1-3.1-.51A7.57,7.57,0,0,1,52,61.3a7.13,7.13,0,0,1-1.77-2.5A8.58,8.58,0,0,1,49.54,55.36Zm8-.87a4.81,4.81,0,0,0,1,3.3,3.37,3.37,0,0,0,2.63,1.13,4.22,4.22,0,0,0,.88-.11,6.55,6.55,0,0,0,1-.3,7.85,7.85,0,0,0,1-.47,5.07,5.07,0,0,0,.85-.63V49.62a12.46,12.46,0,0,0-3.5.42,6.19,6.19,0,0,0-2.26,1.1,3.85,3.85,0,0,0-1.21,1.55A4.66,4.66,0,0,0,57.58,54.49Z" transform="translate(-19.58 -24.32)"/><path class="cls-2" d="M77.52,60.29l2.69-.41V42.59l-2.85-.9V37.88l8.37-1.08h.11l1.28,1v1.64l-.05,1a14.52,14.52,0,0,1,1.8-1.34A13.71,13.71,0,0,1,91.13,38a15.16,15.16,0,0,1,2.6-.81,12.28,12.28,0,0,1,2.78-.31,10.21,10.21,0,0,1,3.61.56,5.13,5.13,0,0,1,2.36,1.78,8.24,8.24,0,0,1,1.28,3.19,24.11,24.11,0,0,1,.4,4.78V59.84l2.78.4V63.3H94.05v-3l2.43-.43V47.2a21.42,21.42,0,0,0-.15-2.75,5.12,5.12,0,0,0-.56-1.84,2.54,2.54,0,0,0-1.13-1,4.32,4.32,0,0,0-1.82-.33,5.57,5.57,0,0,0-1.46.19,8.45,8.45,0,0,0-1.36.5,10.53,10.53,0,0,0-1.19.68,8.08,8.08,0,0,0-1,.73V59.86l2.69.43v3h-13Z" transform="translate(-19.58 -24.32)"/><path class="cls-2" d="M109.56,50.19a15.75,15.75,0,0,1,.93-5.59,11.55,11.55,0,0,1,2.63-4.18,11.41,11.41,0,0,1,4.08-2.62,14.54,14.54,0,0,1,5.27-.91c3.3,0,5.8.77,7.53,2.3a8.65,8.65,0,0,1,2.7,6.53c0,1,0,1.83-.08,2.56a15.66,15.66,0,0,1-.27,1.94h-15a14.56,14.56,0,0,0,.7,3.79,7.77,7.77,0,0,0,1.46,2.61,5.67,5.67,0,0,0,2.11,1.51,7.13,7.13,0,0,0,2.67.48,10.51,10.51,0,0,0,1.9-.18,13.32,13.32,0,0,0,1.86-.48,14.23,14.23,0,0,0,1.65-.63c.5-.24.93-.46,1.29-.68l1.34,2.88a8,8,0,0,1-1.6,1.27,14.14,14.14,0,0,1-2.4,1.23,19.73,19.73,0,0,1-2.93.93,13.89,13.89,0,0,1-3.22.37,15.13,15.13,0,0,1-5.73-1,10.21,10.21,0,0,1-3.93-2.71,10.79,10.79,0,0,1-2.26-4.15A18.41,18.41,0,0,1,109.56,50.19Zm15.74-3.14c0-.22,0-.49,0-.84s0-.62,0-.83a11.45,11.45,0,0,0-.18-2.11,4.5,4.5,0,0,0-.6-1.64,3,3,0,0,0-1.14-1.08,3.57,3.57,0,0,0-1.75-.39,4.86,4.86,0,0,0-1.68.28,2.85,2.85,0,0,0-1.35,1,5.87,5.87,0,0,0-.93,2.1,15.62,15.62,0,0,0-.4,3.47Z" transform="translate(-19.58 -24.32)"/><path class="cls-2" d="M147.35,60.19l4-.58,3.22-27.68-4.66-.65V28h15.35l6,20.52.86,4.5.77-4.5L178,28h15.51v3.27l-5,.67,4.13,27.64,3.94.6V63.3H180.69V60.19l3.92-.58-2.39-20.42-.9-8.49L180,37.26,173.57,62h-5.68L160.4,39l-2-8.42-.55,8.6L156.3,59.59l4.71.6V63.3H147.35Z" transform="translate(-19.58 -24.32)"/><path class="cls-2" d="M197.89,50.19a15.75,15.75,0,0,1,.93-5.59,11.25,11.25,0,0,1,6.71-6.8,14.59,14.59,0,0,1,5.28-.91q4.94,0,7.52,2.3a8.65,8.65,0,0,1,2.7,6.53c0,1,0,1.83-.08,2.56a12.6,12.6,0,0,1-.27,1.94h-15A14.18,14.18,0,0,0,206.4,54a7.77,7.77,0,0,0,1.46,2.61A5.75,5.75,0,0,0,210,58.13a7.21,7.21,0,0,0,2.67.48,10.43,10.43,0,0,0,1.9-.18,13.83,13.83,0,0,0,1.87-.48,14.78,14.78,0,0,0,1.64-.63c.5-.24.93-.46,1.29-.68l1.34,2.88a8,8,0,0,1-1.6,1.27,14.14,14.14,0,0,1-2.4,1.23,19.73,19.73,0,0,1-2.93.93,13.83,13.83,0,0,1-3.22.37,15.13,15.13,0,0,1-5.73-1,10.21,10.21,0,0,1-3.93-2.71,10.79,10.79,0,0,1-2.26-4.15A18.41,18.41,0,0,1,197.89,50.19Zm15.75-3.14c0-.22,0-.49,0-.84s0-.62,0-.83a11.45,11.45,0,0,0-.18-2.11,4.5,4.5,0,0,0-.6-1.64,2.93,2.93,0,0,0-1.13-1.08,3.62,3.62,0,0,0-1.75-.39,4.78,4.78,0,0,0-1.68.28,2.88,2.88,0,0,0-1.36,1,5.87,5.87,0,0,0-.93,2.1,15.7,15.7,0,0,0-.39,3.47Z" transform="translate(-19.58 -24.32)"/><path class="cls-2" d="M225,60.31l2.58-.43V42.59l-2.86-.9V37.88l8.37-1.08h.12l1.25,1v1.64l0,1.05a9,9,0,0,1,2-1.43A19.08,19.08,0,0,1,239,38a18.74,18.74,0,0,1,2.6-.78,11.65,11.65,0,0,1,2.32-.28,8.62,8.62,0,0,1,4.17.86,5.36,5.36,0,0,1,2.39,2.65,11.53,11.53,0,0,1,1.76-1.32A14.78,14.78,0,0,1,254.42,38a14.44,14.44,0,0,1,2.49-.78,12.87,12.87,0,0,1,2.61-.28,9.73,9.73,0,0,1,3.64.6,5.47,5.47,0,0,1,2.39,1.87,8.41,8.41,0,0,1,1.31,3.21,22.92,22.92,0,0,1,.4,4.61v12.7l2.9.43v3H257.48v-3l2.15-.45V47.36a19.23,19.23,0,0,0-.17-2.84,5.31,5.31,0,0,0-.61-1.9,2.62,2.62,0,0,0-1.18-1.06,4.49,4.49,0,0,0-1.86-.33,5,5,0,0,0-1.26.16,10.7,10.7,0,0,0-1.25.4,7.54,7.54,0,0,0-1.14.56,11.07,11.07,0,0,0-1,.61,19.16,19.16,0,0,1,.24,2c0,.7.07,1.45.07,2.26V59.86l2.82.45v3H241.39v-3l2.46-.45V47.2a21.23,21.23,0,0,0-.16-2.75,5.12,5.12,0,0,0-.56-1.84,2.54,2.54,0,0,0-1.13-1,4.32,4.32,0,0,0-1.82-.33,5.7,5.7,0,0,0-1.42.18,7.44,7.44,0,0,0-1.35.48,9,9,0,0,0-1.19.65,7.2,7.2,0,0,0-1,.75V59.86l2.67.45v3H225Z" transform="translate(-19.58 -24.32)"/><path class="cls-2" d="M272.71,50.27a14.64,14.64,0,0,1,1.09-5.87,11.92,11.92,0,0,1,2.93-4.18,12.37,12.37,0,0,1,4.25-2.5,15.26,15.26,0,0,1,5-.83,14.8,14.8,0,0,1,5.34.9,10.76,10.76,0,0,1,3.95,2.58,11.46,11.46,0,0,1,2.47,4.11,16.29,16.29,0,0,1,.86,5.46,15.1,15.1,0,0,1-1.09,6,11.5,11.5,0,0,1-7.17,6.6,15.91,15.91,0,0,1-5,.8,14.78,14.78,0,0,1-5.33-.9A10.68,10.68,0,0,1,276,59.84a11.32,11.32,0,0,1-2.47-4.11A16.29,16.29,0,0,1,272.71,50.27Zm13,9.74a3.76,3.76,0,0,0,3.54-2.3q1.14-2.3,1.14-7.22a33.91,33.91,0,0,0-.25-4.41,11.66,11.66,0,0,0-.84-3.22,5,5,0,0,0-1.48-2,3.62,3.62,0,0,0-2.23-.67A3.82,3.82,0,0,0,282,42.5q-1.18,2.3-1.18,7.22a30.38,30.38,0,0,0,.28,4.41,11.61,11.61,0,0,0,.87,3.22,4.87,4.87,0,0,0,1.51,2A3.69,3.69,0,0,0,285.74,60Z" transform="translate(-19.58 -24.32)"/><path class="cls-2" d="M302.08,60.34l3.07-.42V42.59l-2.81-.92V38l7.77-1.06h.11l1.37,1V39.3L311.47,43h.12a5.3,5.3,0,0,1,.49-1.07,9,9,0,0,1,.88-1.3,10.94,10.94,0,0,1,1.25-1.33,10.28,10.28,0,0,1,1.6-1.2,8.81,8.81,0,0,1,1.9-.85,7.06,7.06,0,0,1,2.18-.33A5.05,5.05,0,0,1,321,37a2.33,2.33,0,0,1,.73.27v8.11a5.45,5.45,0,0,0-1.6-1A6,6,0,0,0,318,44.1a10.66,10.66,0,0,0-3.24.45,6.41,6.41,0,0,0-2.09,1.05V59.89l5.47.47V63.3H302.08Z" transform="translate(-19.58 -24.32)"/><path class="cls-2" d="M324.51,60.19l3.1-.46V41.92l-3.13-1V37.42l9.14-1.16h.11l1.44,1V59.75l3,.44V63.3H324.51Zm4.74-27.74a3.73,3.73,0,0,1-1.27-.81,3.69,3.69,0,0,1-.82-1.23,4,4,0,0,1-.29-1.52,5.41,5.41,0,0,1,.29-1.76,4.12,4.12,0,0,1,.86-1.46,4,4,0,0,1,1.4-1,4.77,4.77,0,0,1,1.9-.36h0a4.78,4.78,0,0,1,1.8.32,3.89,3.89,0,0,1,1.31.84,3.51,3.51,0,0,1,.81,1.24,4,4,0,0,1,.28,1.5,5.39,5.39,0,0,1-.29,1.77,3.9,3.9,0,0,1-2.32,2.4,5.53,5.53,0,0,1-2.05.35h0A4.35,4.35,0,0,1,329.25,32.45Z" transform="translate(-19.58 -24.32)"/><path class="cls-2" d="M340.78,55.36a6.9,6.9,0,0,1,1.1-3.91A8.55,8.55,0,0,1,345,48.7a16.46,16.46,0,0,1,4.84-1.64,33.13,33.13,0,0,1,6.32-.55v-.78A7.24,7.24,0,0,0,356,44a2.47,2.47,0,0,0-.71-1.21,3.15,3.15,0,0,0-1.44-.72,9.63,9.63,0,0,0-2.38-.24,19.81,19.81,0,0,0-2.51.15c-.78.11-1.51.23-2.19.38s-1.3.32-1.87.5-1.08.35-1.54.51h0L341.8,40.6a11.71,11.71,0,0,1,1.56-1A20.23,20.23,0,0,1,346,38.35a23.24,23.24,0,0,1,3.43-1,17.36,17.36,0,0,1,3.91-.43,18.15,18.15,0,0,1,4.66.51A6.65,6.65,0,0,1,361,39a6.34,6.34,0,0,1,1.61,2.85,16,16,0,0,1,.49,4.22V59.61h2.52v3l-1.15.22-1.57.25c-.56.09-1.14.16-1.73.21s-1.13.08-1.64.08a8.94,8.94,0,0,1-1.49-.1,2,2,0,0,1-1-.41,1.6,1.6,0,0,1-.51-.82,5,5,0,0,1-.15-1.34v-.71a9.81,9.81,0,0,1-1.17,1.12,9.56,9.56,0,0,1-1.66,1.1,10.86,10.86,0,0,1-2.13.83,9.69,9.69,0,0,1-2.6.33,9.36,9.36,0,0,1-3.09-.51,7.61,7.61,0,0,1-2.59-1.51,7.11,7.11,0,0,1-1.76-2.5A8.58,8.58,0,0,1,340.78,55.36Zm8.05-.87a4.81,4.81,0,0,0,1,3.3,3.38,3.38,0,0,0,2.63,1.13,4.31,4.31,0,0,0,.89-.11,6.44,6.44,0,0,0,1-.3,8,8,0,0,0,1-.47,5.42,5.42,0,0,0,.84-.63V49.62a12.46,12.46,0,0,0-3.5.42,6.27,6.27,0,0,0-2.26,1.1,3.94,3.94,0,0,0-1.21,1.55A4.65,4.65,0,0,0,348.83,54.49Z" transform="translate(-19.58 -24.32)"/><path class="cls-2" d="M367.79,60.19l3.11-.46V28.94l-3.41-.6V25.48l9.36-1.13H377l1.39,1V59.73l3.13.46V63.3h-13.7Z" transform="translate(-19.58 -24.32)"/></g><g class="cls-1"><path class="cls-2" d="M19.58,119.18l3.62-.6V90.94l-3.57-.67V87H35.49v3.27l-4.41.67V118.3h9.14l3.06-9.22,4.33.64-1.37,12.57H19.58Z" transform="translate(-19.58 -24.32)"/><path class="cls-2" d="M50,119.18l3.1-.46V100.91L50,100V96.42l9.14-1.16h.11l1.44,1v22.46l3,.44v3.11H50Zm4.74-27.74a3.73,3.73,0,0,1-1.27-.81,3.69,3.69,0,0,1-.82-1.23,4,4,0,0,1-.29-1.52,5.46,5.46,0,0,1,.29-1.76,4.21,4.21,0,0,1,.86-1.46,4.06,4.06,0,0,1,1.4-1,4.77,4.77,0,0,1,1.9-.36h0a4.73,4.73,0,0,1,1.79.31,3.76,3.76,0,0,1,1.31.85,3.42,3.42,0,0,1,.81,1.24A4,4,0,0,1,61,87.21,5.4,5.4,0,0,1,60.72,89a4,4,0,0,1-.87,1.43,4.06,4.06,0,0,1-1.45,1,5.54,5.54,0,0,1-2,.34h0A4.16,4.16,0,0,1,54.72,91.44Z" transform="translate(-19.58 -24.32)"/><path class="cls-2" d="M68.31,88.49l-3.4-.58V85.15L74.09,84h.11l1.53.95V98.69a9.7,9.7,0,0,1,1.26-1,10.35,10.35,0,0,1,1.58-.9,9.23,9.23,0,0,1,1.88-.63,9.12,9.12,0,0,1,2.12-.24,11.38,11.38,0,0,1,4,.7,8.42,8.42,0,0,1,3.25,2.2A10.77,10.77,0,0,1,92,102.64a17.44,17.44,0,0,1,.82,5.71,15.31,15.31,0,0,1-1,5.51A12.83,12.83,0,0,1,89,118.29a13.11,13.11,0,0,1-4.46,2.95,15.69,15.69,0,0,1-5.92,1.07,35.22,35.22,0,0,1-4-.21c-1.2-.14-2.24-.31-3.12-.49a16.23,16.23,0,0,1-2.13-.58,5.33,5.33,0,0,1-1-.49Zm7.42,29.81a1.84,1.84,0,0,0,1.1.78,6.78,6.78,0,0,0,2.08.29,4.49,4.49,0,0,0,2.35-.64,5.54,5.54,0,0,0,1.86-1.92,11,11,0,0,0,1.22-3.21,22,22,0,0,0,.46-4.52,18.21,18.21,0,0,0-.35-4,8.88,8.88,0,0,0-1-2.75,4.36,4.36,0,0,0-1.64-1.59,4.46,4.46,0,0,0-2.12-.51,4.26,4.26,0,0,0-1.26.18,5.1,5.1,0,0,0-1.09.46,4.85,4.85,0,0,0-.89.62,5,5,0,0,0-.68.71Z" transform="translate(-19.58 -24.32)"/><path class="cls-2" d="M96.44,119.33l3.06-.42V101.59l-2.81-.93V97l7.77-1.07h.12l1.36,1v1.34l-.11,3.67h.11a6.71,6.71,0,0,1,.49-1.07,10,10,0,0,1,.88-1.3,12.7,12.7,0,0,1,1.25-1.33,10.07,10.07,0,0,1,1.6-1.19,8.38,8.38,0,0,1,1.9-.86,7.06,7.06,0,0,1,2.18-.33,4.92,4.92,0,0,1,1.08.11,2.24,2.24,0,0,1,.73.27v8.11a5.45,5.45,0,0,0-1.6-1,6,6,0,0,0-2.11-.32,10.53,10.53,0,0,0-3.23.46,6.19,6.19,0,0,0-2.1,1v14.3l5.47.46v2.94h-16Z" transform="translate(-19.58 -24.32)"/><path class="cls-2" d="M118.42,114.35a6.85,6.85,0,0,1,1.1-3.91,8.55,8.55,0,0,1,3.11-2.75,16.76,16.76,0,0,1,4.84-1.64,33.88,33.88,0,0,1,6.32-.55v-.78a6.58,6.58,0,0,0-.19-1.7,2.45,2.45,0,0,0-.7-1.22,3.15,3.15,0,0,0-1.44-.72,9.7,9.7,0,0,0-2.38-.23,19.81,19.81,0,0,0-2.51.15,21.6,21.6,0,0,0-2.19.38c-.69.15-1.31.31-1.87.49l-1.54.51h0l-1.5-2.79a11.71,11.71,0,0,1,1.56-1,23.22,23.22,0,0,1,2.65-1.23,24.51,24.51,0,0,1,3.43-1,19.72,19.72,0,0,1,8.56.08,6.7,6.7,0,0,1,3,1.61,6.26,6.26,0,0,1,1.62,2.85,16.08,16.08,0,0,1,.48,4.22V118.6h2.53v3l-1.16.22-1.56.25c-.57.09-1.14.16-1.73.21a16.22,16.22,0,0,1-1.65.08,8.81,8.81,0,0,1-1.48-.1,1.92,1.92,0,0,1-1-.41,1.6,1.6,0,0,1-.51-.82,4.92,4.92,0,0,1-.15-1.33v-.72a9.82,9.82,0,0,1-1.17,1.13,10.16,10.16,0,0,1-3.8,1.92,9.56,9.56,0,0,1-2.59.33,9.42,9.42,0,0,1-3.1-.51,7.41,7.41,0,0,1-2.58-1.51,7.16,7.16,0,0,1-1.76-2.49A8.46,8.46,0,0,1,118.42,114.35Zm8-.87a4.81,4.81,0,0,0,1,3.3,3.37,3.37,0,0,0,2.63,1.13,4.94,4.94,0,0,0,.88-.1,6.27,6.27,0,0,0,1-.31,7.22,7.22,0,0,0,1-.47,5.07,5.07,0,0,0,.85-.63v-7.79a12.46,12.46,0,0,0-3.5.42,6.35,6.35,0,0,0-2.26,1.1,3.92,3.92,0,0,0-1.21,1.55A4.66,4.66,0,0,0,126.46,113.48Z" transform="translate(-19.58 -24.32)"/><path class="cls-2" d="M146,119.33l3.06-.42V101.59l-2.81-.93V97L154,95.93h.11l1.37,1v1.34L155.4,102h.11a5.92,5.92,0,0,1,.49-1.07,9,9,0,0,1,.88-1.3,12.7,12.7,0,0,1,1.25-1.33,9.64,9.64,0,0,1,1.6-1.19,8.38,8.38,0,0,1,1.9-.86,7.06,7.06,0,0,1,2.18-.33,5.05,5.05,0,0,1,1.08.11,2.24,2.24,0,0,1,.73.27v8.11a5.45,5.45,0,0,0-1.6-1,6,6,0,0,0-2.11-.32,10.53,10.53,0,0,0-3.23.46,6.19,6.19,0,0,0-2.1,1v14.3l5.47.46v2.94H146Z" transform="translate(-19.58 -24.32)"/><path class="cls-2" d="M170.34,128c.25.07.54.13.86.19a9.83,9.83,0,0,0,1,.14c.35,0,.66,0,.94,0a6,6,0,0,0,2.08-.34A5.23,5.23,0,0,0,177,127a8.93,8.93,0,0,0,1.48-1.89,19.43,19.43,0,0,0,1.33-2.8h-2.94l-8.67-22.74L166,98.94v-3h13.79v3l-3.27.61,4,12.89,1.41,4.91,1.18-4.91,3.69-12.94-2.87-.56v-3h10.64v3l-2.23.55q-.73,2.33-1.61,4.88t-1.73,5c-.57,1.67-1.12,3.26-1.67,4.8l-1.44,4.1c-.43,1.2-.79,2.2-1.08,3s-.48,1.26-.56,1.43a42.2,42.2,0,0,1-2.07,4.73,16.14,16.14,0,0,1-2.39,3.47,9.31,9.31,0,0,1-2.92,2.15,8.72,8.72,0,0,1-3.65.73h-1a7.54,7.54,0,0,1-1-.06c-.31,0-.6-.08-.87-.13a3.5,3.5,0,0,1-.64-.2v-5.6A2.45,2.45,0,0,0,170.34,128Z" transform="translate(-19.58 -24.32)"/></g></g></svg>