<svg xmlns="http://www.w3.org/2000/svg" width="574.46px" height="190.54" viewBox="0 0 574.46 190.54"><defs><style>.cls-1{isolation:isolate;}.cls-2{fill:#a9c438;}.cls-2,.cls-3,.cls-4,.cls-5{mix-blend-mode:multiply;}.cls-3,.cls-6{fill:#f15a25;}.cls-4{fill:#f89820;}.cls-7{fill:#231f20;}</style></defs><title>forefront-color-tagline</title><g class="cls-1"><g id="Layer_1" data-name="Layer 1"><path class="cls-2" d="M710.72,428.8A58.76,58.76,0,1,1,740,420.92,58.95,58.95,0,0,1,710.72,428.8ZM710.62,321a49,49,0,1,0,42.51,24.52A49,49,0,0,0,710.62,321Z" transform="translate(-324.9 -305.37)"/><path class="cls-3" d="M722.79,422.86a58.75,58.75,0,1,1,58.74-58.75A58.83,58.83,0,0,1,722.79,422.86Zm0-107.78a49,49,0,1,0,49,49A49.09,49.09,0,0,0,722.79,315.08Z" transform="translate(-324.9 -305.37)"/><path class="cls-4" d="M721.82,436.33A58.75,58.75,0,1,1,772.75,407,58.63,58.63,0,0,1,721.82,436.33Zm.1-107.79a49,49,0,1,0,24.47,6.57A49.2,49.2,0,0,0,721.92,328.54Z" transform="translate(-324.9 -305.37)"/><g class="cls-5"><path class="cls-6" d="M568.9,466.44c.36,0,5.15-.18,5.69-.27,1.3-.22,1.65-.58,2.06-2A10.52,10.52,0,0,0,577,462a.29.29,0,0,1,.32-.31l1.12,0a.27.27,0,0,1,.27.36c-.14.76-.14,4.43-.14,5.1,0,1.57.18,3.72.27,4.66,0,.23-.09.32-.27.36l-1,.13c-.23,0-.32-.08-.36-.4-.09-.58-.36-1.61-.49-2.1a2.1,2.1,0,0,0-1.93-1.75c-2.1-.22-5.19-.22-5.91-.22v2.77c0,2.42.09,6.77.09,7.66,0,2.33,1.16,3.23,2.55,3.49a18.52,18.52,0,0,0,3.32.32c.76,0,3-.05,3.94-.14a8.64,8.64,0,0,0,3.89-1.56,40.4,40.4,0,0,0,3.67-4.71c.14-.22.27-.4.54-.26l.72.4c.22.13.22.27.09.62l-2.37,6.59a1,1,0,0,1-1,.67c-.22,0-1.21,0-3.9-.09s-7,0-14,0c-1.66,0-2.92,0-3.81,0s-1.52.09-1.93.09-.4-.09-.4-.31v-1.21c0-.18.13-.23.45-.23h1.79c2.06,0,2.24-.31,2.24-2V465c0-3.72-.09-9.31-.14-9.76-.17-1.44-.62-1.75-2.28-1.75h-1.61c-.23,0-.36,0-.36-.31V452c0-.14.09-.23.31-.23,1,0,2.56.14,5.51.14h2c4.44,0,8.87-.05,13.3-.05.72,0,1.57-.09,1.79-.09s.32.09.36.23c.18.62,2.15,6.76,2.29,7.21,0,.18,0,.31-.14.4l-.67.36c-.13.09-.31-.05-.36-.13s-3.4-4.44-4.48-5.11a6.84,6.84,0,0,0-3.4-1.21l-8-.18Z" transform="translate(-324.9 -305.37)"/><path class="cls-6" d="M607.42,481.18c0,.71.4.94,1,.94h1.44c.4,0,.49.13.49.4v.72c0,.31-.09.49-.36.49s-1.7-.13-4.25-.13c-2.29,0-3.72.13-4,.13s-.36-.13-.36-.49v-.72c0-.31.13-.4.58-.4h1.3c.49,0,.85-.23.89-1,0-1.17.09-2.6.09-3.76v-5.92c0-1.79,0-3.09-1.3-4a4.9,4.9,0,0,0-3.26-.8,5.24,5.24,0,0,0-3.63,1.74,4.39,4.39,0,0,0-1,3.05v9.27c0,1.21.13,1.48,1.07,1.48h1.12c.36,0,.45.13.45.45v.76c0,.27-.09.4-.31.4s-1.53-.13-3.9-.13-3.72.13-4,.13-.31-.13-.31-.4v-.81c0-.27.09-.4.45-.4h1.3c.58,0,.89-.14.89-.9V470.74a2.76,2.76,0,0,0-1.83-2.64l-.36-.18c-.31-.13-.36-.27-.36-.4v-.23c0-.22.18-.35.4-.44l3.86-2.15a2.31,2.31,0,0,1,.8-.32c.23,0,.31.18.36.54l.31,2.73H595a9,9,0,0,1,6.14-3.27,6.86,6.86,0,0,1,3.8,1,6.49,6.49,0,0,1,2.47,4.25Z" transform="translate(-324.9 -305.37)"/><path class="cls-6" d="M612.3,494.34a4,4,0,0,1-2.28-3.62c0-2.51,2.55-4.44,4.7-5.38v-.18a3.47,3.47,0,0,1-3-3.13c0-2.15,2.46-3.67,4-4.26v-.09a7.1,7.1,0,0,1-4.16-6.8c0-2.91,2.59-6.5,7.66-6.5a7.18,7.18,0,0,1,5.64,2.6,8,8,0,0,1,4.21-1.75c1.48,0,2.19,1,2.1,1.89a1.69,1.69,0,0,1-1.74,1.65,2.24,2.24,0,0,1-1.57-.67,1.77,1.77,0,0,0-.94-.4,3.27,3.27,0,0,0-1.44.27,8.38,8.38,0,0,1,.68,3.4,7.42,7.42,0,0,1-1.66,4.84,8.39,8.39,0,0,1-5.2,2.24,8.29,8.29,0,0,1-2.28-.23c-.9.36-2.37,1.26-2.37,2.51,0,1.84,2.24,1.7,5.24,1.52,3.67-.18,5.91.23,7.7,1.61a5.28,5.28,0,0,1,2.19,4.3,6.38,6.38,0,0,1-3,5.51,13.45,13.45,0,0,1-7.65,2.11A14,14,0,0,1,612.3,494.34Zm14.78-4.61c0-2.64-2-4.66-6.49-4.34l-4.3.31a4.79,4.79,0,0,0-3.58,4.3,4.32,4.32,0,0,0,1.74,3.09c1.48,1,3.09,1.25,6.27,1.25C622.38,494.34,627.31,493.18,627.08,489.73Zm-4.16-19.08a5.59,5.59,0,0,0-1.21-4,3.39,3.39,0,0,0-2.15-1,4.12,4.12,0,0,0-3.18,1.25,7.42,7.42,0,0,0-1.61,5.29,5.55,5.55,0,0,0,1.43,3.89,3.66,3.66,0,0,0,2.69,1.12C621.93,477.19,622.92,473.47,622.92,470.65Z" transform="translate(-324.9 -305.37)"/><path class="cls-6" d="M644.37,478.27c0,2.55.54,3.36,1.35,3.36a2,2,0,0,0,1.56-.68c.18-.22.27-.31.45-.18l.45.36c.13.14.22.36,0,.81a3.69,3.69,0,0,1-3.49,2.19c-1.61,0-2.78-1.16-3.18-3h-.09a9.65,9.65,0,0,1-4.43,2.73,8.41,8.41,0,0,1-2.65.27c-1.07,0-2.68-.89-2.68-3.71,0-2.06.94-3.86,4.48-5.42a30.08,30.08,0,0,0,5.06-2.6v-2.87a5.21,5.21,0,0,0-.63-2.5,3.38,3.38,0,0,0-2.69-1,5.05,5.05,0,0,0-2.91.94c-.63.58-.22,1.25-.22,2.06,0,1.57-.54,2.55-2.37,2.55-.72,0-1.08-.4-1.08-1.43,0-1.43,1.25-3.13,3.09-4.21a9.88,9.88,0,0,1,5.46-1.57,4.62,4.62,0,0,1,3.59,1.21,4,4,0,0,1,1,3.18v9.5Zm-3.27-4.53c-1.61,1.21-6,2.11-6,5.83a2.21,2.21,0,0,0,2.33,2.46c1.3,0,3.67-1.57,3.67-2.78Z" transform="translate(-324.9 -305.37)"/><path class="cls-6" d="M649.57,494.34a4,4,0,0,1-2.28-3.62c0-2.51,2.55-4.44,4.7-5.38v-.18a3.47,3.47,0,0,1-3-3.13c0-2.15,2.46-3.67,4-4.26v-.09a7.11,7.11,0,0,1-4.17-6.8c0-2.91,2.6-6.5,7.66-6.5a7.16,7.16,0,0,1,5.64,2.6,8,8,0,0,1,4.21-1.75c1.48,0,2.2,1,2.11,1.89a1.7,1.7,0,0,1-1.75,1.65,2.26,2.26,0,0,1-1.57-.67,1.74,1.74,0,0,0-.94-.4,3.24,3.24,0,0,0-1.43.27,8.4,8.4,0,0,1,.67,3.4,7.36,7.36,0,0,1-1.66,4.84,8,8,0,0,1-7.47,2c-.9.36-2.38,1.26-2.38,2.51,0,1.84,2.24,1.7,5.24,1.52,3.67-.18,5.91.23,7.71,1.61a5.28,5.28,0,0,1,2.19,4.3,6.38,6.38,0,0,1-3,5.51,13.46,13.46,0,0,1-7.66,2.11A14,14,0,0,1,649.57,494.34Zm14.78-4.61c0-2.64-2-4.66-6.5-4.34l-4.3.31c-1.38.36-3.58,1.88-3.58,4.3a4.29,4.29,0,0,0,1.75,3.09c1.48,1,3.09,1.25,6.27,1.25C659.65,494.34,664.57,493.18,664.35,489.73Zm-4.17-19.08a5.55,5.55,0,0,0-1.21-4,3.37,3.37,0,0,0-2.15-1,4.13,4.13,0,0,0-3.18,1.25,7.42,7.42,0,0,0-1.61,5.29,5.56,5.56,0,0,0,1.44,3.89,3.64,3.64,0,0,0,2.68,1.12C659.2,477.19,660.18,473.47,660.18,470.65Z" transform="translate(-324.9 -305.37)"/><path class="cls-6" d="M671.16,470.56c0-1.52-.27-2.33-2.51-2.68-.31-.05-.4-.14-.4-.32v-.4c0-.13.09-.22.31-.31a37.25,37.25,0,0,0,4.84-2.2,1.84,1.84,0,0,1,.85-.27c.22,0,.27.23.22.54-.09.76-.09,3.58-.09,7.3v4.88c0,1.75,0,3.36,0,3.85.09.85.22,1.17.71,1.17h2.06c.36,0,.45.13.45.4v.76c0,.32-.09.45-.4.45s-2.42-.13-4.3-.13c-2.6,0-4.34.13-4.84.13a.31.31,0,0,1-.36-.36v-.89c0-.27.14-.36.45-.36h2.2c.49,0,.67-.18.71-.9,0-1.34,0-2.73,0-4.07Zm-2.11-13.75a2.64,2.64,0,0,1,2.82-2.5,2.36,2.36,0,0,1,2.42,2.37,2.56,2.56,0,0,1-2.68,2.64A2.74,2.74,0,0,1,669.05,456.81Z" transform="translate(-324.9 -305.37)"/><path class="cls-6" d="M696.82,481.18c0,.71.4.94,1,.94h1.43c.4,0,.49.13.49.4v.72c0,.31-.09.49-.36.49s-1.7-.13-4.25-.13c-2.28,0-3.72.13-4,.13s-.36-.13-.36-.49v-.72c0-.31.14-.4.58-.4h1.3c.49,0,.85-.23.9-1,0-1.17.09-2.6.09-3.76v-5.92c0-1.79,0-3.09-1.3-4a4.94,4.94,0,0,0-3.27-.8,5.26,5.26,0,0,0-3.63,1.74,4.44,4.44,0,0,0-1,3.05v9.27c0,1.21.14,1.48,1.08,1.48h1.12c.35,0,.44.13.44.45v.76c0,.27-.09.4-.31.4s-1.52-.13-3.9-.13-3.71.13-4,.13-.32-.13-.32-.4v-.81c0-.27.09-.4.45-.4h1.3c.58,0,.9-.14.9-.9V470.74a2.77,2.77,0,0,0-1.84-2.64l-.36-.18c-.31-.13-.36-.27-.36-.4v-.23c0-.22.18-.35.41-.44l3.85-2.15a2.47,2.47,0,0,1,.8-.32c.23,0,.32.18.36.54l.32,2.73h.09a9,9,0,0,1,6.13-3.27,6.92,6.92,0,0,1,3.81,1,6.51,6.51,0,0,1,2.46,4.25Z" transform="translate(-324.9 -305.37)"/><path class="cls-6" d="M701.71,494.34a4,4,0,0,1-2.29-3.62c0-2.51,2.55-4.44,4.7-5.38v-.18a3.47,3.47,0,0,1-3-3.13c0-2.15,2.47-3.67,4-4.26v-.09a7.12,7.12,0,0,1-4.16-6.8c0-2.91,2.6-6.5,7.66-6.5a7.18,7.18,0,0,1,5.64,2.6,8,8,0,0,1,4.21-1.75c1.48,0,2.19,1,2.11,1.89a1.7,1.7,0,0,1-1.75,1.65,2.26,2.26,0,0,1-1.57-.67,1.77,1.77,0,0,0-.94-.4,3.24,3.24,0,0,0-1.43.27,8.4,8.4,0,0,1,.67,3.4,7.36,7.36,0,0,1-1.66,4.84,8,8,0,0,1-7.48,2c-.89.36-2.37,1.26-2.37,2.51,0,1.84,2.24,1.7,5.24,1.52,3.67-.18,5.91.23,7.7,1.61a5.29,5.29,0,0,1,2.2,4.3,6.38,6.38,0,0,1-3,5.51,13.52,13.52,0,0,1-7.66,2.11A14,14,0,0,1,701.71,494.34Zm14.77-4.61c0-2.64-2-4.66-6.49-4.34l-4.3.31a4.79,4.79,0,0,0-3.58,4.3,4.29,4.29,0,0,0,1.75,3.09c1.47,1,3.09,1.25,6.27,1.25C711.78,494.34,716.71,493.18,716.48,489.73Zm-4.16-19.08a5.55,5.55,0,0,0-1.21-4,3.39,3.39,0,0,0-2.15-1,4.13,4.13,0,0,0-3.18,1.25,7.42,7.42,0,0,0-1.61,5.29,5.55,5.55,0,0,0,1.43,3.89,3.66,3.66,0,0,0,2.69,1.12C711.33,477.19,712.32,473.47,712.32,470.65Z" transform="translate(-324.9 -305.37)"/><path class="cls-6" d="M733.1,467H730c-.22,0-.31-.09-.22-.5l.18-1.34c0-.27.18-.31.54-.31h2.59v-.81c0-4.43,1.26-7.35,3-9.32a9.61,9.61,0,0,1,7.34-3.53c2.1,0,4.08.8,4.08,2.5a2.15,2.15,0,0,1-1.89,1.93,2.86,2.86,0,0,1-1.25-.27,4.41,4.41,0,0,1-1.07-1,2.47,2.47,0,0,0-2.07-1,4,4,0,0,0-3.35,1.57c-1.66,2.1-1.57,6-1.57,9.13v.86h5.42a.32.32,0,0,1,.31.44l-.22,1.48c-.05.18-.23.23-.59.23h-4.92v4c0,5.28,0,9.4,0,9.89.09.76.23,1.17,1.17,1.17h2.55c.4,0,.49.09.49.36v.71c0,.36-.09.54-.31.54s-1.93-.13-5.37-.13c-2.47,0-4.75.13-5.11.13s-.36-.09-.36-.31v-1c0-.22.09-.31.45-.31H732c.85,0,1-.54,1.07-1.57V467Z" transform="translate(-324.9 -305.37)"/><path class="cls-6" d="M744.66,481c-2.06-2.46-2.46-4.12-2.46-7.3a9.53,9.53,0,0,1,3.85-7.21,9.7,9.7,0,0,1,6-2.15,9.5,9.5,0,0,1,6.27,2.6,10,10,0,0,1,3,7.3,10.22,10.22,0,0,1-9.9,9.85A9,9,0,0,1,744.66,481Zm12.94-7.21c0-5-3.62-8.1-5.91-8.1a4.34,4.34,0,0,0-3.45,1.43c-1.74,1.79-2.37,3.63-2.37,7a9.67,9.67,0,0,0,1.7,6.27,5,5,0,0,0,4.43,2.33C755.41,482.79,757.6,478.63,757.6,473.83Z" transform="translate(-324.9 -305.37)"/><path class="cls-6" d="M765.49,471.68c0-2.28-.36-2.73-1.61-3.4l-.86-.45c-.26-.09-.35-.13-.35-.31v-.27c0-.18.09-.27.35-.4l4.44-2.29a1.42,1.42,0,0,1,.62-.18c.27,0,.32.27.32.54l.22,3.18h.18c1.35-2.06,3.45-3.9,5.38-3.9a2,2,0,0,1,2.28,2,2.17,2.17,0,0,1-1.88,2.2,3,3,0,0,1-1.3-.36,2.94,2.94,0,0,0-1.48-.36,3.19,3.19,0,0,0-2.64,1.88,4.85,4.85,0,0,0-.45,1.44v9.31c0,1.39.32,1.84,1.26,1.84h2.1c.27,0,.31.13.31.4v.81c0,.27,0,.4-.22.4s-2.33-.13-4.75-.13c-2.77,0-4.65.13-4.92.13s-.27-.09-.27-.45v-.76c0-.31.09-.4.49-.4h1.75c.67,0,1-.27,1-.85,0-1.48,0-3,0-5.38Z" transform="translate(-324.9 -305.37)"/><path class="cls-6" d="M788.78,470.56c0-1.52-.27-2.33-2.51-2.68-.31-.05-.4-.14-.4-.32v-.4c0-.13.09-.22.31-.31a37.25,37.25,0,0,0,4.84-2.2,1.84,1.84,0,0,1,.85-.27c.22,0,.27.23.22.54-.09.76-.09,3.58-.09,7.3v4.88c0,1.75,0,3.36,0,3.85.09.85.22,1.17.71,1.17h2.07c.35,0,.44.13.44.4v.76c0,.32-.09.45-.4.45s-2.42-.13-4.3-.13c-2.6,0-4.34.13-4.84.13-.22,0-.35-.09-.35-.36v-.89c0-.27.13-.36.44-.36H788c.49,0,.67-.18.71-.9,0-1.34,0-2.73,0-4.07Zm-2.11-13.75a2.64,2.64,0,0,1,2.83-2.5,2.35,2.35,0,0,1,2.41,2.37,2.56,2.56,0,0,1-2.68,2.64A2.74,2.74,0,0,1,786.67,456.81Z" transform="translate(-324.9 -305.37)"/><path class="cls-6" d="M811.13,472.13c0-3.31-.63-4.16-1.34-4.84a4.91,4.91,0,0,0-2.87-.8,5.18,5.18,0,0,0-4.3,2.6,5.28,5.28,0,0,0-.63,3V481c0,.72.27,1.17.9,1.17h1.61c.4,0,.45.09.45.4v.72c0,.31-.05.49-.36.49s-1.61-.13-4.08-.13-3.8.13-4.16.13-.36-.09-.36-.4v-.81c0-.36.09-.4.54-.4h1.52c.4,0,.63-.27.67-1.12s0-1.57,0-2.33v-8a2.28,2.28,0,0,0-1.26-2.29l-.94-.49c-.22-.13-.31-.22-.31-.36v-.36a.54.54,0,0,1,.27-.35l3.94-2a2.21,2.21,0,0,1,.85-.27c.27,0,.4.32.4.63l.18,2.6H802a8.68,8.68,0,0,1,6.58-3.41,5.44,5.44,0,0,1,5.06,3.45h.23a8.85,8.85,0,0,1,6.58-3.45,5.32,5.32,0,0,1,4,1.35c1,1.07,2.15,2.06,2.15,5.51v10c0,.67.4.9.94.9h1.21c.4,0,.49.09.49.4v.76c0,.32-.09.45-.31.45s-1.57-.13-3.72-.13-3.85.13-4.16.13-.36-.13-.36-.45v-.76c0-.31.09-.4.58-.4h1.12a.81.81,0,0,0,.89-.85c.09-1,.09-2.64.09-3.63V471c0-1.48-.26-2.78-1.29-3.58a5.4,5.4,0,0,0-3.32-.94,5.06,5.06,0,0,0-3.9,2.33c-.67,1.3-.62,2.51-.62,4.52v7.75c0,.58.22,1,.89,1h1.53c.4,0,.49.09.49.4v.72c0,.36-.09.49-.31.49s-1.48-.13-4-.13-3.94.13-4.21.13-.31-.13-.31-.45v-.71c0-.36,0-.45.44-.45h1.3c.72,0,1-.18,1-.76Z" transform="translate(-324.9 -305.37)"/><path class="cls-6" d="M832.67,470.92c0-1.07-.31-1.7-1.61-2.42l-1-.58c-.31-.13-.31-.27-.31-.4v-.36c0-.13.09-.22.31-.31l4.3-2.15a2.6,2.6,0,0,1,1-.36c.23,0,.32.22.32.89l.18,2.15H836a8.3,8.3,0,0,1,6.54-3,7.12,7.12,0,0,1,5.1,2.2c1.7,1.7,2.42,3.54,2.42,7,0,5.87-4.07,10.57-9.67,10.57a12.78,12.78,0,0,1-4.48-.76v9.45c0,1.26.31,1.48,1,1.48h2c.35,0,.4.18.4.45v.76c0,.27-.09.4-.4.4s-1.75-.13-4.62-.13c-2.59,0-4.16.13-4.52.13s-.4-.13-.4-.4v-.81c0-.22.09-.4.53-.4h1.75c.76,0,.85-.45.94-1.12.13-1,.13-3.4.13-7.79Zm3.23,8.2a2.49,2.49,0,0,0,.94,2.37,7.19,7.19,0,0,0,4.48,1.21c2.55,0,5.19-1.93,5.19-7.48,0-6.27-2.82-8.78-5.82-8.78a5.69,5.69,0,0,0-4.79,2.87Z" transform="translate(-324.9 -305.37)"/><path class="cls-6" d="M865,478.27c0,2.55.54,3.36,1.34,3.36a2,2,0,0,0,1.57-.68c.18-.22.27-.31.45-.18l.45.36c.13.14.22.36,0,.81a3.7,3.7,0,0,1-3.49,2.19c-1.61,0-2.78-1.16-3.18-3H862a9.63,9.63,0,0,1-4.44,2.73,8.34,8.34,0,0,1-2.64.27c-1.07,0-2.68-.89-2.68-3.71,0-2.06.94-3.86,4.47-5.42a29.29,29.29,0,0,0,5.06-2.6v-2.87a5.2,5.2,0,0,0-.62-2.5,3.39,3.39,0,0,0-2.69-1,5,5,0,0,0-2.91.94c-.63.58-.23,1.25-.23,2.06,0,1.57-.53,2.55-2.37,2.55-.71,0-1.07-.4-1.07-1.43,0-1.43,1.25-3.13,3.09-4.21a9.85,9.85,0,0,1,5.46-1.57,4.6,4.6,0,0,1,3.58,1.21,4,4,0,0,1,1,3.18v9.5Zm-3.27-4.53c-1.61,1.21-6,2.11-6,5.83A2.2,2.2,0,0,0,858,482c1.3,0,3.67-1.57,3.67-2.78Z" transform="translate(-324.9 -305.37)"/><path class="cls-6" d="M872,472.76a12.63,12.63,0,0,0,2.28,6.81,5.78,5.78,0,0,0,4.88,2.28,6.13,6.13,0,0,0,4.93-1.93.24.24,0,0,1,.36,0l.45.45c.17.18.22.31,0,.58a10.37,10.37,0,0,1-7.21,3.18A8.17,8.17,0,0,1,870.7,481a9.32,9.32,0,0,1-2-6.09c0-5.24,3.67-10.53,9.58-10.53,4.66,0,6.09,2.69,6.09,3.63a1.52,1.52,0,0,1-1.65,1.57,2.8,2.8,0,0,1-2.47-1.79c-1-1.84-1.92-2-3-2C874.69,465.82,872,468.15,872,472.76Z" transform="translate(-324.9 -305.37)"/><path class="cls-6" d="M891.22,478c0,3.36,1.52,3.94,2.33,3.94a6.44,6.44,0,0,0,3-.58.36.36,0,0,1,.54.09l.22.4a.34.34,0,0,1-.09.49,7.49,7.49,0,0,1-5,1.79c-2.19,0-4.34-2.1-4.34-3.8s.13-5.78.13-6.41v-1c0-.81,0-3.85.09-5.74h-2.73c-.4,0-.67-.17-.67-.53s.27-.5.8-.81c1.08-.63,4.53-4.07,5.11-5.6a.59.59,0,0,1,.63-.44c.36,0,.45.31.45.67l-.23,4.39h6.23c.26,0,.4.22.31.4l-.45,1.57c0,.22-.13.35-.4.35h-5.78c-.09,2.06-.13,4.26-.13,6.32Z" transform="translate(-324.9 -305.37)"/></g><path class="cls-7" d="M340.62,357.19c0-6.41-.29-26.93-.29-28.68,0-2.76-2-4.22-6-4.22h-8.44c-.58,0-1-.28-1-.87v-3.93c0-.58.44-.87,1-.87.87,0,2.62.15,6,.15s8.29.29,15.28.29c2.46,0,53.55.15,55.88-.58.43,2.47,4.8,22.12,5.81,25.9.15.58,0,.87-.28,1l-2.62,1c-.44.14-.73-.15-1.17-1-1.31-2.33-5.08-7.72-9.31-13.39a17.83,17.83,0,0,0-10.19-6.84c-3.63-.88-26.78-1.31-31.14-1.31,0,1.89-.15,31.14-.15,40v7.28c2,0,17.32-.44,19.07-.73,3.2-.58,5.09-1.89,6.4-6.4.44-1.47,1-4.51,1.46-7.14.14-.57.43-1,1-1l2.92.15c.58,0,.87.43.87,1-.29,2.48-.29,14.55-.29,16.59,0,5.24.44,12.23.72,15.13,0,.74-.28,1-1,1.17l-2.76.58c-.72.15-.88-.29-1-1-.14-1.17-1.16-5.54-1.6-7.14-1-3.49-2.76-5.24-6-5.67a187.3,187.3,0,0,0-19.8-.88v5.38c0,4.38.15,28.82.15,31,0,3.93.73,4.66,5.67,4.66H367c.87,0,1.31.3,1.31.87v3.65c0,.87-.29,1.15-1.17,1.15-1.45,0-7.28-.43-19.79-.43-11.35,0-16.88.43-19.06.43-.59,0-.87-.28-.87-1v-3.93c0-.58.43-.73,1-.73h6.55c3.78,0,4.95-.58,5.1-3.2.29-2.91.58-21.25.58-46.27Z" transform="translate(-324.9 -305.37)"/><path class="cls-7" d="M401.11,413.79c-6.7-8-8-13.38-8-23.72,0-7.42,3.92-16.73,12.51-23.42a31.51,31.51,0,0,1,19.5-7,30.86,30.86,0,0,1,20.38,8.44c6.54,6.7,9.89,14.26,9.89,23.72,0,15.86-14.26,32-32.16,32A29.36,29.36,0,0,1,401.11,413.79Zm42.06-23.43c0-16.15-11.79-26.33-19.22-26.33a14.06,14.06,0,0,0-11.2,4.65c-5.67,5.82-7.71,11.79-7.71,22.85,0,8.14.87,13.68,5.53,20.37,3.34,4.8,7.57,7.56,14.4,7.56C436,419.46,443.17,405.94,443.17,390.36Z" transform="translate(-324.9 -305.37)"/><path class="cls-7" d="M468.22,383.38c0-7.42-1.17-8.88-5.24-11.06l-2.77-1.45c-.87-.3-1.16-.44-1.16-1V369c0-.58.29-.87,1.16-1.3l14.41-7.42a4.37,4.37,0,0,1,2-.59c.87,0,1,.87,1,1.74l.73,10.34H479c4.36-6.7,11.2-12.66,17.46-12.66,4.95,0,7.42,3.05,7.42,6.4,0,4.22-3.49,7.13-6.11,7.13a9.59,9.59,0,0,1-4.22-1.16,9.34,9.34,0,0,0-4.81-1.17c-2.32,0-6.11,1.46-8.58,6.11a15.51,15.51,0,0,0-1.46,4.66v30.27c0,4.51,1,6,4.08,6h6.84c.87,0,1,.43,1,1.31v2.61c0,.88-.15,1.31-.73,1.31-.87,0-7.57-.43-15.42-.43-9,0-15.14.43-16,.43-.58,0-.87-.28-.87-1.45V418.6c0-1,.29-1.31,1.6-1.31h5.67c2.18,0,3.2-.87,3.2-2.77.15-4.79.15-9.89.15-17.46Z" transform="translate(-324.9 -305.37)"/><path class="cls-7" d="M516,383.38a36.49,36.49,0,0,0-.44,7c0,14.27,9,25,20.66,25,8.88,0,15.14-5.09,17.61-9.89a1.19,1.19,0,0,1,1.31-.73l1.89,1c.44.15.73.58,0,2.18-2.62,5.82-10.19,15.87-23.13,15.87-8.3,0-17.47-2.47-22.85-10.34-5.1-7.42-6.4-12.8-6.4-23,0-5.67,1.45-15.42,9.16-23.13,6.26-6.41,13.53-7.72,20.81-7.72,16.74,0,21.4,15.72,21.4,21.39,0,2-1.75,2.33-4.08,2.33ZM539.11,379c2.77,0,3.93-.72,3.93-2,0-3.34-1.74-12.94-11.2-12.94-6.41,0-12.52,4.22-15.28,15Z" transform="translate(-324.9 -305.37)"/><path class="cls-7" d="M578.25,422.09c-8,0-15.43.43-16.59.43-.88,0-1.16-.28-1.16-1V418.3c0-.72.28-1,1.45-1h7c2.77,0,3.35-1.75,3.49-5.1V368.25h-10c-.73,0-1-.29-.73-1.6l.58-4.37c.15-.88.58-1,1.75-1h8.43v-2.62c0-14.41,4.08-23.86,9.75-30.27,7.72-8.44,15.72-11.49,23.87-11.49,6.84,0,13.24,2.61,13.24,8.15,0,3.48-3.77,6.25-6.11,6.25a9.31,9.31,0,0,1-4.07-.87,15.49,15.49,0,0,1-3.5-3.35,8,8,0,0,0-6.69-3.34A12.93,12.93,0,0,0,588,328.81c-5.38,6.84-5.1,19.5-5.1,29.69v2.76h17.61c1,0,1.16.87,1,1.46l-.72,4.8c-.15.58-.73.73-1.9.73h-16v13.09c0,17.18,0,30.56.15,32.16.29,2.48.73,3.79,3.78,3.79h11.72" transform="translate(-324.9 -305.37)"/><path class="cls-7" d="M598.55,417.29h9.63c2.18,0,3.2-.87,3.2-2.77.14-4.79.14-9.89.14-17.46V383.38c0-7.42-1.16-8.88-5.23-11.06l-2.77-1.45c-.87-.3-1.16-.44-1.16-1V369c0-.58.29-.87,1.16-1.3l14.41-7.42a4.34,4.34,0,0,1,2-.59c.87,0,1,.87,1,1.74l.72,10.34h.59c4.36-6.7,11.2-12.66,17.46-12.66,4.94,0,7.43,3.05,7.43,6.4,0,4.22-3.5,7.13-6.12,7.13a9.55,9.55,0,0,1-4.22-1.16,9.37,9.37,0,0,0-4.81-1.17c-2.32,0-6.11,1.46-8.59,6.11a15.71,15.71,0,0,0-1.45,4.66v30.27c0,4.51,1,6,4.08,6h6.84c.87,0,1,.43,1,1.31v2.61c0,.88-.14,1.31-.72,1.31-.87,0-7.56-.43-15.43-.43H578.25" transform="translate(-324.9 -305.37)"/><path class="cls-7" d="M848.2,414.23c0,2.33,1.31,3.06,3.21,3.06h4.65c1.31,0,1.6.43,1.6,1.31v2.33c0,1-.29,1.59-1.16,1.59-1,0-5.53-.43-13.82-.43-7.42,0-12.09.43-13.11.43s-1.15-.43-1.15-1.59V418.6c0-1,.43-1.31,1.89-1.31h4.22c1.59,0,2.75-.73,2.91-3.35.14-3.78.29-8.44.29-12.23v-19.2c0-5.82,0-10-4.23-13.1-3.49-2.62-7-2.62-10.62-2.62a17.07,17.07,0,0,0-11.79,5.68,14.24,14.24,0,0,0-3.34,9.89v30.12c0,3.94.43,4.81,3.49,4.81h3.64c1.16,0,1.45.43,1.45,1.46v2.46c0,.88-.29,1.31-1,1.31-1,0-5-.43-12.66-.43-7.42,0-12.08.43-12.95.43s-1-.43-1-1.31V418.6c0-.88.3-1.31,1.46-1.31h4.22c1.89,0,2.91-.44,2.91-2.91V380.32c0-4.36-2.33-6.84-6-8.58l-1.16-.58c-1-.44-1.16-.88-1.16-1.31v-.73c0-.73.59-1.16,1.3-1.45l12.52-7a7.76,7.76,0,0,1,2.63-1c.72,0,1,.59,1.16,1.74l1,8.88h.28c4.22-5.24,12.66-10.62,20-10.62,4.35,0,8.86.87,12.36,3.2,4.37,2.91,8,10.19,8,13.83Z" transform="translate(-324.9 -305.37)"/><path class="cls-7" d="M877.29,403.9c0,10.91,5,12.8,7.56,12.8,3.36,0,7.58-.58,9.61-1.89a1.2,1.2,0,0,1,1.75.29l.73,1.32c.44.58.14,1.16-.3,1.59a24.48,24.48,0,0,1-16.15,5.83c-7.12,0-14.11-6.84-14.11-12.38,0-6,.43-18.77.43-20.8v-3.21c0-2.61.15-12.51.29-18.63h-8.87c-1.31,0-2.19-.57-2.19-1.74s.88-1.6,2.62-2.62c3.5-2,14.71-13.24,16.59-18.19a2,2,0,0,1,2-1.45c1.16,0,1.46,1,1.46,2.18L878,361.26h20.22c.88,0,1.32.73,1,1.3l-1.46,5.11c-.14.72-.43,1.15-1.31,1.15H877.73c-.29,6.7-.44,13.83-.44,20.53Z" transform="translate(-324.9 -305.37)"/></g></g></svg>
