<?xml version="1.0" encoding="UTF-8"?>
<svg id="Layer_1" xmlns="http://www.w3.org/2000/svg" version="1.1" viewBox="0 0 929.397 132.475">
  <!-- Generator: Adobe Illustrator 29.1.0, SVG Export Plug-In . SVG Version: 2.1.0 Build 142)  -->
  <path d="M0,2.34h25.019v103.495h18.719v23.939H0V2.34Z"/>
  <path d="M49.518,2.34h24.839v127.435h-24.839V2.34Z"/>
  <path d="M82.727,2.34h37.618c8.82,0,12.6.36,16.919,1.62,5.94,1.98,9.36,7.74,9.36,15.66v21.419c0,4.86-.36,7.02-1.62,9.72-1.62,3.959-5.4,6.66-11.339,7.919,10.08,2.88,13.5,7.92,13.5,18.719v26.099c0,9.18-.36,11.7-2.34,16.56-2.7,6.479-9.36,9.72-19.62,9.72h-42.478V2.34ZM109.006,49.138c.9,0,1.8.18,2.52.18,9.899,0,12.239-1.44,12.239-7.74v-7.38c0-5.939-2.16-7.919-7.739-7.919h-8.64v22.859h1.62ZM109.006,105.835h2.34c9.54,0,11.52-1.439,11.52-8.819v-17.639c0-6.3-1.8-8.1-7.74-8.1h-7.739v34.558h1.62Z"/>
  <path d="M154.546,2.34h35.279c12.959,0,17.279.9,21.959,3.24,5.58,3.42,8.1,9,8.1,19.799v20.879c0,13.68-4.32,19.799-16.559,22.499l24.119,61.018h-25.919l-21.959-57.778v57.778h-25.019V2.34ZM187.485,48.238c5.939,0,8.1-2.7,8.1-9.72v-2.7c0-7.74-1.26-9.54-6.84-9.54h-9.18v21.959h7.92Z"/>
  <path d="M244.726,2.34h39.058l14.58,127.435h-23.939l-1.44-14.22h-18.359l-1.62,14.22h-23.939L244.726,2.34ZM270.645,92.156l-6.66-67.497-7.38,67.497h14.04Z"/>
  <path d="M303.351,2.34h35.279c12.959,0,17.279.9,21.959,3.24,5.58,3.42,8.1,9,8.1,19.799v20.879c0,13.68-4.32,19.799-16.559,22.499l24.119,61.018h-25.919l-21.959-57.778v57.778h-25.019V2.34ZM336.29,48.238c5.939,0,8.1-2.7,8.1-9.72v-2.7c0-7.74-1.26-9.54-6.84-9.54h-9.18v21.959h7.92Z"/>
  <path d="M394.969,80.817L371.93,2.34h24.479l11.52,45.538,11.7-45.538h24.299l-23.939,79.017v48.418h-25.019v-48.958Z"/>
  <path d="M476.868,30.959c0-21.599,10.979-30.779,35.638-30.779,6.3,0,12.06,1.08,17.279,3.42,9.54,4.14,13.319,12.06,13.319,30.239l-.18,8.459h-24.839v-7.2c0-8.819-1.439-10.979-7.739-10.979-5.94,0-8.64,3.06-8.64,10.8v62.277c0,7.74,2.88,11.7,8.64,11.7,5.939,0,8.1-3.96,8.1-16.02v-7.74h25.019v3.78c0,21.6-.72,23.399-3.239,29.339-3.42,8.46-14.58,14.22-30.6,14.22-21.778,0-32.758-10.26-32.758-30.599V30.959Z"/>
  <path d="M561.034,2.34h39.058l14.58,127.435h-23.939l-1.44-14.22h-18.358l-1.62,14.22h-23.939l15.659-127.435ZM586.952,92.156l-6.659-67.497-7.38,67.497h14.039Z"/>
  <path d="M628.461,26.459h-17.64V2.34h60.838v24.119h-18.18l-.18,103.316h-24.839V26.459Z"/>
  <path d="M682.423,2.34h39.059l14.579,127.435h-23.938l-1.44-14.22h-18.358l-1.62,14.22h-23.939l15.659-127.435ZM708.342,92.156l-6.659-67.497-7.38,67.497h14.039Z"/>
  <path d="M740.977,2.34h25.02v103.495h18.719v23.939h-43.738V2.34Z"/>
  <path d="M790.243,30.779c0-20.879,10.979-30.779,34.559-30.779,12.96,0,22.859,4.14,27.359,11.88,3.419,5.76,4.319,11.699,4.319,27.359v53.817c0,16.92-.36,19.26-4.14,26.459-4.32,7.92-14.939,12.42-30.779,12.42-20.339,0-30.778-9.72-31.139-29.159l-.18-71.997ZM831.281,34.559c0-7.74-2.159-10.62-7.919-10.62-5.58,0-8.28,3.42-8.28,10.08v60.117c0,10.979,1.8,14.22,8.28,14.22,5.22,0,7.919-3.42,7.919-10.439v-63.358Z"/>
  <path d="M863.7,32.759c0-23.039,9.899-32.579,33.658-32.579,6.48,0,12.6,1.26,18.359,3.78,10.62,4.32,13.68,12.24,13.68,30.779v7.92h-24.839v-10.62c0-5.22-2.7-7.92-8.1-7.92s-8.1,3.24-8.1,9.9v61.558c0,9.359,2.34,12.959,8.64,12.959,5.579,0,7.38-3.06,7.919-11.699v-9.54h-6.479v-20.519h30.959v32.758c0,11.34-1.08,16.38-4.68,21.6-4.86,6.66-15.659,11.159-28.619,11.159-12.419,0-22.139-3.96-27.179-11.159-4.14-5.22-5.22-10.8-5.22-22.319V32.759Z"/>
</svg>