<svg viewBox="0 0 118 43" fill="none" xmlns="http://www.w3.org/2000/svg" class="jsx-676820728 css-e39j7n"><g clip-path="url(#logo-light_svg__a)"><path fill-rule="evenodd" clip-rule="evenodd" d="M71.625.344h8.09v3.549l-4.53 11.73h4.53v3.47h-8.09v-3.47l4.692-11.73h-4.692V.343Zm-11.871 0h8.09v3.549l-4.53 11.731h4.53v3.47h-8.09v-3.47l4.692-11.731h-4.692V.344Z" fill="#fff"></path><path d="M0 .344h4.521l2.353 9.957L9.254.344h4.495v18.75h-3.305V8.526l-2.46 10.566H5.712L3.146 8.527v10.566H0V.345Zm20.2 0h5.738l2.141 18.75h-3.516L24.35 17h-2.697l-.238 2.092H17.9L20.2.345Zm3.808 13.188-.98-9.93-1.083 9.93h2.063Zm8.169-8.712c0-1.695.389-2.917 1.166-3.668.778-.75 2.042-1.126 3.792-1.126a6.68 6.68 0 0 1 2.704.557c.389.158.712.357.968.595s.464.534.623.888c.159.353.269.776.33 1.27.063.495.094 1.086.094 1.775v1.165h-3.675V4.713c0-.776-.397-1.165-1.19-1.165-.793 0-1.19.487-1.19 1.46v9.076c0 .69.097 1.18.291 1.473.194.292.52.438.978.438.406 0 .692-.13.86-.388.167-.258.268-.707.304-1.348v-1.415h-.952v-3.02h4.574v4.82c0 .83-.049 1.47-.146 1.92a3.553 3.553 0 0 1-.543 1.258c-.354.495-.907.892-1.657 1.192-.751.3-1.604.45-2.559.45-.92 0-1.723-.141-2.413-.423-.689-.283-1.22-.689-1.59-1.219a3.236 3.236 0 0 1-.61-1.297c-.106-.477-.159-1.139-.159-1.986V4.82ZM48.094.344h5.737l2.142 18.75h-3.517L52.245 17h-2.697l-.238 2.092h-3.516l2.3-18.749ZM51.9 13.532l-.978-9.93-1.084 9.93H51.9ZM84.316.344h3.622v18.75h-3.622V.343Zm8.883 0h3.305l3.305 9.905V.344h3.305v18.75H99.94l-3.462-9.905v9.904h-3.279V.345Zm15.071 4.184c0-1.536.414-2.674 1.243-3.416C110.341.371 111.619 0 113.347 0c.951 0 1.775.15 2.471.45.697.3 1.212.733 1.547 1.298.123.212.225.433.304.662.08.23.146.499.198.807.054.31.089.667.106 1.073.018.406.027.9.027 1.483v7.918c0 .618-.005 1.121-.014 1.509a6.985 6.985 0 0 1-.079.98c-.037.24-.099.474-.185.701a7.01 7.01 0 0 1-.33.702c-.317.583-.86 1.033-1.627 1.35-.766.318-1.731.477-2.895.477-2.997 0-4.521-1.43-4.574-4.29l-.026-10.592Zm6.028.556c0-.564-.089-.966-.267-1.204-.178-.239-.481-.358-.909-.358-.82 0-1.23.494-1.23 1.483v8.845c0 .812.084 1.364.254 1.655.169.291.494.437.975.437.785 0 1.177-.512 1.177-1.536V5.084Z" fill="#fff"></path><path d="M.106 24.251h3.622v18.75H.106V24.25Zm9.97 3.549h-2.59v-3.55h8.91v3.55h-2.67L13.698 43h-3.622V27.8Zm10.58-3.549h5.737l2.142 18.75h-3.517l-.211-2.093H22.11L21.872 43h-3.516l2.3-18.749Zm3.807 13.188-.978-9.93-1.085 9.93h2.063Zm7.879-13.188h3.675v15.227h2.75V43h-6.425V24.251Zm10.55 0h3.621v18.75h-3.621V24.25Zm9.808 0h5.738l2.142 18.75h-3.517l-.212-2.093h-2.696L53.917 43H50.4l2.3-18.749Zm3.808 13.188-.979-9.93-1.084 9.93h2.063Zm7.72-13.188h3.305l3.305 9.905V24.25h3.305V43h-3.174l-3.463-9.905V43h-3.278V24.251Zm19.375 0h5.737l2.142 18.75h-3.517l-.212-2.093h-2.696L84.819 43h-3.517l2.3-18.749ZM87.41 37.44l-.978-9.93-1.085 9.93h2.063Zm7.905-13.188h5.182c.476 0 .877.01 1.203.027.326.018.612.044.86.079a3.449 3.449 0 0 1 1.163.37c.405.248.705.596.899 1.047.193.45.291 1.072.291 1.867v3.072c0 1.006-.181 1.76-.543 2.264-.361.503-.991.852-1.89 1.046L106.023 43h-3.807l-3.226-8.5V43h-3.675V24.251Zm4.839 6.78c.44 0 .748-.112.925-.334.176-.223.265-.592.265-1.108v-.4c0-.57-.067-.948-.199-1.136-.132-.186-.401-.28-.806-.28H98.99v3.257h1.164Zm11.368-3.231h-2.591V24.25h8.91v3.55h-2.67l-.026 15.2h-3.622V27.8h-.001Z" fill="#B40000"></path></g><defs><clipPath id="logo-light_svg__a"><path fill="#fff" d="M0 0h118v43H0z"></path></clipPath></defs></svg>