<svg width="256" height="92" viewBox="0 0 256 92" fill="none" xmlns="http://www.w3.org/2000/svg">
<path d="M100.115 23.8719H108.015C112.815 23.8719 112.815 20.1719 113.015 18.7719H114.215C114.115 20.0719 114.015 23.2719 114.015 25.4719C114.015 27.3719 114.315 30.1719 114.215 32.0719H113.015C113.015 26.3719 111.115 26.3719 106.515 26.3719H100.115V36.4719C100.115 43.0719 100.315 44.7719 106.215 44.7719H109.915C115.715 44.4719 118.315 43.6719 120.715 37.3719L122.115 37.5719C121.115 40.5719 120.315 43.5719 119.715 46.6719C113.815 46.6719 107.815 46.5719 101.915 46.5719C97.5153 46.5719 93.1153 46.5719 88.7153 46.6719V45.1719C93.9153 45.1719 94.3153 44.1719 94.3153 38.4719V11.9719C94.3153 7.07187 93.3153 6.87188 88.7153 6.67188V5.17188C92.7153 5.27188 96.7153 5.27187 100.715 5.27187C106.415 5.27187 112.115 5.27188 117.815 5.17188V14.0719L116.615 14.3719C115.715 8.77188 113.015 7.07188 107.115 7.07188H100.115V23.8719Z" fill="#007934"/>
<path d="M124.615 36.7719H126.015C127.015 41.2719 130.315 45.5719 135.315 45.5719C139.915 45.5719 143.415 42.3719 143.415 37.6719C143.415 26.5719 125.815 29.8719 125.815 15.8719C125.815 8.17188 131.315 4.17188 138.515 4.17188C140.915 4.17188 143.415 4.67188 145.815 5.07188L146.815 12.6719H145.415C144.715 8.47188 142.015 6.07188 137.715 6.07188C133.215 6.07188 130.615 9.37187 130.615 13.6719C130.615 24.7719 148.915 21.6719 148.915 35.3719C148.915 43.0719 141.915 47.4719 134.915 47.4719C131.815 47.4719 128.615 46.7719 125.815 45.4719L124.615 36.7719Z" fill="#007934"/>
<path d="M152.015 36.7719H153.415C154.415 41.2719 157.715 45.5719 162.715 45.5719C167.315 45.5719 170.815 42.3719 170.815 37.6719C170.815 26.5719 153.215 29.8719 153.215 15.8719C153.215 8.17188 158.715 4.17188 165.915 4.17188C168.315 4.17188 170.815 4.67188 173.215 5.07188L174.215 12.6719H172.815C172.115 8.47188 169.415 6.07188 165.115 6.07188C160.615 6.07188 158.015 9.37187 158.015 13.6719C158.015 24.7719 176.315 21.6719 176.315 35.3719C176.315 43.0719 169.315 47.4719 162.315 47.4719C159.215 47.4719 156.015 46.7719 153.215 45.4719L152.015 36.7719Z" fill="#007934"/>
<path d="M188.815 23.8719H196.715C201.515 23.8719 201.515 20.1719 201.715 18.7719H202.915C202.815 20.0719 202.715 23.2719 202.715 25.4719C202.715 27.3719 203.015 30.1719 202.915 32.0719H201.715C201.715 26.3719 199.815 26.3719 195.215 26.3719H188.815V36.4719C188.815 43.0719 189.015 44.7719 194.915 44.7719H198.615C204.415 44.4719 207.015 43.6719 209.415 37.3719L210.815 37.5719C209.815 40.5719 209.015 43.5719 208.415 46.6719C202.515 46.6719 196.515 46.5719 190.615 46.5719C186.215 46.5719 181.815 46.5719 177.415 46.6719V45.1719C182.615 45.1719 183.115 44.1719 183.115 38.4719V11.9719C183.115 7.07187 182.115 6.87188 177.415 6.67188V5.17188C181.415 5.27188 185.415 5.27187 189.415 5.27187C195.115 5.27187 200.815 5.27188 206.515 5.17188V14.0719L205.315 14.3719C204.415 8.77188 201.715 7.07188 195.815 7.07188H188.815V23.8719Z" fill="#007934"/>
<path d="M234.415 21.9719L240.615 13.8719C242.615 11.2719 243.815 9.37188 243.815 8.17188C243.815 7.07187 242.615 6.67188 239.915 6.67188V5.17188C242.415 5.27188 244.915 5.27187 247.315 5.27187C249.615 5.27187 251.915 5.17188 254.215 5.17188V6.67188C249.815 6.67188 248.115 8.17188 245.315 11.6719L235.915 23.8719L248.215 39.9719C249.315 41.4719 250.015 42.2719 251.315 43.5719C252.715 44.9719 253.915 44.9719 255.515 44.9719V46.6719C252.515 46.6719 249.515 46.5719 246.515 46.5719C244.415 46.5719 242.215 46.6719 240.115 46.6719V45.1719C240.615 45.1719 243.615 45.1719 243.615 44.3719C243.615 43.8719 242.715 42.5719 242.415 42.1719L232.415 28.4719L224.515 39.2719C223.815 40.2719 221.915 42.6719 221.915 43.8719C221.915 45.1719 224.715 45.1719 226.515 45.1719V46.6719C224.215 46.6719 221.715 46.5719 219.415 46.5719C217.015 46.5719 214.515 46.6719 212.015 46.6719V45.1719C212.815 45.1719 213.815 45.1719 214.815 44.8719C216.215 44.4719 217.515 44.0719 221.415 38.9719L230.915 26.4719L218.115 9.57188C217.315 8.47188 215.715 6.67188 212.315 6.67188V5.17188C215.415 5.27188 218.715 5.27187 221.815 5.27187C224.115 5.27187 226.615 5.17188 228.815 5.17188V6.67188C225.815 6.67188 224.615 7.07188 224.615 7.87188C224.615 8.17188 224.515 8.77187 226.315 11.1719L234.415 21.9719Z" fill="#007934"/>
<path d="M95.015 65.5711C94.115 65.5711 93.315 65.3711 92.615 65.0711C91.915 64.7711 91.215 64.3711 90.715 63.7711C90.215 63.2711 89.715 62.5711 89.415 61.8711C89.115 61.1711 88.915 60.3711 88.915 59.4711C88.915 58.6711 89.115 57.8711 89.415 57.0711C89.715 56.3711 90.115 55.6711 90.715 55.1711C91.215 54.5711 91.915 54.1711 92.615 53.8711C93.315 53.5711 94.215 53.3711 95.115 53.3711C95.615 53.3711 96.115 53.3711 96.615 53.4711C97.115 53.5711 97.515 53.6711 97.815 53.8711C98.215 54.0711 98.515 54.1711 98.815 54.4711C99.115 54.6711 99.415 54.9711 99.715 55.1711L98.115 57.0711C97.615 56.6711 97.215 56.3711 96.715 56.0711C96.215 55.8711 95.715 55.6711 95.115 55.6711C94.615 55.6711 94.215 55.7711 93.715 55.9711C93.315 56.1711 92.915 56.4711 92.615 56.7711C92.315 57.0711 92.115 57.4711 91.915 57.9711C91.715 58.3711 91.615 58.8711 91.615 59.3711C91.615 59.8711 91.715 60.3711 91.915 60.7711C92.115 61.2711 92.315 61.5711 92.615 61.9711C92.915 62.2711 93.315 62.5711 93.715 62.7711C94.115 62.9711 94.615 63.0711 95.115 63.0711C95.815 63.0711 96.315 62.9711 96.815 62.6711C97.315 62.4711 97.715 62.0711 98.215 61.6711L99.815 63.3711C99.515 63.6711 99.215 63.9711 98.915 64.2711C98.615 64.5711 98.215 64.7711 97.815 64.9711C97.415 65.1711 97.015 65.2711 96.515 65.3711C96.115 65.4711 95.615 65.5711 95.015 65.5711Z" fill="black"/>
<path d="M107.615 65.5711C106.715 65.5711 105.915 65.3711 105.115 65.0711C104.315 64.7711 103.715 64.2711 103.115 63.7711C102.515 63.2711 102.115 62.5711 101.815 61.8711C101.515 61.1711 101.315 60.3711 101.315 59.4711C101.315 58.6711 101.515 57.8711 101.815 57.0711C102.115 56.3711 102.515 55.6711 103.115 55.1711C103.715 54.5711 104.315 54.1711 105.115 53.8711C105.915 53.5711 106.715 53.3711 107.615 53.3711C108.515 53.3711 109.315 53.5711 110.115 53.8711C110.915 54.1711 111.515 54.6711 112.115 55.1711C112.715 55.6711 113.115 56.3711 113.415 57.0711C113.715 57.7711 113.915 58.5711 113.915 59.4711C113.915 60.2711 113.715 61.0711 113.415 61.8711C113.115 62.5711 112.715 63.2711 112.115 63.7711C111.515 64.3711 110.915 64.7711 110.115 65.0711C109.315 65.3711 108.515 65.5711 107.615 65.5711ZM107.615 63.1711C108.115 63.1711 108.615 63.0711 109.015 62.8711C109.415 62.6711 109.815 62.3711 110.115 62.0711C110.415 61.7711 110.615 61.3711 110.815 60.8711C111.015 60.4711 111.115 59.9711 111.115 59.4711C111.115 58.9711 111.015 58.4711 110.815 58.0711C110.615 57.6711 110.415 57.2711 110.115 56.8711C109.815 56.5711 109.415 56.2711 109.015 56.0711C108.615 55.8711 108.115 55.7711 107.615 55.7711C107.115 55.7711 106.615 55.8711 106.215 56.0711C105.815 56.2711 105.415 56.5711 105.115 56.8711C104.815 57.1711 104.615 57.5711 104.415 58.0711C104.215 58.4711 104.115 58.9711 104.115 59.4711C104.115 59.9711 104.215 60.4711 104.415 60.8711C104.615 61.3711 104.815 61.6711 105.115 62.0711C105.415 62.3711 105.815 62.6711 106.215 62.8711C106.615 63.0711 107.115 63.1711 107.615 63.1711Z" fill="black"/>
<path d="M120.715 65.4713C119.115 65.4713 117.915 65.0713 117.015 64.1713C116.115 63.2713 115.615 61.9713 115.615 60.2713V53.5713H118.215V60.1713C118.215 61.1713 118.415 61.8713 118.915 62.3713C119.315 62.8713 120.015 63.0713 120.815 63.0713C121.615 63.0713 122.215 62.8713 122.715 62.3713C123.115 61.8713 123.415 61.1713 123.415 60.2713V53.5713H126.015V60.1713C126.015 61.0713 125.915 61.8713 125.615 62.4713C125.415 63.1713 125.015 63.6713 124.615 64.1713C124.215 64.5713 123.615 64.9713 123.015 65.1713C122.215 65.3713 121.515 65.4713 120.715 65.4713Z" fill="black"/>
<path d="M128.815 53.5713H131.215L136.715 60.7713V53.5713H139.215V65.2713H137.015L131.315 57.7713V65.2713H128.715V53.5713H128.815Z" fill="black"/>
<path d="M145.115 55.9713H141.515V53.5713H151.215V55.9713H147.615V65.3713H145.015V55.9713H145.115Z" fill="black"/>
<path d="M157.215 60.6713L152.715 53.5713H155.715L158.515 58.2713L161.415 53.5713H164.315L159.815 60.6713V65.3713H157.215V60.6713V60.6713Z" fill="black"/>
<path d="M177.215 65.5711C176.315 65.5711 175.515 65.3711 174.815 65.0711C174.115 64.7711 173.415 64.3711 172.915 63.7711C172.415 63.2711 171.915 62.5711 171.615 61.8711C171.315 61.1711 171.115 60.3711 171.115 59.4711C171.115 58.6711 171.315 57.8711 171.615 57.0711C171.915 56.3711 172.315 55.6711 172.915 55.1711C173.415 54.5711 174.115 54.1711 174.815 53.8711C175.515 53.5711 176.415 53.3711 177.315 53.3711C177.815 53.3711 178.315 53.3711 178.815 53.4711C179.315 53.5711 179.715 53.6711 180.015 53.8711C180.415 54.0711 180.715 54.1711 181.015 54.4711C181.315 54.6711 181.615 54.9711 181.915 55.1711L180.315 57.0711C179.815 56.6711 179.415 56.3711 178.915 56.0711C178.415 55.8711 177.915 55.6711 177.315 55.6711C176.815 55.6711 176.415 55.7711 175.915 55.9711C175.515 56.1711 175.115 56.4711 174.815 56.7711C174.515 57.0711 174.315 57.4711 174.115 57.9711C173.915 58.3711 173.815 58.8711 173.815 59.3711C173.815 59.8711 173.915 60.3711 174.115 60.7711C174.315 61.2711 174.515 61.5711 174.815 61.9711C175.115 62.2711 175.515 62.5711 175.915 62.7711C176.315 62.9711 176.815 63.0711 177.315 63.0711C178.015 63.0711 178.515 62.9711 179.015 62.6711C179.515 62.4711 179.915 62.0711 180.415 61.6711L182.015 63.3711C181.715 63.6711 181.415 63.9711 181.115 64.2711C180.815 64.5711 180.415 64.7711 180.015 64.9711C179.615 65.1711 179.215 65.2711 178.715 65.3711C178.215 65.4711 177.715 65.5711 177.215 65.5711Z" fill="black"/>
<path d="M189.715 65.5711C188.815 65.5711 188.015 65.3711 187.215 65.0711C186.415 64.7711 185.815 64.2711 185.215 63.7711C184.615 63.2711 184.215 62.5711 183.915 61.8711C183.615 61.1711 183.415 60.3711 183.415 59.4711C183.415 58.6711 183.615 57.8711 183.915 57.0711C184.215 56.3711 184.615 55.6711 185.215 55.1711C185.815 54.5711 186.415 54.1711 187.215 53.8711C188.015 53.5711 188.815 53.3711 189.715 53.3711C190.615 53.3711 191.415 53.5711 192.215 53.8711C193.015 54.1711 193.615 54.6711 194.215 55.1711C194.815 55.6711 195.215 56.3711 195.515 57.0711C195.815 57.7711 196.015 58.5711 196.015 59.4711C196.015 60.2711 195.815 61.0711 195.515 61.8711C195.215 62.5711 194.815 63.2711 194.215 63.7711C193.615 64.3711 193.015 64.7711 192.215 65.0711C191.515 65.3711 190.615 65.5711 189.715 65.5711ZM189.815 63.1711C190.315 63.1711 190.815 63.0711 191.215 62.8711C191.615 62.6711 192.015 62.3711 192.315 62.0711C192.615 61.7711 192.815 61.3711 193.015 60.8711C193.215 60.4711 193.315 59.9711 193.315 59.4711C193.315 58.9711 193.215 58.4711 193.015 58.0711C192.815 57.6711 192.615 57.2711 192.315 56.8711C192.015 56.5711 191.615 56.2711 191.215 56.0711C190.815 55.8711 190.315 55.7711 189.815 55.7711C189.315 55.7711 188.815 55.8711 188.415 56.0711C188.015 56.2711 187.615 56.5711 187.315 56.8711C187.015 57.1711 186.715 57.5711 186.615 58.0711C186.415 58.4711 186.315 58.9711 186.315 59.4711C186.315 59.9711 186.415 60.4711 186.615 60.8711C186.815 61.3711 187.015 61.6711 187.315 62.0711C187.615 62.3711 188.015 62.6711 188.415 62.8711C188.815 63.0711 189.215 63.1711 189.815 63.1711Z" fill="black"/>
<path d="M198.315 53.5713H200.915V62.9713H206.815V65.2713H198.415V53.5713H198.315Z" fill="black"/>
<path d="M209.016 53.5713H211.616V62.9713H217.516V65.2713H209.116V53.5713H209.016Z" fill="black"/>
<path d="M219.715 53.5713H228.515V55.8713H222.215V58.2713H227.715V60.5713H222.215V63.0713H228.615V65.3713H219.715V53.5713Z" fill="black"/>
<path d="M237.015 65.5711C236.115 65.5711 235.215 65.3711 234.515 65.0711C233.715 64.7711 233.115 64.3711 232.615 63.7711C232.115 63.2711 231.615 62.5711 231.315 61.8711C231.015 61.1711 230.815 60.3711 230.815 59.4711C230.815 58.6711 231.015 57.8711 231.315 57.0711C231.615 56.3711 232.015 55.6711 232.615 55.1711C233.115 54.5711 233.815 54.1711 234.515 53.8711C235.315 53.5711 236.115 53.3711 237.015 53.3711C237.515 53.3711 238.015 53.3711 238.415 53.4711C238.815 53.5711 239.215 53.6711 239.615 53.7711C240.015 53.8711 240.315 54.0711 240.615 54.2711C240.915 54.4711 241.215 54.6711 241.515 54.9711L239.915 56.9711C239.715 56.7711 239.515 56.5711 239.215 56.4711C239.015 56.3711 238.715 56.1711 238.515 56.0711C238.315 55.9711 238.015 55.8711 237.715 55.8711C237.415 55.7711 237.115 55.7711 236.815 55.7711C236.315 55.7711 235.915 55.8711 235.515 56.0711C235.115 56.2711 234.715 56.5711 234.415 56.8711C234.115 57.1711 233.915 57.5711 233.715 58.0711C233.515 58.4711 233.415 58.9711 233.415 59.4711C233.415 59.9711 233.515 60.4711 233.715 60.9711C233.915 61.4711 234.115 61.7711 234.415 62.1711C234.715 62.4711 235.115 62.7711 235.515 62.9711C235.915 63.1711 236.415 63.2711 236.915 63.2711C237.915 63.2711 238.715 63.0711 239.315 62.5711V60.8711H236.915V58.6711H242.015V63.6711C241.415 64.1711 240.715 64.6711 239.815 64.9711C239.015 65.3711 238.015 65.5711 237.015 65.5711Z" fill="black"/>
<path d="M244.815 53.5713H253.615V55.8713H247.315V58.2713H252.815V60.5713H247.315V63.0713H253.715V65.3713H244.815V53.5713Z" fill="black"/>
<path d="M14.915 30.2713C15.015 30.6713 15.215 31.1713 15.315 31.5713C18.315 39.5713 27.315 43.6713 35.415 40.5713C43.515 37.5713 47.715 28.5713 44.715 20.5713C43.715 17.8713 42.115 15.6713 40.015 14.0713C42.115 21.7713 38.015 29.8713 30.315 32.7713C24.915 34.7713 19.015 33.6713 14.915 30.2713Z" fill="#007934"/>
<path d="M39.1153 12.7714C34.3153 11.4714 29.0153 11.2714 23.7153 12.1714C7.61526 15.0714 -2.68474 28.0714 0.615263 41.2714C3.91526 54.3714 19.6153 62.6714 35.7153 59.7714C42.0153 58.6714 47.4153 55.8714 51.5153 52.2714C50.1153 52.6714 48.7153 53.0714 47.2153 53.2714C31.1153 56.1714 15.8153 49.4714 13.0153 38.3714C10.2153 27.2714 21.0153 15.8714 37.0153 12.9714C37.7153 12.9714 38.4153 12.8714 39.1153 12.7714Z" fill="#007934"/>
<path d="M9.91504 9.87156C14.915 5.77156 21.315 2.67156 28.715 1.07156C51.015 -3.62844 74.215 7.57156 80.515 26.0716C86.715 44.5716 73.715 63.3716 51.415 68.0716C42.615 69.8716 33.715 69.2716 25.715 66.7716C27.815 66.5716 29.815 66.2716 31.915 65.7716C54.215 61.0716 68.115 44.5716 62.815 28.9716C57.515 13.3716 35.115 4.47156 12.815 9.17156C11.815 9.37156 10.915 9.57156 9.91504 9.87156Z" fill="#F7A800"/>
<path d="M91.7153 71.1123H255.515" stroke="#F7A800" stroke-width="1.5232"/>
<path d="M97.0153 91.2123C96.0153 91.2123 95.1153 91.0123 94.2153 90.7123C93.3153 90.4123 92.4153 89.9123 91.7153 89.2123L93.3153 87.2123C93.9153 87.7123 94.5153 88.0123 95.1153 88.3123C95.7153 88.6123 96.4153 88.7123 97.1153 88.7123C97.7153 88.7123 98.1153 88.6123 98.4153 88.4123C98.7153 88.2123 98.9153 87.9123 98.9153 87.5123C98.9153 87.3123 98.9153 87.2123 98.8153 87.0123C98.7153 86.9123 98.6153 86.7123 98.4153 86.6123C98.2153 86.5123 98.0153 86.4123 97.6153 86.2123C97.3153 86.1123 96.8153 86.0123 96.3153 85.8123C95.7153 85.6123 95.1153 85.5123 94.6153 85.3123C94.1153 85.1123 93.6153 84.9123 93.3153 84.6123C92.9153 84.3123 92.7153 84.0123 92.5153 83.6123C92.3153 83.2123 92.2153 82.7123 92.2153 82.0123C92.2153 81.4123 92.3153 80.9123 92.5153 80.4123C92.7153 79.9123 93.0153 79.5123 93.4153 79.2123C93.8153 78.9123 94.2153 78.6123 94.8153 78.4123C95.3153 78.2123 95.9153 78.1123 96.6153 78.1123C97.5153 78.1123 98.4153 78.2123 99.1153 78.5123C99.9153 78.8123 100.615 79.2123 101.215 79.7123L99.8153 81.8123C99.2153 81.4123 98.7153 81.1123 98.2153 80.9123C97.7153 80.7123 97.1153 80.6123 96.6153 80.6123C96.1153 80.6123 95.7153 80.7123 95.4153 80.9123C95.1153 81.1123 95.0153 81.4123 95.0153 81.7123C95.0153 81.9123 95.0153 82.1123 95.1153 82.2123C95.2153 82.4123 95.3153 82.5123 95.5153 82.6123C95.7153 82.7123 96.0153 82.8123 96.3153 82.9123C96.7153 83.0123 97.1153 83.1123 97.6153 83.3123C98.2153 83.5123 98.8153 83.7123 99.3153 83.9123C99.8153 84.1123 100.215 84.4123 100.615 84.7123C100.915 85.0123 101.215 85.3123 101.415 85.7123C101.615 86.1123 101.715 86.6123 101.715 87.1123C101.715 87.7123 101.615 88.3123 101.415 88.8123C101.215 89.3123 100.915 89.7123 100.515 90.0123C100.115 90.3123 99.6153 90.6123 99.1153 90.8123C98.3153 91.1123 97.7153 91.2123 97.0153 91.2123Z" fill="black"/>
<path d="M107.415 81.0127H103.615V78.5127H114.015V81.0127H110.215V91.0127H107.415V81.0127V81.0127Z" fill="black"/>
<path d="M121.815 91.2125C120.115 91.2125 118.815 90.7125 117.815 89.8125C116.815 88.9125 116.315 87.5125 116.315 85.6125V78.4125H119.115V85.5125C119.115 86.5125 119.315 87.3125 119.815 87.8125C120.315 88.3125 120.915 88.6125 121.815 88.6125C122.615 88.6125 123.315 88.3125 123.815 87.8125C124.315 87.3125 124.515 86.5125 124.515 85.5125V78.3125H127.315V85.4125C127.315 86.4125 127.215 87.2125 126.915 87.9125C126.615 88.6125 126.315 89.2125 125.815 89.7125C125.315 90.2125 124.715 90.5125 124.115 90.8125C123.415 91.1125 122.615 91.2125 121.815 91.2125Z" fill="black"/>
<path d="M130.615 78.4121H135.515C136.515 78.4121 137.415 78.6121 138.215 78.9121C139.015 79.2121 139.715 79.7121 140.315 80.2121C140.915 80.8121 141.315 81.4121 141.715 82.2121C142.015 83.0121 142.215 83.8121 142.215 84.7121C142.215 85.6121 142.015 86.4121 141.715 87.2121C141.415 88.0121 140.915 88.6121 140.315 89.2121C139.715 89.8121 139.015 90.2121 138.215 90.5121C137.415 90.8121 136.515 91.0121 135.515 91.0121H130.615V78.4121ZM135.515 88.5121C136.115 88.5121 136.615 88.4121 137.015 88.2121C137.515 88.0121 137.915 87.8121 138.215 87.4121C138.515 87.1121 138.815 86.7121 139.015 86.2121C139.215 85.7121 139.315 85.2121 139.315 84.7121C139.315 84.1121 139.215 83.6121 139.015 83.2121C138.815 82.7121 138.615 82.3121 138.215 82.0121C137.915 81.7121 137.515 81.4121 137.015 81.2121C136.515 81.0121 136.015 80.9121 135.515 80.9121H133.315V88.5121H135.515Z" fill="black"/>
<path d="M145.015 78.4121H154.515V80.9121H147.815V83.4121H153.715V85.9121H147.815V88.5121H154.615V91.0121H145.115V78.4121H145.015Z" fill="black"/>
<path d="M157.515 78.4121H160.015L165.915 86.1121V78.4121H168.615V91.0121H166.315L160.215 83.0121V91.0121H157.515V78.4121V78.4121Z" fill="black"/>
<path d="M175.015 81.0127H171.215V78.5127H181.615V81.0127H177.815V91.0127H175.015V81.0127V81.0127Z" fill="black"/>
<path d="M188.716 91.2123C187.716 91.2123 186.816 91.0123 185.916 90.7123C185.016 90.4123 184.116 89.9123 183.416 89.2123L185.016 87.2123C185.616 87.7123 186.216 88.0123 186.816 88.3123C187.416 88.6123 188.116 88.7123 188.816 88.7123C189.416 88.7123 189.816 88.6123 190.116 88.4123C190.416 88.2123 190.616 87.9123 190.616 87.5123C190.616 87.3123 190.616 87.2123 190.516 87.0123C190.416 86.9123 190.316 86.7123 190.116 86.6123C189.916 86.5123 189.716 86.4123 189.316 86.2123C189.016 86.1123 188.516 86.0123 188.016 85.8123C187.416 85.6123 186.816 85.5123 186.316 85.3123C185.816 85.1123 185.316 84.9123 185.016 84.6123C184.616 84.3123 184.416 84.0123 184.216 83.6123C184.016 83.2123 183.916 82.7123 183.916 82.0123C183.916 81.4123 184.016 80.9123 184.216 80.4123C184.416 79.9123 184.716 79.5123 185.116 79.2123C185.516 78.9123 185.916 78.6123 186.516 78.4123C187.016 78.2123 187.616 78.1123 188.316 78.1123C189.216 78.1123 190.116 78.2123 190.816 78.5123C191.616 78.8123 192.316 79.2123 192.916 79.7123L191.516 81.8123C190.916 81.4123 190.416 81.1123 189.816 80.9123C189.316 80.7123 188.716 80.6123 188.216 80.6123C187.716 80.6123 187.316 80.7123 187.016 80.9123C186.716 81.1123 186.616 81.4123 186.616 81.7123C186.616 81.9123 186.616 82.1123 186.716 82.2123C186.816 82.4123 186.916 82.5123 187.116 82.6123C187.316 82.7123 187.616 82.8123 187.916 82.9123C188.316 83.0123 188.716 83.1123 189.216 83.3123C189.816 83.5123 190.416 83.7123 190.916 83.9123C191.416 84.1123 191.816 84.4123 192.216 84.7123C192.516 85.0123 192.816 85.3123 193.016 85.7123C193.216 86.1123 193.316 86.6123 193.316 87.1123C193.316 87.7123 193.216 88.3123 193.016 88.8123C192.816 89.3123 192.516 89.7123 192.116 90.0123C191.716 90.3123 191.216 90.6123 190.716 90.8123C190.016 91.1123 189.416 91.2123 188.716 91.2123Z" fill="black"/>
<path d="M201.916 78.4121H211.516V80.9121H204.716V83.6121H210.716V86.1121H204.716V91.0121H201.916V78.4121V78.4121Z" fill="black"/>
<path d="M214.315 78.4121H217.115V91.0121H214.315V78.4121Z" fill="black"/>
<path d="M220.615 78.4121H226.315C227.915 78.4121 229.115 78.8121 230.015 79.7121C230.715 80.4121 231.115 81.4121 231.115 82.6121C231.115 83.6121 230.915 84.4121 230.415 85.1121C229.915 85.7121 229.315 86.2121 228.515 86.5121L231.615 91.0121H228.315L225.615 87.0121H223.515V91.0121H220.715V78.4121H220.615ZM226.215 84.5121C226.915 84.5121 227.415 84.3121 227.815 84.0121C228.215 83.7121 228.315 83.2121 228.315 82.7121C228.315 82.1121 228.115 81.7121 227.715 81.4121C227.315 81.1121 226.815 80.9121 226.115 80.9121H223.415V84.5121H226.215Z" fill="black"/>
<path d="M238.515 91.2123C237.515 91.2123 236.615 91.0123 235.715 90.7123C234.815 90.4123 233.915 89.9123 233.215 89.2123L234.815 87.2123C235.415 87.7123 236.015 88.0123 236.615 88.3123C237.215 88.6123 237.915 88.7123 238.615 88.7123C239.215 88.7123 239.615 88.6123 239.915 88.4123C240.215 88.2123 240.415 87.9123 240.415 87.5123C240.415 87.3123 240.415 87.2123 240.315 87.0123C240.215 86.9123 240.115 86.7123 239.915 86.6123C239.715 86.5123 239.515 86.4123 239.115 86.2123C238.815 86.1123 238.315 86.0123 237.815 85.8123C237.215 85.6123 236.615 85.5123 236.115 85.3123C235.615 85.1123 235.115 84.9123 234.815 84.6123C234.415 84.3123 234.215 84.0123 234.015 83.6123C233.815 83.2123 233.715 82.7123 233.715 82.0123C233.715 81.4123 233.815 80.9123 234.015 80.4123C234.215 79.9123 234.515 79.5123 234.915 79.2123C235.315 78.9123 235.715 78.6123 236.315 78.4123C236.815 78.2123 237.415 78.1123 238.115 78.1123C239.015 78.1123 239.915 78.2123 240.615 78.5123C241.415 78.8123 242.115 79.2123 242.715 79.7123L241.315 81.8123C240.715 81.4123 240.215 81.1123 239.615 80.9123C239.115 80.7123 238.515 80.6123 238.015 80.6123C237.515 80.6123 237.115 80.7123 236.815 80.9123C236.515 81.1123 236.415 81.4123 236.415 81.7123C236.415 81.9123 236.415 82.1123 236.515 82.2123C236.615 82.4123 236.715 82.5123 236.915 82.6123C237.115 82.7123 237.415 82.8123 237.715 82.9123C238.115 83.0123 238.515 83.1123 239.015 83.3123C239.615 83.5123 240.215 83.7123 240.715 83.9123C241.215 84.1123 241.615 84.4123 242.015 84.7123C242.315 85.0123 242.615 85.3123 242.815 85.7123C243.015 86.1123 243.115 86.6123 243.115 87.1123C243.115 87.7123 243.015 88.3123 242.815 88.8123C242.615 89.3123 242.315 89.7123 241.915 90.0123C241.515 90.3123 241.015 90.6123 240.515 90.8123C239.815 91.1123 239.215 91.2123 238.515 91.2123Z" fill="black"/>
<path d="M248.915 81.0127H245.115V78.5127H255.515V81.0127H251.715V91.0127H248.915V81.0127V81.0127Z" fill="black"/>
</svg>
